<svg fill="none" height="741" viewBox="0 0 713 741" width="713" xmlns="http://www.w3.org/2000/svg"><path d="m580.3 642.1c-.1-.2-12.3-21.6-26.3-53.6v-.1l.1-.1c.2-.2 16-19.1 32-22.3 2.3-.5 4.4-.7 6.4-.7 10.1 0 13.4 5.8 13.4 5.8 8 27.1-24.9 70.5-25.3 70.9l-.2.2z" fill="#000"/><path d="m199.5 648.2c-45.1-22-39.6-50.5-39.5-50.7s2.5-4.6 11.8-4.6c1.1 0 2.2 0 3.4.1 14 1 28.3 9.3 28.4 9.4l.1.1v.1c-.5 15.2-1.9 30.5-4 45.5v.3z" fill="#000"/><path d="m149.8 740.2v-.2c0-16.7 8.9-25 19.3-34.6 5.9-5.4 12.5-11.6 18.2-20.1 10-14.9 12.1-37.1 12.1-37.3 2.1-15 3.5-30.3 4-45.5v-18.5l129.7 75 .5 16c-.7 7.5-1.5 14.8-2.5 21.8v.2h-.2c-2.4-.2-4.7-.2-7-.2-34.4 0-67.3 16.2-88.2 43.4l-.1.1h-85.8z" fill="#f9494b"/><path d="m265.6 740.2-5.1-24.2.1-.1c18.6-12.8 40.4-19.6 63.1-19.6h.2c2.3 0 4.6.1 7 .2h.2v.2c-4 28.7-9 43.1-9.1 43.3v.1z" fill="#000"/><path d="m569.8 740.2c-21-27.2-54-43.4-88.4-43.4-6.7 0-13.4.6-20 1.8h-.2l-14.9-36.4 29.4-82.1 78.5 8.1v.1c14 32 26.1 53.3 26.3 53.5 12.8 21.4 24.2 38 54.5 57.5 16.2 10.5 24.4 20.9 28.4 27.9 4.4 7.5 4.9 12.7 4.9 12.7v.2h-98.5z" fill="#f9494b"/><path d="m478.3 740.2-17.2-42h.2c6.6-1.2 13.4-1.8 20.1-1.8h.2c19.4 0 38.6 5.1 55.4 14.8l.1.1-2.5 29z" fill="#000"/><path d="m31.9002 412.3c-10.2 0-12.6-3.8-13.5-6.7l-.4-1.4h-1.4c-.8 0-3.7-.2-5.8-2.4-1.70002-1.8-2.60002-4.5-2.50002-8.1v-1.1l-.89996-.6c-.4-.3-4-3-4.5-6.9-.3-2.3.59998-4.7 2.59998-7.1l1.20001-1.4-1.29999-1.3c-.3-.3-3.30001-3.5-2.70001-7 .5-3 3.39997-5.7 8.59999-8 14.5-6.5 21.7-9.6 23.6-10.4l3.8-1.7-3.7-2c-.7-.4-4.4-2.5-4.8-5.4-.2-1.9.9-3.9 3.6-6.1 3.5-3 28.4-16.6 42.5-24.2 28.7998-16.6 58.0998-35 89.4998-56.3 39.3-26.7 83.1-64.2 113.3-91.3l35.3 24.9c5.4 26.7 3.5 69.2 3.2 75.2-40.8 37.2-102.8 77-139.4 94.2-70.5 33.2-122.2998 55.1-146.2998 55.1z" fill="#fff"/><path d="m279.2 165.7 33.4 23.5c5 25.4 3.4 64.8 3 73.1-40.6 36.9-102 76.3-138.3 93.3-70.1 32.8-121.6999 54.7-145.3999 54.7-9.9 0-11.1-3.9-11.6-5.3l-.9-2.7-2.9-.1c-.5 0-2.8001-.1-4.4001-1.8-1.3-1.4-1.9999-3.6-1.8999-6.7l.0999-2.1-1.69996-1.2c-.1-.1-3.29995-2.4-3.69995-5.5-.2-1.8.49997-3.6 2.09997-5.5l2.29999-2.8-2.5-2.6c-.1-.1-2.60001-2.7-2.20001-5.2.4-2.2 3.00002-4.5 7.40006-6.5 14.5-6.5 21.6999-9.6 23.5999-10.4l7.7-3.3-7.3999-3.9c-1.7-.9-3.6001-2.5-3.8001-3.9-.1-1.1.9001-2.7 2.9001-4.3 3-2.5 24-14.2 42.2-23.9h.0999.1001c28.7999-16.5 58.0999-35 89.5999-56.4 38.7-26.5 82-63.5 112.2-90.5zm-.3-5.1-.1.1c-30.2 27.1-74.5 65.1-114.2 92.1-31.4 21.3-60.6 39.7-89.3 56.2-1.6.8-38.1999 20.5-42.8999 24.4-3.2 2.7-4.6 5.3-4.2 7.9.5 3.8 4.5999 6.2 5.8999 6.9-1.7.7-8.7999 3.8-23.5999 10.4-5.80004 2.6-9.10005 5.8-9.70005 9.5-.7 4.3 2.49999 8 3.29999 8.7-2.4 2.8-3.400002 5.8-3 8.7.6 4.6 4.70005 7.7 5.30005 8.2-.1 4.2.9 7.4 3 9.6 2.70001 2.7 6.19991 3 7.19991 3 1.7 5.4 6.8001 8.1 15.4001 8.1 24.4 0 76.4999-22 147.0999-55.1 37-17.3 99.7-57.6 140.5-95l.1-.1v-.1c0-.5 2.7-48.5-3.3-77.2v-.1z" fill="#000"/><path d="m38.7999 350.7c-.8 0-1.4999-.5-1.7999-1.2-.4-1 0-2.2 1-2.6l25.2-10.9c1-.4 2.1999 0 2.5999 1s0 2.2-1 2.6l-25.2 10.9c-.3.1-.5.2-.8.2z" fill="#000"/><path d="m6.40007 379.5c-.8 0-1.60002-.5-1.90002-1.3-.4-1 .20001-2.2 1.20001-2.6.3-.1 27.59994-10.2 48.29994-20.2 1-.5 2.2001-.1 2.7001.9s.0999 2.2-.9001 2.7c-20.8 10.1-48.39998 20.3-48.69998 20.4-.2.1-.49995.1-.69995.1z" fill="#000"/><path d="m8.50009 395.2c-.8 0-1.49999-.5-1.79999-1.2-.4-1 .09998-2.2 1.09998-2.6.3-.1 33.50002-14.1 52.30002-22.9 1-.5 2.2 0 2.7 1s0 2.2-1 2.7c-18.9 8.8-52.10002 22.8-52.50002 22.9-.3.1-.49999.1-.79999.1z" fill="#000"/><path d="m18.4001 405.7c-.8 0-1.6001-.5-1.9001-1.4-.3-1 .2-2.2 1.3-2.5.3-.1 33.0001-10.9 50.4001-19.5 1-.5 2.2-.1 2.7.9s.0999 2.2-.9001 2.7c-17.7 8.8-50.6 19.6-51 19.7-.2.1-.3999.1-.5999.1z" fill="#000"/><path d="m72.1999 392.1c-.7 0-1.4-.4-1.8-1.1l-19.5-37.4c-.5-1-.1-2.2.8-2.7 1-.5 2.2-.1 2.7.8l19.5 37.4c.5 1 .1 2.2-.8 2.7-.3.2-.6.3-.9.3z" fill="#000"/><path d="m271.8 121.7-87.8 75.7c1.8 8.6 7.4 16 15.2 20.2 9.9 5.4 14.1 8.1 17.2 15.2l-10.1 17.2s9.1 30.3 47.5 26.3l33-113.9z" fill="#f9494b"/><path d="m216.3 234.8c-.4 0-.7-.1-1.1-.3-.9-.6-1.2-1.8-.6-2.8l36.3-57.6c.6-.9 1.8-1.2 2.8-.6.9.6 1.2 1.8.6 2.8l-36.3 57.6c-.4.6-1 .9-1.7.9z" fill="#000"/><path d="m349.2 169.7-65.6-8.5v.2s-10.9 38.2-26.2 92l52.5 34.1 102.7-20.2c-35.9-55.3-62.6-96.3-63.4-97.6z" fill="#fff"/><path d="m389.9 683.9c-46.7 0-96.9-19.9-153.6-61-10.4-7.4-21.3-14.1-32.6-20-33-15.6-43.9-5.1-43.8-5.4 4.8-17.8 25.8-91.9 62.3-220.3l4.9-17.2c13.7-48.4 27.1-95.4 37.4-131.5v-.1h.3c2.9 0 28.9 1 43.4 35.3 16.3-33.7 49.4-38.7 67.8-38.7 5.7 0 9.3.5 9.4.5h.1v.1c65.3 100.6 217.4 335.6 220.4 345.7-8.6-8.5-28.7-5.9-51.8 17.6-1.3 1.4-8.8 9.3-18 19-33.6 35.3-80.6 76-146.2 76z" fill="#f696bb"/><path d="m307.7 266c-.8 0-1.5-.5-1.8-1.2-14.5-34.6-40.5-34.4-41.6-34.4s-2-.8-2-1.9.8-2 1.9-2.1c1.2 0 27.8-.4 43.7 33 12.1-21.9 31.6-30.6 46.3-34 16.7-3.9 30.4-1.9 31-1.8 1.1.2 1.8 1.2 1.7 2.3-.2 1.1-1.2 1.8-2.3 1.7-.1 0-13.7-1.9-29.6 1.8-21.2 4.9-36.5 16.9-45.4 35.6-.4.6-1.1 1-1.9 1z" fill="#000"/><path d="m315 472.3c-7.6 0-12.8-1.9-15.3-5.7l-.6-.9h-1c-2.4-.1-7-.9-9.3-3.7-1.4-1.7-1.9-3.9-1.4-6.7l.2-1.5-1.4-.6c-.5-.2-4.6-2.3-5.6-5.9-.7-2.4.1-5.1 2.2-8l1-1.4-1.3-1.2c-.4-.4-3.8-3.6-3.3-7.4.4-3.4 3.6-6.6 9.4-9.4l29-14.4-4.5-1.6c-2.3-.8-6-3-4.6-8.2.9-3.5 11.5-10.5 24.8-19.3 6.2-4.1 13.2-8.6 20.7-13.8 17.8-10.6 54-34.6 72.3-48.4l1.5-1.1-89-141.6 8.2-8.2c57.1 24 102 53.3 133.6 87.2 32.2 34.5 38 60.4 39 67.5 3.3 22.8.2 53.5-52.8 88.2-34.6 23-114.7 66.1-151.8 66.1z" fill="#fff"/><path d="m347.5 165.6c56.2 23.8 100.5 52.7 131.7 86.2 31.8 34.1 37.5 59.5 38.5 66.5 1.4 9.8 2.1 23.1-5 38.4-7.7 16.4-23.4 32.5-46.9 47.9-15.1 10.1-43.8 27-74.9 41.7-33.6 15.8-59.9 24.2-75.8 24.2-6.9 0-11.5-1.6-13.6-4.8l-1.1-1.7-2-.1c-1.9-.1-6-.7-7.8-3-1-1.2-1.3-2.9-1-5.1l.5-3-2.7-1.3c-1.4-.7-3.9-2.4-4.6-4.6-.5-1.7.2-3.9 1.9-6.3l2.1-2.9-2.6-2.4c-.1-.1-3-2.8-2.7-5.7.4-3.3 4.7-6.1 8.3-7.9l24.8-12.3 8.5-4.2-8.9-3.2c-1.1-.4-4.5-1.6-3.4-5.8.1-.3.8-1.9 6.4-6.1 4.3-3.3 10.5-7.3 17.6-12 6.2-4 13.1-8.6 20.6-13.8 17.9-10.7 54.1-34.6 72.4-48.5l2.9-2.2-2-3.1-87.2-138.7zm-1-4.8-10.3 10.3 88.9 141.4c-18.2 13.8-54.3 37.7-72.2 48.3-7.5 5.2-14.5 9.8-20.7 13.8-14.8 9.7-24.6 16.1-25.7 20.4-1.9 7.3 4.1 10 5.9 10.6l-24.8 12.3c-6.5 3.2-10 6.9-10.5 11-.6 4.7 3.2 8.4 3.9 9.1-2.5 3.5-3.4 6.7-2.5 9.7 1.2 4.4 5.8 6.8 6.7 7.2-.5 3.4.1 6.2 1.9 8.3 3.4 4 9.9 4.3 10.8 4.4 2.9 4.3 8.6 6.5 17 6.5 37.6 0 118.2-43.3 153-66.5 53.9-35.3 57-66.7 53.6-90.1-1-7.3-7-33.7-39.5-68.6-32-34.3-77.5-64-135.4-88.1z" fill="#000"/><path d="m320.2 406.4c-.7 0-1.4-.4-1.8-1.1-.5-1-.1-2.2.9-2.7l18.1-9.1c1-.5 2.2-.1 2.7.9s.1 2.2-.9 2.7l-18.1 9.1c-.3.1-.6.2-.9.2z" fill="#000"/><path d="m284.6 440.1c-.9 0-1.7-.6-1.9-1.4-.3-1.1.3-2.2 1.3-2.5 17.8-5.3 39.1-15.2 50.2-20.7 1-.5 2.2-.1 2.7.9s.1 2.2-.9 2.7c-11.2 5.5-32.8 15.5-50.8 20.9-.2.1-.4.1-.6.1z" fill="#000"/><path d="m287.7 455.9c-.9 0-1.7-.6-1.9-1.4-.3-1.1.3-2.2 1.3-2.5.3-.1 30.5-9.2 54.6-20.4 1-.5 2.2 0 2.7 1s0 2.2-1 2.7c-24.3 11.3-54.9 20.5-55.2 20.6-.1 0-.3 0-.5 0z" fill="#000"/><path d="m300.2 467.5c-.9 0-1.8-.7-2-1.6-.2-1.1.5-2.1 1.6-2.3.2 0 19.5-3.7 48.1-17.6 1-.5 2.2-.1 2.7.9s.1 2.2-.9 2.7c-29.1 14.2-48.3 17.8-49.1 18-.2-.1-.3-.1-.4-.1z" fill="#000"/><path d="m296.1 416.7c-.7 0-1.4-.4-1.8-1l-24.1-43.7c-.5-1-.2-2.2.8-2.7s2.2-.2 2.7.8l24.1 43.7c.5 1 .2 2.2-.8 2.7-.2.1-.6.2-.9.2z" fill="#000"/><path d="m264.7 399.2c-.2 0-.4 0-.6-.1-1.1-.3-1.6-1.5-1.3-2.5l8.2-26c.2-.5.5-.9 1-1.2.5-.2 1-.3 1.5-.1l25.4 8.7c1 .4 1.6 1.5 1.2 2.5s-1.5 1.6-2.5 1.2l-23.5-8-7.6 24c-.2 1-1 1.5-1.8 1.5z" fill="#000"/><path d="m269.092 373.32c19.647-9.354 28.241-32.339 19.195-51.338s-32.306-26.817-51.953-17.463c-19.648 9.355-28.241 32.34-19.196 51.339 9.046 18.999 32.307 26.817 51.954 17.462z" fill="#f9494b"/><path d="m252.7 342.4c1.933 0 3.5-1.567 3.5-3.5s-1.567-3.5-3.5-3.5-3.5 1.567-3.5 3.5 1.567 3.5 3.5 3.5z" fill="#000"/><path d="m338.5 113.6 134.4 60.6c-7.4 8.8-12.6 19.1-15.2 30.3-5.7 25.7-13.1 31.3-25.2 35.3l-15.2-14.1c-22.2 9.1-20.2 38.4-58.6 35.4l-31.4-116.1z" fill="#f9494b"/><path d="m191.1 682.1c-.2 0-.4 0-.5-.1l-112-31.4c-14.4-4.1-22.8999-19.1-18.7999-33.5.5-1.9 1.2999-3.7 2.2999-5.6l1-1.9c7.1-13.2 23.7001-18.1 36.8001-11 1.5999.9 3.3999 2 4.9999 3.5l87.6 76.5c.7.6.9 1.6.4 2.5-.4.6-1.1 1-1.8 1zm-104.0999-82.7c-8.2 0-16.2001 4.4-20.4001 12.2l-1 1.9c-.9 1.6-1.4999 3.2-1.8999 4.8-3.5 12.3 3.7 25.1 16 28.5l103.4999 29-80.9-70.7c-1.4-1.3-2.8999-2.2-4.2999-3-3.5-1.8-7.3-2.7-11-2.7z" fill="#000"/><path d="m97.9001 719.4c-.2 0-.4 0-.7-.1-1-.4-1.6001-1.5-1.2001-2.5 7.5-21.7 26.4-35.2 54.8-39 21.2-2.9 39.8.6 40.6.7.1 0 .2 0 .2.1l25.7 8.1c1.1.3 1.6 1.5 1.3 2.5-.3 1.1-1.5 1.6-2.5 1.3l-25.6-8.1c-1.6-.3-19.6-3.3-39.3-.7-27.1 3.7-44.4 15.9-51.4 36.4-.3.8-1.0999 1.3-1.8999 1.3z" fill="#000"/><path d="m603.9 673.5c-.5 0-1-.2-1.4-.6-.6-.6-.8-1.6-.4-2.4l48-93.8c1.5-2.9 3.4-5.4 5.4-7.6 12.3-12.8 32.6-13.2 45.4-1l2 1.9c2.4 2.3 4.4 4.8 5.8 7.4 4.2 7.4 5.3 16.1 3 24.4s-7.7 15.2-15.2 19.4l-91.7 51.9c-.2.3-.6.4-.9.4zm74.9-110.2c-7.4 0-14.8 2.9-20.3 8.6-1.8 1.9-3.4 4.2-4.8 6.7l-44.9 87.8 85.9-48.6c6.5-3.7 11.3-9.7 13.3-17 2-7.2 1.1-14.8-2.6-21.4-1.2-2.2-2.9-4.4-5-6.4l-2-1.9c-5.6-5.2-12.6-7.8-19.6-7.8z" fill="#000"/><path d="m608.7 715.7c-.5 0-.9-.2-1.3-.5-.8-.7-.9-2-.2-2.8l18.5-21.1c.7-.8 2-.9 2.8-.2s.9 2 .2 2.8l-18.5 21.1c-.4.5-.9.7-1.5.7z" fill="#000"/><path d="m196.5 717.8c-.5 0-1-.2-1.3-.5l-19.7-17.9c-.8-.7-.9-2-.1-2.8.7-.8 2-.9 2.8-.1l19.7 17.9c.8.7.9 2 .1 2.8-.4.4-1 .6-1.5.6z" fill="#000"/><path d="m581.5 691.5c-.6 0-1.2-.3-1.6-.8-.7-.9-.5-2.1.3-2.8l22.3-17.5c.5-.4 1.2-.5 1.9-.3 16.5 5.3 31 2.7 45 .2 17.6-3.2 34.2-6.1 50.7 8.6.8.7.9 2 .2 2.8s-2 .9-2.8.2c-15-13.4-30-10.7-47.3-7.6-13.5 2.4-28.8 5.2-45.9 0l-21.5 16.8c-.4.3-.9.4-1.3.4z" fill="#000"/><path d="m323.9 76.1999c20.932 0 37.9-16.9684 37.9-37.9s-16.968-37.899998-37.9-37.899998-37.9 16.968398-37.9 37.899998 16.968 37.9 37.9 37.9z" fill="#000"/><path d="m345.5 178.1c-12.1 0-22-9.9-22-22s9.9-22 22-22 22 9.9 22 22-9.9 22-22 22z" fill="#fff"/><path d="m345.5 136c11 0 20 9 20 20s-9 20-20 20-20-9-20-20 9-20 20-20zm0-4c-13.3 0-24 10.8-24 24s10.8 24 24 24 24-10.8 24-24-10.7-24-24-24z" fill="#000"/><path d="m349.2 161c-.3 0-.5 0-.8-.2l-15.8-6.5c-1-.4-1.5-1.6-1.1-2.6s1.6-1.5 2.6-1.1l15.8 6.5c1 .4 1.5 1.6 1.1 2.6-.3.8-1 1.3-1.8 1.3z" fill="#000"/><path d="m302.2 183c-16.2 0-33.2-15.8-42.3-39.3-12-31.4-9.6-61.3002 5.7-69.6002 6.5-3.5 13.7-5.3 21.5-5.3 19.7 0 36.5 11.4 36.7 11.5 11.1 7.9 16.8 16.5 18.3 27.8002 1.7 12.7-1.9 28.8-11.2 50.9-6.5 15.5-16.7 24-28.7 24z" fill="#fff"/><g fill="#000"><path d="m287.2 66.7998v4c18.7 0 34.9 10.7 35.6 11.1 18.3 13 25.8 30.3002 6.4 76.2002-6.2 14.7-15.8 22.9-26.9 22.9-15.4 0-31.7-15.3-40.4-38.1-5.9-15.2-8.4-30.6-7.2-43.3002 1.1-11.8 5.4-20.2 12-23.8 6.2-3.4 13.1-5.1 20.6-5.1zm0 0c-7.3 0-15 1.5-22.5 5.6-16 8.7-19.2 39.1002-6.6 72.1002 9.8 25.4 27.5 40.6 44.1 40.6 11.9 0 23.2-7.8 30.6-25.3 19.2-45.5 13.6-65.9002-7.8-81.1002 0-.1-17.3-11.9-37.8-11.9z"/><path d="m325 78.6001c18.6 13.2 25.2 30.2999 14.1 64.3999-33.1-13.2-31.9-58.8999-31.9-58.8999-27.6 21.3999-56.9 20.0999-56.9 20.0999.4-15.1999 5.4-26.8999 14.3-31.7999 28.6-15.5 60.4 6.2 60.4 6.2z"/><path d="m278.9 140.4c-.3 0-.5-.1-.8-.2-1.9-.8-3.7-2.4-4.8-4.3-1.7-2.9-1.9-7.7-1.1-18.5.1-1.1 1.1-1.9 2.2-1.8s1.9 1.1 1.8 2.2c-.8 9.4-.6 14.2.5 16.1.7 1.2 1.8 2.2 3 2.7 1 .4 1.5 1.6 1 2.6-.3.8-1 1.2-1.8 1.2z"/><path d="m290.6 125.1c-1.1 0-2-.8-2-1.9l-.1-2.5c0-1.1.8-2 1.9-2.1 1.1 0 2 .8 2.1 1.9l.1 2.5c0 1.1-.8 2.1-2 2.1z"/><path d="m263.1 120.1c-1.1 0-2-.8-2-1.9l-.1-2.4c0-1.1.8-2 1.9-2.1s2 .8 2.1 1.9l.1 2.4c0 1.1-.8 2.1-2 2.1z"/><path d="m287.1 152.7c-.3 0-.6 0-.9-.1-.2 0-.4 0-.6 0-1.1 0-2-.9-2-2s.9-2 2-2c.3 0 .6 0 .9.1h.6c3.4 0 6.1-2.7 6.1-6 0-1.1.9-2 2-2s2 .9 2 2c0 5.5-4.5 10-10.1 10z"/><path d="m416.4 228.2c-.5 0-1-.2-1.4-.6l-41.7-39.8c-.8-.8-.8-2-.1-2.8.8-.8 2-.8 2.8-.1l41.7 39.8c.8.8.8 2 .1 2.8-.4.5-.9.7-1.4.7z"/><path d="m427.1 192.7c-.3 0-.6-.1-.9-.2l-59.6-31.3c-1-.5-1.4-1.7-.8-2.7s1.7-1.4 2.7-.8l59.6 31.3c1 .5 1.4 1.7.8 2.7-.4.6-1.1 1-1.8 1z"/><path d="m336.6 80.1998c-6.5 0-14-1.4-23.1-5.1-1-.4-1.5-1.6-1.1-2.6s1.6-1.5 2.6-1.1c19.3 8 30.4 4.5 42 .7 9-2.9 18.4-6 31.8-4 1.1.2 1.9 1.2 1.7 2.3s-1.2 1.9-2.3 1.7c-12.5-1.8-21.4 1.1-30 3.9-6.5 2-13.3 4.2-21.6 4.2z"/><path d="m412.4 110.4c-.4 0-.9-.1-1.3-.4-14.8-12.1002-26.8-12.4001-39.6-12.8001-15.3-.4-32.6-1.0001-56.7-21.7001-.8-.7-.9-1.9999-.2-2.7999s2-.9001 2.8-.2001c23 19.9 38.9 20.3 54.2 20.8 13.4.4 26.1.8 42 13.7002.9.7 1 2 .3 2.8-.3.3-.9.6-1.5.6z"/><path d="m438.2 678.4c-.7 0-1.3-.3-1.7-1-8-13.3-35.8-19.7-36.1-19.8-1-.2-1.6-1.1-1.6-2.1.1-1 .8-1.8 1.8-1.9.4 0 41-3.9 51.9-20.6 2.9-4.4 3.4-9.2 1.5-14.7-1.1-3.3-3.3-5.6-6.7-7.2-17.3-8-57.1 7.5-57.5 7.6-.8.3-1.7.1-2.3-.6-.5-.7-.6-1.6-.1-2.4.3-.4 29.3-43.5 22.2-64.8-1.6-4.9-5-8.1-10.3-9.9-6.1-2-11.8-1.5-17.4 1.7-22.3 12.7-33 62.5-33.2 63-.2.9-.9 1.5-1.8 1.6s-1.7-.4-2-1.2c-.2-.4-17.2-40-35.8-45.7-4.1-1.3-7.8-.8-11.5 1.6-4.8 3-7.3 6.9-7.8 11.9-1.8 18.9 26.5 45.7 26.8 45.9.6.6.8 1.6.4 2.4s-1.3 1.2-2.2 1.1c-30.2-5.7-48.3-1-55.3 14.4-.5 1-1.6 1.4-2.7 1-1-.5-1.4-1.6-1-2.7 10.1-22 38.3-20.1 53.5-17.7-8.3-8.8-25.1-28.7-23.6-44.7.6-6.2 3.8-11.3 9.7-14.9 4.6-2.9 9.6-3.6 14.8-2 16.2 5 30.3 31.2 35.9 42.7 3.6-13.9 14.4-48.9 33.7-60 6.5-3.7 13.5-4.4 20.6-2 6.5 2.2 10.8 6.4 12.9 12.4 6.3 18.8-11.7 50.9-19.4 63.3 12-4.1 40.2-12.4 55.1-5.5 4.4 2 7.4 5.3 8.8 9.6 2.2 6.6 1.6 12.7-2 18.1-8.5 13.1-32.1 18.8-45.4 21.1 9.5 3.2 23.7 9.3 29.5 19 .6.9.3 2.2-.7 2.7-.3.2-.6.3-1 .3z"/><path d="m230.4 620.7c-.2 0-.4 0-.6-.1-1.1-.3-1.6-1.5-1.3-2.5 6.4-20.2-34.8-37.8-35.3-38-.9-.4-1.4-1.4-1.2-2.4.3-1 1.2-1.6 2.2-1.5.4 0 39.2 4.7 53.4-9 3.8-3.7 5.5-8.3 4.9-14.2-.5-5.6-2.8-10-7.1-13.3-13.6-10.6-41.8-6.1-42.1-6.1-.9.1-1.8-.3-2.1-1.1-.4-.8-.1-1.8.5-2.4.3-.2 27.8-23.1 29.8-44.1.6-5.9-1-11.2-4.7-15.7-3.8-4.6-8.9-5.4-12.6-5.3-6.8.2-14.3 3.8-17.9 8.6-.7.9-1.9 1.1-2.8.4s-1.1-1.9-.4-2.8c4.3-5.8 12.9-10 21-10.3 6.5-.2 12 2.2 15.8 6.8 4.4 5.3 6.3 11.6 5.6 18.6-1.6 17.2-18.1 34.7-26.5 42.6 9.6-.8 27.9-.9 38.8 7.6 5.1 4 8.1 9.4 8.7 16.1.6 7-1.4 12.9-6.1 17.4-10.8 10.4-33.1 11.3-46.3 10.8 12.8 7 33.5 21.3 28.1 38.2-.2 1.2-.9 1.7-1.8 1.7z"/><path d="m496.1 646c-.5 0-1-.2-1.4-.6-8.5-8.2-12.1-17.2-10.9-26.8 2.5-19.3 24.1-35.4 33.4-41.5-15.7-3.9-63.7-18.1-59.6-44.4 1.1-6.8 4.5-12 10.2-15.6 14.7-9.2 41-4.8 54.6-1.7-14-12.5-43.4-42.6-30-65.5 2.3-3.9 11.4-16 34.2-7.8 1 .4 1.6 1.5 1.2 2.6-.4 1-1.5 1.6-2.6 1.2-13.4-4.9-24.4-2.6-29.4 6-15.1 26.1 35.4 65.7 35.9 66.1.8.6 1 1.6.5 2.5-.4.9-1.4 1.3-2.4 1-.4-.1-41.6-12.6-60-1-4.7 3-7.4 7.2-8.3 12.8-2.1 13.8 14.3 24.1 28.5 30.4 15.9 7 32.6 10.5 32.7 10.6.8.2 1.4.8 1.6 1.6.1.8-.3 1.6-1 2-.3.2-32.8 18.9-35.6 41.1-1.1 8.3 2.2 16.2 9.7 23.4.8.8.8 2 0 2.8-.3.6-.8.8-1.3.8z"/><path d="m423.4 318.7c-.6 0-1.2-.3-1.6-.8-.7-.9-.5-2.1.4-2.8l23.2-17.2c.9-.7 2.1-.5 2.8.4s.5 2.1-.4 2.8l-23.2 17.2c-.4.3-.8.4-1.2.4z"/></g></svg>