<svg width="713" height="676" viewBox="0 0 713 676" fill="none" xmlns="http://www.w3.org/2000/svg">
<path d="M586.9 345.7C585.8 345.7 584.7 345.6 583.7 345.5H583.6L583.5 345.4C583.5 345.4 579 340.5 580.2 331.1C581.5 321.7 587.7 312.8 587.8 312.7L587.9 312.5L588.1 312.6C595.8 317.8 615.8 326.9 616 327L616.2 327.1L616.1 327.3C616 327.5 604 345.7 586.9 345.7Z" fill="black"/>
<path d="M513.3 582.1C511.2 567.1 509.8 551.8 509.3 536.6V536.5L509.4 536.4C509.5 536.3 523.1 527.7 537.1 526.7C538.3 526.6 539.5 526.6 540.5 526.6C549.9 526.6 552.9 531.3 553 531.4C553.1 531.8 558.6 560.2 513.5 582.2L513.3 582.3V582.1Z" fill="black"/>
<path d="M132.4 576.1C132.1 575.7 99.1 532.3 107.1 505.2V505.1H107.2C107.3 505 110.9 502.8 117.5 502.8C120.4 502.8 123.4 503.2 126.5 504.1C144.5 509.1 158.8 522.2 158.9 522.3L159 522.4L158.9 522.5C144.9 554.5 132.7 575.9 132.6 576.1L132.5 576.4L132.4 576.1Z" fill="black"/>
<path d="M44.6001 674.2V674C44.6001 673.9 45.1001 668.8 49.5001 661.3C53.5001 654.4 61.7001 643.9 77.9001 633.4C108.2 613.9 119.6 597.2 132.4 575.9C132.5 575.7 144.7 554.3 158.7 522.4L158.8 522.2L260.8 610.4L234.8 674.2H44.6001Z" fill="#98D8F4"/>
<path d="M391.1 674.2C391 673.9 383.5 652.2 379.5 609.1L380 593.1L509.7 518.1V536.6C510.2 551.7 511.6 567 513.7 582C513.7 582.2 515.8 604.4 525.8 619.3C531.4 627.7 538.1 633.9 543.9 639.4C554.2 649 563.2 657.3 563.2 674V674.2H391.1Z" fill="#98D8F4"/>
<path d="M260.4 610.6C260.2 610.6 243.3 607.3 219.3 589.3C208.1 580.9 195.7 565.4 184.8 551.7C182 548.2 179.4 544.9 176.8 541.7C171.3 535 165.2 528.6 158.8 522.7C158.8 522.7 131.5 496 107 505.1C110.8 492.1 266.1 318.4 272.7 311L411.3 234.1L490.6 311V311.1C527.1 439.5 548 513.6 552.8 531.4C552.9 531.7 541.6 519.7 509 536.8C499.6 542.1 490.5 548.2 482 554.8L480.2 556.2C462.3 570.3 446.8 582.5 420.4 595.2C407.4 601.4 393.6 606 379.5 609H379.3V608.8C376.1 574.4 375.9 536.1 378.8 494.9C385.4 399.7 376.9 334.5 375.9 326.9L260.6 610.7L260.4 610.6Z" fill="#6C79D9"/>
<path d="M233.4 600.2C233.1 600.2 232.8 600.1 232.5 600C231.5 599.5 231.1 598.3 231.5 597.3L386.4 269C386.9 268 388.1 267.6 389.1 268C390.1 268.5 390.5 269.7 390.1 270.7L235.2 599.1C234.9 599.8 234.1 600.2 233.4 600.2Z" fill="black"/>
<path d="M188.4 557.2C188.1 557.2 187.7 557.1 187.4 556.9C186.4 556.4 186.1 555.1 186.6 554.2L340 278C340.5 277 341.8 276.7 342.7 277.2C343.7 277.7 344 279 343.5 279.9L190.1 556.2C189.8 556.8 189.1 557.2 188.4 557.2Z" fill="black"/>
<path d="M141.7 512.2C141.3 512.2 140.9 512.1 140.5 511.8C139.6 511.1 139.4 509.9 140.1 509L313.8 279.8C314.5 278.9 315.7 278.7 316.6 279.4C317.5 280.1 317.7 281.3 317 282.2L143.3 511.4C142.9 511.9 142.3 512.2 141.7 512.2Z" fill="black"/>
<path d="M522.5 533.5C521.6 533.5 520.8 532.9 520.5 531.9L468 291.5C467.8 290.4 468.4 289.4 469.5 289.1C470.6 288.9 471.6 289.5 471.9 290.6L524.4 531C524.6 532.1 524 533.1 522.9 533.4C522.8 533.5 522.6 533.5 522.5 533.5Z" fill="black"/>
<path d="M471 564.9C470 564.9 469.1 564.1 469 563.1L439.7 270.1C439.6 269 440.4 268 441.5 267.9C442.6 267.8 443.6 268.6 443.7 269.7L473 562.7C473.1 563.8 472.3 564.8 471.2 564.9C471.1 564.9 471.1 564.9 471 564.9Z" fill="black"/>
<path d="M420.5 597.2C419.4 597.2 418.5 596.3 418.5 595.3L407.6 250C407.6 248.9 408.4 248 409.5 247.9C410.6 247.8 411.5 248.7 411.6 249.8L422.5 595.1C422.5 596.2 421.7 597.2 420.5 597.2Z" fill="black"/>
<path d="M682.6 346.8C667.1 346.8 641.8 336.6 616.7 325.5C616.5 325.4 596.6 316.4 589 311.3L588.9 311.2L541.7 285.2L576.1 218.4L636.8 244.7C647.4 250.4 675.5 265.7 679.3 268.8C681.9 271 683.1 273.1 682.9 274.9C682.5 277.8 678.8 279.9 678.1 280.3L674.4 282.3L678.2 284C680.1 284.8 687.2 287.9 701.8 294.4C707 296.7 709.9 299.4 710.4 302.4C711 305.8 708.2 308.8 707.7 309.4L706.4 310.7L707.6 312.1C709.6 314.5 710.5 316.9 710.2 319.2C709.7 323 706.1 325.8 705.7 326.1L704.8 326.7V327.8C704.9 331.4 704.1 334.1 702.3 335.9C700.1 338.2 697.1 338.3 696.5 338.3H694.9L694.6 339.9C694.3 341.6 693.2 346.8 682.6 346.8Z" fill="white"/>
<path d="M577.1 221L636 246.5C650.6 254.3 674.8 267.7 678.1 270.4C680.1 272.1 681.1 273.6 681 274.7C680.8 276.1 678.9 277.7 677.2 278.6L669.8 282.5L677.5 285.8C679.4 286.6 686.5 289.7 701.1 296.2C705.5 298.2 708.2 300.5 708.5 302.7C708.9 305.2 706.4 307.8 706.3 307.9L703.8 310.5L706.1 313.3C707.8 315.3 708.5 317.1 708.2 318.8C707.8 321.9 704.6 324.2 704.5 324.3L702.8 325.5L702.9 327.6C703 330.6 702.3 332.9 701 334.3C699.3 336 696.9 336.1 696.6 336.1H693.4L692.8 339.3C692.5 340.8 691.7 344.6 682.7 344.6C667.6 344.6 642.5 334.5 617.7 323.5C617.5 323.4 597.7 314.4 590.3 309.4L590.1 309.3L589.9 309.2L544.5 284.2L577.1 221ZM575.2 215.9L539 286.1L587.9 313C595.7 318.3 615.7 327.3 615.9 327.4C641.2 338.5 666.7 348.8 682.6 348.8C690.8 348.8 695.5 345.9 696.6 340.2C697.5 340.2 701.1 340 703.8 337.2C705.9 335 706.9 331.8 706.8 327.6C707.5 327.1 711.5 324 712.1 319.4C712.5 316.5 711.5 313.6 709.1 310.7C709.8 310 713.1 306.3 712.4 302C711.8 298.3 708.5 295.1 702.7 292.5C687.9 285.9 680.7 282.8 679.1 282.1C680.4 281.4 684.5 279 685 275.2C685.3 272.6 683.9 269.9 680.7 267.3C676 263.4 639.4 243.7 637.8 242.9L575.2 215.9Z" fill="black"/>
<path d="M583.7 345.5C567.5 343.3 444.7 261 398.1 200.1C372.4 166.5 374 126.2 379.9 98.3997V98.2997L434.2 94.6997L434.3 94.7997C464.5 121.9 508.8 159.9 548.5 186.9C579.9 208.2 609.1 226.6 637.8 243.1L637.9 243.2V243.3C637.5 247.9 630.3 269.6 612.1 286.4C596.8 300.4 589.4 311.4 588.4 312.9C575.3 334.9 583.7 345.5 583.7 345.5Z" fill="#98D8F4"/>
<path d="M674.2 284.7C673.9 284.7 673.7 284.6 673.4 284.5L648.2 273.6C647.2 273.2 646.7 272 647.2 271C647.6 270 648.8 269.5 649.8 270L675 280.9C676 281.3 676.5 282.5 676 283.5C675.7 284.2 675 284.7 674.2 284.7Z" fill="black"/>
<path d="M706.6 313.5C706.4 313.5 706.1 313.5 705.9 313.4C705.6 313.3 678.1 303.1 657.2 293C656.2 292.5 655.8 291.3 656.3 290.3C656.8 289.3 658 288.9 659 289.4C679.7 299.4 707 309.5 707.3 309.6C708.3 310 708.9 311.1 708.5 312.2C708.2 313 707.4 313.5 706.6 313.5Z" fill="black"/>
<path d="M704.5 329.2C704.2 329.2 704 329.1 703.7 329C703.4 328.9 670.1 314.9 651.2 306.1C650.2 305.6 649.8 304.4 650.2 303.4C650.7 302.4 651.9 302 652.9 302.4C671.7 311.2 704.9 325.1 705.2 325.3C706.2 325.7 706.7 326.9 706.3 327.9C706 328.7 705.3 329.2 704.5 329.2Z" fill="black"/>
<path d="M694.6 339.7C694.4 339.7 694.2 339.7 694 339.6C693.7 339.5 660.8 328.7 643 319.9C642 319.4 641.6 318.2 642.1 317.2C642.6 316.2 643.8 315.8 644.8 316.3C662.3 324.9 694.9 335.7 695.2 335.8C696.2 336.1 696.8 337.3 696.5 338.3C696.2 339.2 695.4 339.7 694.6 339.7Z" fill="black"/>
<path d="M640.8 326.1C640.5 326.1 640.2 326 639.9 325.9C638.9 325.4 638.5 324.2 639.1 323.2L658.6 285.8C659.1 284.8 660.3 284.4 661.3 285C662.3 285.5 662.7 286.7 662.1 287.7L642.6 325C642.2 325.7 641.5 326.1 640.8 326.1Z" fill="black"/>
<path d="M416.4 264L272.6 311.6L363.8 103.6L429.3 95.0996V95.2996C429.3 95.2996 456.7 191.5 485.8 294L490.8 311.7L416.4 264Z" fill="#98D8F4"/>
<path d="M411.4 228.4L435.7 205.5L418 129.5H404.7L387.1 205.5L411.4 228.4Z" fill="black"/>
<path d="M400 116.3L404.7 129.5H418L422.7 116.3H400Z" fill="black"/>
<path d="M416.4 264L272.6 311.6L353 128.4L411.4 185.7L441.4 137.2L441.5 137.6C452.2 175.2 468.8 233.5 486 294L491 311.7L416.4 264Z" fill="#98D8F4"/>
<path d="M272.9 313.4C272.1 313.4 271.3 312.9 271 312C270.7 311 271.2 309.8 272.3 309.5L415.8 262C416.4 261.8 417 261.9 417.5 262.2L491.7 309.7C492.6 310.3 492.9 311.5 492.3 312.5C491.7 313.4 490.5 313.7 489.5 313.1L416.1 266.1L273.5 313.3C273.3 313.4 273.1 313.4 272.9 313.4Z" fill="black"/>
<path d="M481.4 280.7C480.5 280.7 479.7 280.1 479.5 279.2L456 196.7C455.7 195.6 456.3 194.5 457.4 194.2C458.5 193.9 459.6 194.5 459.9 195.6L483.4 278.1C483.7 279.2 483.1 280.3 482 280.6C481.8 280.7 481.6 280.7 481.4 280.7Z" fill="black"/>
<path d="M399.9 407C385.6 407 361.8 397.999 327.1 379.599C326.9 379.499 306.4 368.9 296.1 362.7L262.8 344.7L296.7 265L359 296.599C366.5 301.799 373.4 306.299 379.5 310.299L379.6 310.4C393 319.2 403.6 326.1 404.5 329.7C405.1 332 405.2 336 399.9 337.9L395.4 339.5L424.4 353.9C429.3 356.3 434.9 360.299 433.7 365.599C433.1 368.199 431.1 370.3 430.6 370.7L429.2 371.9L430.3 373.4C432.4 376.4 433.2 379.1 432.5 381.4C431.5 385 427.3 387.099 426.9 387.299L425.5 387.9L425.7 389.4C426.2 392.2 425.7 394.499 424.3 396.099C421.5 399.499 415.7 399.699 415 399.799H413.8L413.3 400.9C411.1 405 406.7 407 399.9 407Z" fill="white"/>
<path d="M297.7 267.8L358 298.4C365.4 303.5 372.4 308.1 378.5 312.1L378.6 312.2C385.7 316.9 391.9 320.9 396.2 324.2C401.8 328.4 402.5 330 402.6 330.3C403.7 334.6 400.3 335.8 399.2 336.1L390.3 339.3L398.8 343.5L423.6 355.8C427.9 357.9 432.7 361.3 431.8 365.3C431.4 367.2 429.9 368.9 429.4 369.3L426.5 371.7L428.7 374.7C430.5 377.1 431.1 379.3 430.6 381C430 383.2 427.4 385 426 385.6L423.3 386.9L423.8 389.9C424.2 392.1 423.8 393.8 422.8 395C421 397.2 416.9 397.9 415 398L412.6 398.1L411.5 400.2C408.9 405.3 402.2 405.3 400 405.3C386 405.3 362.5 396.4 328.1 378.1C327.9 378 307.5 367.4 297.2 361.3H297.1H297L265.4 344.2L297.7 267.8ZM295.7 262.2L260.2 345.6L295 364.4C305.4 370.6 325.9 381.2 326.1 381.3C361.1 399.9 385.2 409 399.9 409C407.4 409 412.5 406.5 415 401.7C416 401.7 422.4 401.3 425.8 397.3C427.6 395.2 428.2 392.4 427.7 389C428.6 388.6 433.2 386.2 434.4 381.8C435.2 378.8 434.4 375.6 431.8 372.1C432.6 371.4 434.9 369 435.6 365.9C436.4 362.3 435.3 356.9 425.3 352L400.5 339.7C402.3 339.1 408.3 336.4 406.4 329.1C405.3 324.8 395.5 318.4 380.7 308.7C374.5 304.6 367.5 300.1 360 294.9L295.7 262.2Z" fill="black"/>
<path d="M294 399.9C291.9 399.9 289.9 399.6 288 399.1H287.9V399C287.6 398.6 281.7 389.2 295.1 364.1L295.2 363.9L326.7 381L326.6 381.2C326.3 381.5 311.3 399.9 294 399.9Z" fill="black"/>
<path d="M287.9 399.1C262.6 382.9 239.5 360.6 222.7 336.2C205.2 310.7 196 284.7 196.9 262.9C197.6 245.1 204.6 217.3 233.7 185.9C262.9 154.4 308.1 125.7 368.1 100.6H368.2L378.6 107.8L300.2 254.1C319.6 268.8 343.1 284.8 360 294.9L360.2 295L360.1 295.2C360 295.3 352.2 308.3 335 322.4C332.6 324.4 330.3 326.2 328.2 327.9C315.4 338.1 306.1 345.5 295.5 364.3C282.1 388.7 287.9 399.1 287.9 399.1Z" fill="#98D8F4"/>
<path d="M392.8 340.4C392.5 340.4 392.2 340.3 391.9 340.2L373.8 331.1C372.8 330.6 372.4 329.4 372.9 328.4C373.4 327.4 374.6 327 375.6 327.5L393.7 336.6C394.7 337.1 395.1 338.3 394.6 339.3C394.2 340 393.5 340.4 392.8 340.4Z" fill="black"/>
<path d="M428.4 374.1C428.2 374.1 428 374.1 427.8 374C409.8 368.6 388.2 358.6 377 353.1C376 352.6 375.6 351.4 376.1 350.4C376.6 349.4 377.8 349 378.8 349.5C389.9 354.9 411.2 364.9 429 370.2C430.1 370.5 430.7 371.6 430.3 372.7C430.1 373.5 429.3 374.1 428.4 374.1Z" fill="black"/>
<path d="M425.3 389.9C425.1 389.9 424.9 389.9 424.7 389.8C424.4 389.7 393.9 380.5 369.5 369.2C368.5 368.7 368.1 367.5 368.5 366.5C369 365.5 370.2 365.1 371.2 365.5C395.3 376.7 425.5 385.8 425.8 385.9C426.9 386.2 427.5 387.3 427.1 388.4C427 389.3 426.2 389.9 425.3 389.9Z" fill="black"/>
<path d="M412.8 401.5C412.7 401.5 412.6 401.5 412.4 401.5C411.6 401.4 392.4 397.7 363.3 383.5C362.3 383 361.9 381.8 362.4 380.8C362.9 379.8 364.1 379.4 365.1 379.9C393.7 393.8 413 397.5 413.2 397.5C414.3 397.7 415 398.7 414.8 399.8C414.6 400.8 413.7 401.5 412.8 401.5Z" fill="black"/>
<path d="M299.9 256.1C299.6 256.1 299.3 256 299 255.9C298 255.4 297.7 254.2 298.2 253.2L329.3 195.3C329.8 194.3 331 194 332 194.5C333 195 333.3 196.2 332.8 197.2L301.7 255C301.3 255.7 300.6 256.1 299.9 256.1Z" fill="black"/>
<path d="M360.9 300.1C360.5 300.1 360.1 300 359.7 299.7L278.9 242.2C278 241.6 277.8 240.3 278.4 239.4C279 238.5 280.3 238.3 281.2 238.9L362 296.4C362.9 297 363.1 298.3 362.5 299.2C362.1 299.8 361.5 300.1 360.9 300.1Z" fill="black"/>
<path d="M416.5 265.8C415.5 265.8 414.6 265 414.5 263.9L409.4 185.7C409.3 184.6 410.2 183.6 411.3 183.6C412.4 183.5 413.4 184.4 413.4 185.5L418.5 263.7C418.6 264.8 417.7 265.8 416.6 265.8H416.5Z" fill="black"/>
<path d="M411.8 188.8L336.8 115.8C336 115 336 113.8 336.8 113C337.6 112.2 338.8 112.2 339.6 113L411 182.6L454.2 113.4C454.8 112.5 456 112.2 457 112.8C458 113.4 458.2 114.6 457.6 115.6L411.8 188.8Z" fill="black"/>
<path d="M388.2 215.3C392.674 215.3 396.3 211.673 396.3 207.2C396.3 202.726 392.674 199.1 388.2 199.1C383.727 199.1 380.1 202.726 380.1 207.2C380.1 211.673 383.727 215.3 388.2 215.3Z" fill="black"/>
<path d="M388.2 247.6C392.674 247.6 396.3 243.973 396.3 239.5C396.3 235.026 392.674 231.4 388.2 231.4C383.727 231.4 380.1 235.026 380.1 239.5C380.1 243.973 383.727 247.6 388.2 247.6Z" fill="black"/>
<path d="M367.5 112.1C355.4 112.1 345.5 102.2 345.5 90.1001C345.5 78.0001 355.4 68.1001 367.5 68.1001C379.6 68.1001 389.5 78.0001 389.5 90.1001C389.5 102.2 379.7 112.1 367.5 112.1Z" fill="white"/>
<path d="M367.5 70C378.5 70 387.5 79 387.5 90C387.5 101 378.5 110 367.5 110C356.5 110 347.5 101 347.5 90C347.5 79 356.5 70 367.5 70ZM367.5 66C354.2 66 343.5 76.8 343.5 90C343.5 103.2 354.3 114 367.5 114C380.7 114 391.5 103.2 391.5 90C391.5 76.8 380.8 66 367.5 66Z" fill="black"/>
<path d="M363.8 94.9996C363 94.9996 362.3 94.4996 361.9 93.7996C361.5 92.7996 362 91.5996 363 91.1996L378.8 84.6996C379.8 84.2996 381 84.7996 381.4 85.7996C381.8 86.7996 381.3 87.9996 380.3 88.3996L364.5 94.8996C364.3 94.9996 364.1 94.9996 363.8 94.9996Z" fill="black"/>
<path d="M410.8 117C398.8 117 388.6 108.4 382 92.8997C362.1 45.6997 370 27.7997 389.1 14.1997C389.2 14.0997 406.1 2.69971 425.8 2.69971C433.6 2.69971 440.8 4.49969 447.3 7.99969C462.6 16.2997 465 46.1997 453 77.5997C444 101.2 427 117 410.8 117Z" fill="white"/>
<path d="M425.8 4.7998C433.3 4.7998 440.2 6.49981 446.4 9.89981C453 13.4998 457.2 21.8998 458.4 33.6998C459.6 46.3998 457.1 61.6998 451.2 76.9998C442.5 99.7998 426.2 115.1 410.8 115.1C399.7 115.1 390.1 107 383.9 92.1998C364.6 46.2998 372 28.9998 390.3 15.9998C391 15.3998 407.1 4.7998 425.8 4.7998ZM425.8 0.799805C405.3 0.799805 388 12.5998 388 12.5998C366.6 27.7998 361 48.1998 380.2 93.6998C387.6 111.2 398.9 119 410.8 119C427.4 119 445.2 103.8 454.9 78.3998C467.5 45.4998 464.3 14.9998 448.3 6.2998C440.8 2.2998 433.1 0.799805 425.8 0.799805Z" fill="black"/>
<path d="M388 12.5996C369.4 25.7996 362.8 42.8996 373.9 76.9996C407 63.7996 405.8 18.0996 405.8 18.0996C433.4 39.4996 462.7 38.1996 462.7 38.1996C462.3 22.9996 457.3 11.2996 448.4 6.39959C419.8 -9.10041 388 12.5996 388 12.5996Z" fill="black"/>
<path d="M434.1 74.3997C433.3 74.3997 432.6 73.9998 432.3 73.1998C431.9 72.1998 432.3 70.9997 433.3 70.5997C434.5 70.0997 435.6 69.0997 436.3 67.8997C437.4 65.9997 437.6 61.1997 436.8 51.7997C436.7 50.6997 437.5 49.6997 438.6 49.5997C439.7 49.4997 440.7 50.2997 440.8 51.3997C441.7 62.1997 441.4 66.9997 439.7 69.8997C438.6 71.7997 436.8 73.3998 434.9 74.1998C434.6 74.2998 434.4 74.3997 434.1 74.3997Z" fill="black"/>
<path d="M422.4 59.0999C421.2 59.0999 420.4 58.0999 420.4 56.9999L420.5 54.4999C420.5 53.3999 421.5 52.4999 422.6 52.5999C423.7 52.5999 424.6 53.5999 424.5 54.6999L424.4 57.1999C424.4 58.2999 423.5 59.0999 422.4 59.0999Z" fill="black"/>
<path d="M449.9 54.1C448.7 54.1 447.9 53.1 447.9 52L448 49.6C448 48.5 449 47.6 450.1 47.7C451.2 47.7 452.1 48.7 452 49.8L451.9 52.2C451.9 53.3 451 54.1 449.9 54.1Z" fill="black"/>
<path d="M425.9 86.6997C420.3 86.6997 415.8 82.1997 415.8 76.6997C415.8 75.5997 416.7 74.6997 417.8 74.6997C418.9 74.6997 419.8 75.5997 419.8 76.6997C419.8 79.9997 422.5 82.6997 425.9 82.6997C426.1 82.6997 426.3 82.6997 426.5 82.6997C426.8 82.6997 427.1 82.5997 427.4 82.5997C428.5 82.5997 429.4 83.4997 429.4 84.5997C429.4 85.6997 428.5 86.5997 427.4 86.5997C427.2 86.5997 427 86.5997 426.8 86.5997C426.5 86.6997 426.2 86.6997 425.9 86.6997Z" fill="black"/>
<path d="M521.9 616.1C521.2 616.1 520.5 615.7 520.1 615.1C519.7 614.3 519.8 613.3 520.5 612.6L608.1 536.1C609.7 534.6 611.5 533.5 613 532.7C619.4 529.2 626.7 528.5 633.7 530.6C640.7 532.7 646.4 537.3 649.8 543.7L650.8 545.6C651.8 547.5 652.5 549.3 653.1 551.2C655.1 558.2 654.2 565.5 650.7 571.8C647.2 578.1 641.4 582.7 634.4 584.6L522.4 616C522.3 616.1 522.1 616.1 521.9 616.1ZM626 533.4C622.2 533.4 618.5 534.3 615.1 536.2C613.8 536.9 612.2 537.9 610.9 539.1L529.9 609.8L633.4 580.8C639.4 579.1 644.3 575.2 647.3 569.8C650.3 564.4 651.1 558.2 649.4 552.2C649 550.6 648.3 549 647.5 547.4L646.5 545.5C643.6 540.1 638.7 536.1 632.7 534.3C630.5 533.7 628.2 533.4 626 533.4Z" fill="black"/>
<path d="M615.1 653.4C614.3 653.4 613.5 652.9 613.2 652C606.2 631.6 588.9 619.3 561.8 615.6C542.1 612.9 524.1 616 522.5 616.3L496.9 624.4C495.8 624.7 494.7 624.1 494.4 623.1C494.1 622.1 494.7 620.9 495.7 620.6L521.4 612.5C521.5 612.5 521.6 612.5 521.6 612.4C522.4 612.3 541 608.8 562.2 611.7C590.6 615.5 609.5 629 617 650.7C617.4 651.7 616.8 652.9 615.8 653.2C615.5 653.4 615.3 653.4 615.1 653.4Z" fill="black"/>
<path d="M109.1 607.5C108.8 607.5 108.4 607.4 108.1 607.2L16.4 555.3C8.90003 551.1 3.50003 544.2 1.20003 535.9C-1.09997 527.6 2.86102e-05 518.9 4.20003 511.5C5.60003 509 7.50003 506.5 10 504.1L12 502.2C18.2 496.3 26.3 493.1 34.9 493.3C43.5 493.5 51.5 497 57.4 503.2C59.5 505.4 61.3 507.9 62.8 510.7L110.8 604.5C111.2 605.3 111 606.2 110.4 606.9C110.1 607.3 109.6 607.5 109.1 607.5ZM34.2 497.3C27.2 497.3 20.2 499.9 14.7 505.1L12.7 507C10.6 509 8.90003 511.2 7.70003 513.4C4.00003 520 3.00003 527.6 5.10003 534.8C7.10003 542 11.8 548.1 18.4 551.8L104.3 600.4L59.3 512.5C58 510 56.4 507.8 54.5 505.9C49 500.2 41.7 497.3 34.2 497.3Z" fill="black"/>
<path d="M104.3 649.7C103.7 649.7 103.2 649.5 102.8 649L84.3 627.9C83.6 627.1 83.7 625.8 84.5 625.1C85.3 624.4 86.6 624.5 87.3 625.3L105.8 646.4C106.5 647.2 106.4 648.5 105.6 649.2C105.2 649.5 104.8 649.7 104.3 649.7Z" fill="black"/>
<path d="M516.5 651.8C516 651.8 515.4 651.6 515 651.1C514.3 650.3 514.3 649 515.1 648.3L534.8 630.4C535.6 629.7 536.9 629.7 537.6 630.5C538.3 631.3 538.3 632.6 537.5 633.3L517.8 651.2C517.5 651.6 517 651.8 516.5 651.8Z" fill="black"/>
<path d="M131.5 625.5C131.1 625.5 130.6 625.4 130.3 625.1L108.8 608.3C91.8001 613.5 76.5001 610.8 62.9001 608.3C45.6001 605.2 30.6001 602.5 15.6001 615.9C14.8001 616.6 13.5001 616.6 12.8001 615.7C12.1001 614.9 12.1001 613.6 13.0001 612.9C29.5001 598.2 46.1001 601.2 63.7001 604.3C77.7001 606.8 92.1001 609.4 108.7 604.1C109.3 603.9 110 604 110.6 604.4L132.9 621.9C133.8 622.6 133.9 623.8 133.2 624.7C132.7 625.2 132.1 625.5 131.5 625.5Z" fill="black"/>
<path d="M178.7 676C178.5 676 178.2 676 178 675.9C177 675.5 176.4 674.4 176.8 673.3C186 647.4 216.7 624.2 252 630C253.1 630.2 253.8 631.2 253.6 632.3C253.4 633.4 252.4 634.1 251.3 633.9C218.1 628.4 189.2 650.3 180.5 674.6C180.3 675.5 179.5 676 178.7 676Z" fill="black"/>
<path d="M451.8 676C450.9 676 450.1 675.4 449.8 674.4C445.7 656 433.9 645.6 424.6 640C411.4 632 394.9 629.1 382.5 632.5C381.4 632.8 380.3 632.2 380 631.1C379.7 630 380.3 628.9 381.4 628.6C394.7 624.9 412.5 628.1 426.6 636.6C436.5 642.5 449.2 653.8 453.6 673.5C453.8 674.6 453.2 675.6 452.1 675.9C452.1 676 451.9 676 451.8 676Z" fill="black"/>
</svg>
