<svg width="774" height="807" viewBox="0 0 774 807" fill="none" xmlns="http://www.w3.org/2000/svg">
<path d="M644.001 522.8C642.201 522.8 640.401 522.6 638.701 522.2H638.601V522.1C638.501 521.9 633.101 514.2 639.601 501.2C643.701 493.4 650.701 488.1 656.801 481.7L656.901 481.6L657.001 481.7C663.501 487.6 680.801 498.6 681.001 498.7L681.201 498.8L681.101 499C681.001 499.2 663.601 522.8 644.001 522.8Z" fill="black"/>
<path d="M743.6 525.9C729.9 525.9 705.9 512.2 681.9 497.3C681.7 497.2 664.4 486.2 658.1 480.5L658 480.4L617.7 450.2L658.3 392.9L711.1 425.2C720.2 431.9 744.3 449.7 747.3 453.1C749.4 455.4 750.2 457.5 749.8 459.2C749.1 461.8 745.4 463.2 744.7 463.5L740.8 464.9L744.4 467.1C746 468.1 752.2 471.9 764.9 479.8C769.4 482.6 771.7 485.5 771.8 488.2C771.9 491.4 769 493.8 768.4 494.2L766.9 495.3L767.9 496.8C769.4 499.3 769.9 501.6 769.4 503.6C768.4 507.1 764.8 509.1 764.4 509.3L763.5 509.8L763.4 510.9C762.5 518.4 758 519.6 755.4 519.6C755 519.6 754.7 519.6 754.5 519.6L752.9 519.4L752.4 520.9C751 524.3 748.2 525.9 743.6 525.9Z" fill="white"/>
<path d="M658.9 395.6L710 426.9C722.5 436.1 743.2 451.6 745.9 454.5C747.5 456.2 748.2 457.8 747.9 458.7C747.6 459.9 745.7 461.1 744.1 461.6L736.2 464.4L743.3 468.7C744.9 469.7 751.1 473.5 763.8 481.4C767.6 483.8 769.7 486.2 769.7 488.2C769.8 490.5 767.2 492.5 767.1 492.6L764.2 494.8L766.1 497.9C767.3 499.9 767.7 501.6 767.3 503.1C766.5 505.8 763.4 507.5 763.3 507.6L761.4 508.6L761.2 510.7C760.7 515.3 758.7 517.6 755.1 517.6C754.8 517.6 754.6 517.6 754.5 517.6L751.3 517.2L750.2 520.2C749.6 521.9 748.3 523.9 743.5 523.9C730.3 523.9 705.4 509.6 682.9 495.6C682.7 495.5 665.6 484.6 659.4 479L659.3 478.9L659.1 478.8L620.4 449.8L658.9 395.6ZM657.8 390.2L615 450.7L656.8 482C663.3 487.9 680.7 498.9 680.9 499C705.1 514 729.4 527.9 743.6 527.9C749 527.9 752.6 525.8 754.1 521.5C754.3 521.5 754.7 521.6 755.2 521.6C757.9 521.6 764.2 520.6 765.2 511.2C765.9 510.8 770 508.5 771.2 504.3C771.9 501.7 771.4 498.8 769.5 495.9C770.3 495.3 773.8 492.4 773.7 488.3C773.6 484.8 771 481.4 765.9 478.2C753.1 470.2 746.9 466.4 745.4 465.4C746.7 464.9 750.8 463.2 751.7 459.8C752.4 457.4 751.4 454.8 748.8 451.9C745 447.6 713.5 424.6 712.2 423.6L657.8 390.2Z" fill="black"/>
<path d="M638.7 522.2C588.2 473.8 537.7 406.9 496.5 333.7C478.4 301.5 483 272.1 490 253.2C497.7 232.7 509.8 219.6 509.9 219.5L510.1 219.3L510.2 219.5C510.9 220.4 578.5 307.1 636.6 359.8C663 383.7 687.7 404.6 712.1 423.6L712.2 423.7V423.8C712.2 424 708 441.1 682.6 460.4C667.2 472.1 658.4 480.7 657.2 481.9C657.2 481.8 632.2 506.5 638.7 522.2Z" fill="#98D8F4"/>
<path d="M740.801 467.2C740.401 467.2 740.101 467.1 739.801 466.9L720.901 455.3C720.001 454.7 719.701 453.5 720.201 452.5C720.801 451.6 722.001 451.3 723.001 451.8L741.901 463.4C742.801 464 743.101 465.2 742.601 466.2C742.101 466.9 741.501 467.2 740.801 467.2Z" fill="black"/>
<path d="M767.1 498.2C766.8 498.2 766.5 498.1 766.2 498C766 497.9 741.7 484.9 723.7 472.7C722.8 472.1 722.5 470.8 723.2 469.9C723.8 469 725.1 468.8 726 469.4C743.8 481.5 767.9 494.4 768.1 494.5C769.1 495 769.4 496.2 768.9 497.2C768.5 497.8 767.8 498.2 767.1 498.2Z" fill="black"/>
<path d="M763.2 512.4C762.9 512.4 762.5 512.3 762.2 512.1C761.9 511.9 732.9 494.7 716.5 484C715.6 483.4 715.3 482.2 715.9 481.2C716.5 480.3 717.7 480 718.7 480.6C735 491.3 763.9 508.5 764.2 508.7C765.1 509.3 765.5 510.5 764.9 511.4C764.5 512.1 763.9 512.4 763.2 512.4Z" fill="black"/>
<path d="M752.6 520.9C752.3 520.9 752 520.8 751.7 520.7C751.4 520.6 722.3 506.2 707 495.8C706.1 495.2 705.9 493.9 706.5 493C707.1 492.1 708.4 491.9 709.3 492.5C724.4 502.8 753.3 517 753.6 517.2C754.6 517.7 755 518.9 754.5 519.9C754 520.5 753.3 520.9 752.6 520.9Z" fill="black"/>
<path d="M704.5 501.2C704.1 501.2 703.7 501.1 703.3 500.8C702.4 500.2 702.2 498.9 702.8 498L725.7 465.9C726.3 465 727.6 464.8 728.5 465.4C729.4 466 729.6 467.3 729 468.2L706.1 500.3C705.7 500.9 705.1 501.2 704.5 501.2Z" fill="black"/>
<path d="M144.701 701.7C144.801 701.5 153.501 680.3 167.701 651V650.9H167.801C167.901 650.8 182.101 642.7 196.401 642.7C198.501 642.7 200.501 642.9 202.301 643.2C218.601 646.1 216.801 658.6 216.801 658.7C200.701 695.7 145.501 701.8 144.901 701.9H144.601L144.701 701.7Z" fill="black"/>
<path d="M225.9 746.2C225.5 746.2 225 746.2 224.6 746.2L142 740.8C141.1 740.7 140.4 740.1 140.2 739.3C140 738.4 140.4 737.6 141.2 737.1L212.9 696C219.1 692.4 226.4 691.5 233.3 693.4C240.3 695.3 246.1 699.7 249.6 706C250.8 707.9 251.7 710.2 252.4 713C255.8 727.4 247 742 232.6 745.5C230.6 746 228.3 746.2 225.9 746.2ZM148.9 737.2L224.8 742.2C227.2 742.3 229.6 742.1 231.7 741.6C243.9 738.6 251.5 726.1 248.5 713.9C247.9 711.5 247.1 709.6 246.1 708C243.1 702.7 238.1 698.9 232.2 697.3C226.3 695.7 220.1 696.5 214.8 699.5L148.9 737.2Z" fill="black"/>
<path d="M198.4 768.6C181.5 768.6 173.8 760.8 166.8 753.7C160.5 747.3 154.6 741.3 142.4 741.1C141.3 741.1 140.4 740.2 140.4 739.1C140.4 738 141.3 737.1 142.4 737.1C156.2 737.3 163 744.2 169.6 750.9C178 759.4 185.9 767.4 208.4 763.8C209.5 763.6 210.5 764.4 210.7 765.5C210.9 766.6 210.1 767.6 209 767.8C205.2 768.3 201.6 768.6 198.4 768.6Z" fill="black"/>
<path d="M283.3 806.2V806C278 774.5 274.7 742.4 273.4 710.5L275.6 694.9L389.9 630.6L386.9 644.4C384.1 668 383.1 686.3 383.1 686.4C383.1 686.8 380.6 723.7 396.5 747.5C403.3 757.8 409.6 764.4 415.1 770.2C424.9 780.6 431.5 787.5 432.3 806V806.2H283.3Z" fill="#F696BB"/>
<path d="M273.5 710.5C273.1 700.1 272.8 689.7 272.8 679.7C272.8 660.2 274.4 642.4 276 623.6C278.6 594.2 281.2 563.7 277.6 525.8C271.7 464.8 239.7 364.3 239.4 363.3L239.3 363H357.3L363.9 376.5C364.4 378 412.1 524.3 427.2 651C428.2 675.8 383.5 686.5 383.1 686.6L382.8 686.7V686.4C382.8 686.2 383.8 668.1 386.6 644.7C384.4 645.7 371 652.1 355.4 670.3C341.2 686.9 327.7 696.9 310.4 703.8C294.7 710.1 273.9 710.7 273.7 710.7H273.5V710.5Z" fill="#F9494B"/>
<path d="M382.8 686.5C382.8 686.3 383.8 668.1 386.6 644.4V644.3H386.7C393.2 641.7 400.1 640.3 407.1 640.3C408.3 640.3 409.5 640.3 410.7 640.4C426 641.5 427.1 651 427.1 651.1C428.1 675.9 383.4 686.6 383 686.7L382.7 686.8L382.8 686.5Z" fill="black"/>
<path d="M386.2 721H361.9C360.8 721 359.9 720.1 359.9 719C359.9 717.9 360.8 717 361.9 717H386.2C387.3 717 388.2 717.9 388.2 719C388.2 720.1 387.3 721 386.2 721Z" fill="black"/>
<path d="M366.701 746.8C365.801 746.8 365.001 746.2 364.801 745.3C364.501 744.2 365.101 743.1 366.201 742.8L390.101 736.1C391.201 735.8 392.301 736.4 392.601 737.5C392.901 738.6 392.301 739.7 391.201 740L367.301 746.7C367.101 746.8 366.901 746.8 366.701 746.8Z" fill="black"/>
<path d="M381.001 769.7C380.401 769.7 379.801 769.4 379.401 768.9C378.801 768 379.001 766.8 379.901 766.1L399.201 752.2C400.101 751.6 401.301 751.8 402.001 752.7C402.601 753.6 402.401 754.8 401.501 755.5L382.201 769.4C381.801 769.6 381.401 769.7 381.001 769.7Z" fill="black"/>
<path d="M283.3 806.2V806C283.3 805.8 279.1 782.8 276 749V748.8H276.2C307.6 752.1 333 775.1 339.5 805.9L339.6 806.1L283.3 806.2Z" fill="#F9494B"/>
<path d="M391.1 739.6C390.5 739.6 389.8 739.3 389.5 738.8C389 738.1 389 737.1 389.6 736.4L440.5 671.2C449.7 659.5 466.6 657.5 478.3 666.6C480.3 668.1 482 669.9 483.6 672.1C492.2 684.1 489.5 700.9 477.5 709.7C475.5 711.2 473 712.5 470.3 713.4L391.8 739.6C391.5 739.6 391.3 739.6 391.1 739.6ZM461.7 664.9C454.9 664.9 448.1 667.9 443.6 673.7L396.8 733.7L469 709.6C471.4 708.8 473.4 707.8 475.1 706.5C485.3 699 487.7 684.7 480.3 674.5C479 672.6 477.5 671.1 475.8 669.8C471.6 666.4 466.6 664.9 461.7 664.9Z" fill="black"/>
<path d="M451.201 769.9C450.001 769.9 448.901 769.8 447.701 769.6C445.901 769.3 444.001 768.6 442.201 767.7L390.401 740.5C389.601 740.1 389.201 739.2 389.401 738.4C389.601 737.5 390.301 736.9 391.201 736.8L449.301 730.8C460.001 729.7 469.701 737.5 470.801 748.3C471.001 750.1 470.901 751.8 470.601 753.9C469.701 759 466.801 763.5 462.601 766.5C459.101 768.7 455.201 769.9 451.201 769.9ZM398.101 740L444.001 764.1C445.501 764.8 447.001 765.3 448.401 765.6C452.501 766.3 456.701 765.4 460.101 763C463.501 760.6 465.801 757.1 466.501 753C466.801 751.4 466.801 750 466.701 748.6C465.801 740 458.101 733.8 449.601 734.7L398.101 740Z" fill="black"/>
<path d="M0.200195 806.2V806C2.3002 764.9 7.80019 732.6 17.9002 701.2L33.7002 674.9L185.4 618.3L167.9 651.3C153.7 680.6 145 701.8 145 702C144.9 702.3 131.2 734.3 148.8 756.3C150.6 758.6 152.5 760.8 154.2 763C167.1 778.8 176.4 790.2 174.8 806.2V806.4H0.200195V806.2Z" fill="#F696BB"/>
<path d="M40.0004 704.1C25.5004 704.1 18.2004 701.4 18.1004 701.4L17.9004 701.3L18.0004 701.1C30.2004 663.5 48.4004 628.8 74.9004 580.1C115.5 505.4 135.9 467.9 155.6 376.5L158.1 364.9L266.5 357.2V357.4C266.4 358.3 258.2 445.1 246.4 523.8C232.2 618.4 216.9 658.3 216.7 658.7C216.2 638.3 188.5 640 167.3 651.4C164.1 653.1 147.2 662.2 126.7 675C104.9 688.6 80.5004 699.1 64.5004 701.8C55.9004 703.4 47.6004 704.1 40.0004 704.1Z" fill="#F9494B"/>
<path d="M258.6 431.6C258.5 431.6 258.4 431.6 258.4 431.6C257.3 431.5 256.5 430.5 256.6 429.4C261.3 388.4 264.3 357.6 264.3 357.3C264.4 356.2 265.4 355.4 266.5 355.5C267.6 355.6 268.4 356.6 268.3 357.7C268.3 358 265.3 388.8 260.6 429.8C260.5 430.8 259.6 431.6 258.6 431.6Z" fill="black"/>
<path d="M85.5004 697.7C85.3004 697.7 85.1004 697.7 84.9004 697.6C83.8004 697.3 83.3004 696.1 83.6004 695.1C100.5 643.1 117.6 604.1 134.1 566.4C159.5 508.4 183.5 453.7 202.1 360.9C202.3 359.8 203.4 359.1 204.5 359.3C205.6 359.5 206.3 360.6 206.1 361.7C187.4 454.9 163.3 509.9 137.8 568C121.3 605.6 104.2 644.5 87.4004 696.3C87.1004 697.2 86.3004 697.7 85.5004 697.7Z" fill="black"/>
<path d="M0.200195 806.2V806C1.1002 786.7 3.10019 767.2 6.40019 748.2V748L6.6002 748.1C34.0002 756.2 55.6002 778.4 62.9002 806.1L63.0002 806.4H0.200195V806.2Z" fill="#F9494B"/>
<path d="M483.4 466.2C479 466.2 475 464.2 473.1 463C464.5 467.6 444.3 461 397.5 408.4L397.3 408.1L391 397.3L461.2 333L473.9 340.7L474.1 341C493.5 367.1 508.5 387.4 510.4 392.1C512.2 396.5 512.2 400.2 510.3 403C508.4 405.9 505.1 407.2 502.5 407.8C505.3 411.7 510.5 419.3 514.3 425.6C517.1 430.4 517.6 435.9 515.5 440.4C514 443.5 511.5 445.8 508.3 446.9C509.4 452.2 507.2 455.6 505.6 457.3C502.7 460.2 498.2 461.6 494.1 460.8C491.9 463.6 489.1 465.4 485.9 466C485 466.2 484.2 466.2 483.4 466.2ZM473.1 458.2L474.3 459.1C474.4 459.1 479.8 463.1 485.2 462.1C487.8 461.6 489.9 460.1 491.6 457.5L492.4 456.2L493.8 456.7C496.8 457.7 500.5 456.7 502.7 454.5C504.7 452.4 505.1 449.5 503.9 446.1L503.1 443.8L505.5 443.4C508.4 442.9 510.6 441.2 511.9 438.6C513.4 435.3 513.1 431.2 510.9 427.5C505.7 418.8 497.5 407.5 497.4 407.4L495.1 404.3L498.9 404.2C500.5 404.2 505.2 403.5 506.9 400.8C508 399.1 507.9 396.7 506.7 393.6C504.8 389 486.2 363.9 471.1 343.6L461.6 337.9L396 398.1L400.6 405.9C435.7 445.3 463 465.7 471.9 459.1L473.1 458.2Z" fill="black"/>
<path d="M398.8 407.2C382 388.3 367.7 369.9 362.4 361.5C309.8 279.1 295 197.7 294.8 196.9C294.8 196.4 298.9 153.5 325.5 128.8L325.6 128.7L325.7 128.8C348.2 146.5 389.8 217.6 409.8 251.7C413.6 258.2 416.6 263.4 418.6 266.5C428 281.9 451 312.8 471.2 340.1L472.8 342.2L399 407.4L398.8 407.2Z" fill="#F9494B"/>
<path d="M497.7 410.2C497.1 410.2 496.5 409.9 496.1 409.4L486.5 396C485.9 395.1 486.1 393.9 487 393.2C487.9 392.6 489.1 392.8 489.8 393.7L499.4 407.1C500 408 499.8 409.2 498.9 409.9C498.5 410.1 498.1 410.2 497.7 410.2Z" fill="black"/>
<path d="M503.401 446.5C502.801 446.5 502.201 446.2 501.801 445.7C489.701 430.1 473.601 408.8 465.101 397.6C464.401 396.7 464.601 395.5 465.501 394.8C466.401 394.1 467.601 394.3 468.301 395.2C476.801 406.4 492.901 427.7 505.001 443.3C505.701 444.2 505.501 445.4 504.601 446.1C504.301 446.4 503.801 446.5 503.401 446.5Z" fill="black"/>
<path d="M492 459C491.4 459 490.8 458.7 490.4 458.2L452.1 409.4C451.4 408.5 451.6 407.3 452.4 406.6C453.2 405.9 454.5 406.1 455.2 406.9L493.5 455.7C494.2 456.6 494 457.8 493.2 458.5C492.9 458.9 492.4 459 492 459Z" fill="black"/>
<path d="M473.8 460.9C473.2 460.9 472.7 460.7 472.3 460.2L439.8 421C439.1 420.1 439.2 418.9 440.1 418.2C441 417.5 442.2 417.6 442.9 418.5L475.4 457.7C476.1 458.6 476 459.8 475.1 460.5C474.7 460.8 474.3 460.9 473.8 460.9Z" fill="black"/>
<path d="M433.1 426.6C432.5 426.6 432 426.4 431.6 425.9C430.9 425.1 431 423.8 431.9 423.1L472.7 389C473.5 388.3 474.8 388.4 475.5 389.3C476.2 390.1 476.1 391.4 475.2 392.1L434.4 426.2C434 426.4 433.6 426.6 433.1 426.6Z" fill="black"/>
<path d="M398.701 409.4C398.101 409.4 397.601 409.2 397.201 408.7C396.501 407.9 396.601 406.6 397.401 405.9L471.501 340.7C472.301 340 473.601 340.1 474.301 340.9C475.001 341.7 474.9 343 474.1 343.7L400.001 408.9C399.601 409.2 399.201 409.4 398.701 409.4Z" fill="black"/>
<path d="M369.6 374.8C369 374.8 368.5 374.6 368.1 374.1C367.4 373.2 367.5 372 368.4 371.3L446.8 306.3C447.7 305.6 448.9 305.7 449.6 306.6C450.3 307.5 450.2 308.7 449.3 309.4L370.9 374.4C370.5 374.6 370.1 374.8 369.6 374.8Z" fill="black"/>
<path d="M462.3 353.8C461.7 353.8 461.1 353.5 460.7 353L434.9 319.5C434.2 318.6 434.4 317.4 435.3 316.7C436.2 316 437.4 316.2 438.1 317.1L463.9 350.6C464.6 351.5 464.4 352.7 463.5 353.4C463.2 353.7 462.7 353.8 462.3 353.8Z" fill="black"/>
<path d="M410.7 398.7C410.1 398.7 409.6 398.5 409.2 398L381.5 364.5C380.8 363.6 380.9 362.4 381.8 361.7C382.7 361 383.9 361.1 384.6 362L412.3 395.5C413 396.4 412.9 397.6 412 398.3C411.6 398.5 411.2 398.7 410.7 398.7Z" fill="black"/>
<path d="M435.801 375.6C435.201 375.6 434.601 375.3 434.201 374.9L407.201 341.6C406.501 340.7 406.601 339.5 407.501 338.8C408.401 338.1 409.601 338.2 410.301 339.1L437.301 372.4C438.001 373.3 437.901 374.5 437.001 375.2C436.701 375.5 436.201 375.6 435.801 375.6Z" fill="black"/>
<path d="M155.7 376.8C155.6 376.6 148.1 365.5 146.2 350.7C144.5 337 147.3 317.3 170.4 301C169.7 299.8 165.4 291.5 164.8 280.4C164.3 269.3 167.4 253.2 185.7 238.7C184.9 236.9 177.4 219.9 183.4 203.2C187.3 192.6 195.8 184.3 208.7 178.5C208.4 175.3 204 134.5 207.8 131.6C224.3 122.9 234.3 118.9 270 105.8H270.1L270.2 105.9C270.4 106 287 116.5 304.2 116.5C311.6 116.5 325.1 128.3 325.7 128.8C325.9 129.1 340.9 154.9 325.8 178.6C328.1 180.5 357.2 205.9 336.6 238.7C339.1 240.3 368.1 260 354.5 301C355.5 301.9 363.9 309.5 369.3 321.9C374.5 334 377.8 353.4 363.9 376.7L363.8 376.8H155.7Z" fill="#F696BB"/>
<path d="M325.6 180.7H210.8C209.7 180.7 208.8 179.8 208.8 178.7C208.8 177.6 209.7 176.7 210.8 176.7H325.6C326.7 176.7 327.6 177.6 327.6 178.7C327.6 179.8 326.7 180.7 325.6 180.7Z" fill="black"/>
<path d="M336.1 240.9H186C184.9 240.9 184 240 184 238.9C184 237.8 184.9 236.9 186 236.9H336.1C337.2 236.9 338.1 237.8 338.1 238.9C338.1 240 337.2 240.9 336.1 240.9Z" fill="black"/>
<path d="M354.3 303.1H170.7C169.6 303.1 168.7 302.2 168.7 301.1C168.7 300 169.6 299.1 170.7 299.1H354.3C355.4 299.1 356.3 300 356.3 301.1C356.3 302.2 355.4 303.1 354.3 303.1Z" fill="black"/>
<path d="M241.7 130.3C252.746 130.3 261.7 121.346 261.7 110.3C261.7 99.2546 252.746 90.3003 241.7 90.3003C230.655 90.3003 221.7 99.2546 221.7 110.3C221.7 121.346 230.655 130.3 241.7 130.3Z" fill="white"/>
<path d="M241.7 92.3003C251.6 92.3003 259.7 100.4 259.7 110.3C259.7 120.2 251.6 128.3 241.7 128.3C231.8 128.3 223.7 120.2 223.7 110.3C223.8 100.4 231.8 92.3003 241.7 92.3003ZM241.7 88.3003C229.6 88.3003 219.7 98.1003 219.7 110.3C219.7 122.4 229.5 132.3 241.7 132.3C253.9 132.3 263.7 122.5 263.7 110.3C263.7 98.2003 253.8 88.3003 241.7 88.3003Z" fill="black"/>
<path d="M283.9 145.2C273.2 145.2 263.8 137.7 257.4 124C237.3 81.1001 244 64.3001 261.2 51.0001C261.3 50.9001 277.6 39.1001 296.5 39.1001C303 39.1001 309.2 40.5001 314.8 43.3001C329.2 50.4001 332.5 78.0001 322.5 107.4C314.7 130 299.2 145.2 283.9 145.2Z" fill="white"/>
<path d="M296.501 41.1001C302.701 41.1001 308.601 42.4001 313.901 45.1001C320.001 48.1001 324.201 55.7001 325.701 66.5001C327.301 78.2001 325.501 92.4001 320.601 106.7C313.201 128.5 298.401 143.2 284.001 143.2C274.101 143.2 265.401 136.1 259.301 123.1C239.801 81.4001 246.001 65.2001 262.401 52.6001C263.001 52.2001 278.501 41.1001 296.501 41.1001ZM296.501 37.1001C276.601 37.1001 260.001 49.5001 260.001 49.5001C240.701 64.3001 236.301 83.4001 255.701 124.9C262.901 140.4 273.301 147.3 284.001 147.3C299.701 147.3 316.101 132.4 324.401 108.1C334.901 77.2001 330.801 49.1001 315.701 41.6001C309.201 38.3001 302.701 37.1001 296.501 37.1001Z" fill="black"/>
<path d="M315.6 41.5C288.6 28.2 259.9 49.5 259.9 49.5C246.8 59.6 240.6 71.6 244 91.2001L329.6 66C328 54.1 323.2 45.2 315.6 41.5Z" fill="black"/>
<path d="M304.8 105.3C304.1 105.3 303.4 104.9 303 104.2C302.5 103.2 302.8 102 303.8 101.5C305 100.8 305.9 100 306.5 98.9C307.7 96.6 307.1 90.1 306.4 84C306.3 82.9 307.1 81.9 308.1 81.8C309.2 81.7 310.2 82.5 310.3 83.5C311.5 93.4 311.4 98.1 310 100.8C309 102.6 307.6 104 305.7 105C305.4 105.2 305.1 105.3 304.8 105.3Z" fill="black"/>
<path d="M293.4 91.4001C292.3 91.4001 291.4 90.5001 291.4 89.4001V87.1001C291.4 86.0001 292.3 85.1001 293.4 85.1001C294.5 85.1001 295.4 86.0001 295.4 87.1001V89.4001C295.4 90.5001 294.5 91.4001 293.4 91.4001Z" fill="black"/>
<path d="M318.7 85.8C317.6 85.8 316.7 84.9 316.7 83.8V81.5C316.7 80.4 317.6 79.5 318.7 79.5C319.8 79.5 320.7 80.4 320.7 81.5V83.8C320.7 84.9 319.8 85.8 318.7 85.8Z" fill="black"/>
<path d="M297.2 116.9C292.2 116.9 288.1 113 287.9 107.9C287.8 106.8 288.7 105.9 289.8 105.8C290.9 105.8 291.8 106.6 291.9 107.7C292 110.8 294.6 113.1 297.6 112.9C297.9 112.9 298.1 112.9 298.5 112.8H298.7C299.8 112.6 300.8 113.3 301.1 114.4C301.3 115.5 300.6 116.5 299.5 116.8H299.3C298.9 116.9 298.3 117 297.7 117C297.5 116.9 297.4 116.9 297.2 116.9Z" fill="black"/>
<path d="M238.3 115C237.5 115 236.8 114.5 236.5 113.8C236.1 112.8 236.6 111.6 237.6 111.2L249.5 106.2C250.5 105.8 251.7 106.3 252.1 107.3C252.5 108.3 252 109.5 251 109.9L239.1 114.9C238.8 115 238.6 115 238.3 115Z" fill="black"/>
<path d="M267.3 43.2002C279.174 43.2002 288.8 33.5743 288.8 21.7002C288.8 9.82607 279.174 0.200195 267.3 0.200195C255.426 0.200195 245.8 9.82607 245.8 21.7002C245.8 33.5743 255.426 43.2002 267.3 43.2002Z" fill="black"/>
<path d="M139.4 721H115.2C114.1 721 113.2 720.1 113.2 719C113.2 717.9 114.1 717 115.2 717H139.4C140.5 717 141.4 717.9 141.4 719C141.4 720.1 140.5 721 139.4 721Z" fill="black"/>
<path d="M114.201 748.7C113.301 748.7 112.501 748.1 112.301 747.2C112.001 746.1 112.601 745 113.701 744.7L140.501 737.1C141.601 736.8 142.701 737.4 143.001 738.5C143.301 739.6 142.701 740.7 141.601 741L114.801 748.6C114.601 748.7 114.401 748.7 114.201 748.7Z" fill="black"/>
<path d="M129.501 772.6C128.901 772.6 128.301 772.3 127.901 771.8C127.301 770.9 127.501 769.7 128.301 769L147.601 755C148.501 754.4 149.701 754.5 150.401 755.4C151.001 756.3 150.801 757.5 150.001 758.2L130.701 772.2C130.301 772.5 129.901 772.6 129.501 772.6Z" fill="black"/>
<path d="M453.6 701.4C387.9 701.4 342 685.4 315.1 672C285.9 657.5 272.1 642.7 271.9 642.6C271.6 642.3 240.4 609.7 249.9 585C250 584.8 253 580.1 269.2 580.1C285.3 580.1 309.2 588.6 309.4 588.7C388.2 610.1 462.2 642 489.2 666.2C504.3 679.7 516.2 694.2 515.5 696.7C515.4 697 515.2 697.1 514.9 697.2C493.9 700 473.3 701.4 453.6 701.4Z" fill="black"/>
<path d="M210.6 806.2V806C210.6 805.6 213.7 761.5 231.7 717.3L231.8 717.1L232 717.3C247.1 728.4 259.9 744.8 269.1 764.7V764.8L252.1 806.3H210.6V806.2Z" fill="black"/>
<path d="M254.899 681.3L258.399 667.9C262.899 660 268.099 651.8 273.599 643.5C274.399 642.2 293.999 612.5 310.799 590.1L321.399 578.6L413.699 613.7L398.799 634.8C397.999 636 390.799 646.6 381.999 660.6L315.999 759L254.899 681.3Z" fill="white"/>
<path d="M321.8 581L410.4 614.7L397 633.6V633.7C396.2 634.9 389.1 645.4 380.2 659.5L315.7 755.6L257 680.9L260.1 668.7C264.6 660.9 269.6 652.9 275.1 644.6C275.9 643.3 295.4 613.7 312.1 591.4L321.8 581ZM320.7 576.3L309.1 588.8C292.1 611.5 272 642.1 271.8 642.4C266.2 650.8 261 659.1 256.4 667.1L252.6 681.7L315.9 762.3L383.5 661.6C392.8 646.8 400.2 636 400.3 635.9L416.7 612.7L320.7 576.3Z" fill="black"/>
<path d="M281.5 806.2V806C274.3 767.2 256.7 735.8 231.7 717.5L231.6 717.4L231.7 717.3C238.8 700.1 247.1 683.2 256.5 667.1L256.6 666.9L256.8 667C257 667.1 273.3 675.3 294.1 712.9C324.9 668 351.8 658.6 369 658.6C378.1 658.6 383.5 661.4 383.6 661.4L383.8 661.5L383.7 661.7C350.3 714.7 343.7 735.7 344.1 743.9C344.6 755.2 350.9 764.3 357 773.1C363.8 782.9 370.9 793 369.9 806.1V806.3H281.5V806.2Z" fill="#6C79D9"/>
<path d="M534.299 806.2C522.499 769.7 496.199 739 461.999 721.7L461.899 721.6V721.5C463.599 704.1 465.899 686.9 468.899 670.2L471.799 652.8L569.699 649L576.999 682.2C580.999 713.4 583.699 731.5 584.999 736.1C590.099 754.1 598.799 763.7 606.499 772.2C614.999 781.5 622.299 789.6 623.299 806V806.2H534.299Z" fill="#6C79D9"/>
<path d="M536.699 713.3C536.499 713 519.199 681.7 490.899 669.4L490.399 669.2L490.899 669C491.199 668.9 518.899 659.8 533.299 659.8C537.399 659.8 540.099 660.6 541.299 662.1C541.999 663 542.199 664.1 541.899 665.5C537.199 685.3 537.099 713 537.099 713.3H536.699Z" fill="white"/>
<path d="M537.1 715.3H536.7C536 715.3 535.4 715 535 714.4C535 714.4 534.9 714.3 534.8 714.1C531.8 708.9 515.4 682.2 490 671.2L489.6 671C488.8 670.7 488.3 670 488.3 669.1C488.3 668.2 488.8 667.5 489.6 667.2L490.1 667H490.2C490.5 666.9 518.4 657.7 533.2 657.7C538 657.7 541.1 658.7 542.8 660.8C543.9 662.2 544.2 663.9 543.8 665.9C539.1 685.7 539 713 539 713.3C539.1 714.4 538.2 715.3 537.1 715.3ZM495.9 669.5C515.4 679.5 529.1 697.7 535.3 707.1C535.6 697.7 536.6 679.4 540 665C540.2 664 540 663.6 539.8 663.3C539.5 663 538.2 661.8 533.4 661.8C522.7 661.8 504.2 667 495.9 669.5Z" fill="black"/>
<path d="M459.3 806.2V806C459.3 805.7 457.2 770.7 461.9 721.5V721.2L462.2 721.3C480.8 730.7 496.8 743.6 509.8 759.8L509.9 759.9L503.8 806.2H459.3Z" fill="black"/>
<path d="M546.799 685.3C529.199 685.3 501.499 682.7 468.899 670.4C432.399 656.6 416.299 647.9 399.099 637.9C396.499 636.4 392.799 634.2 388.199 631.4C374.899 623.5 354.799 611.5 337.899 602.5C328.599 597.5 318.999 593 309.199 589.1C308.999 589 285.099 580.5 269.099 580.5C253.199 580.5 250.199 585.1 250.099 585.2L249.699 585C258.199 565.1 488.399 253.4 490.699 250.3L490.799 250.2L527.399 253.1V253.3C527.699 256.3 560.599 556.8 576.799 682.3V682.5H576.599C576.699 682.5 565.499 685.3 546.799 685.3Z" fill="#98D8F4"/>
<path d="M346.599 734.4H322.899C321.799 734.4 320.899 733.5 320.899 732.4C320.899 731.3 321.799 730.4 322.899 730.4H346.599C347.699 730.4 348.599 731.3 348.599 732.4C348.599 733.5 347.699 734.4 346.599 734.4Z" fill="black"/>
<path d="M320.799 763.1C319.999 763.1 319.199 762.6 318.899 761.7C318.599 760.7 319.099 759.5 320.199 759.2L345.799 750.8C346.799 750.5 347.999 751 348.299 752.1C348.599 753.1 348.099 754.3 346.999 754.6L321.399 763C321.199 763.1 320.999 763.1 320.799 763.1Z" fill="black"/>
<path d="M584.7 734.4H561C559.9 734.4 559 733.5 559 732.4C559 731.3 559.9 730.4 561 730.4H584.7C585.8 730.4 586.7 731.3 586.7 732.4C586.7 733.5 585.8 734.4 584.7 734.4Z" fill="black"/>
<path d="M566.6 763.1C565.8 763.1 565 762.6 564.7 761.7C564.4 760.7 564.9 759.5 566 759.2L591.5 750.8C592.5 750.5 593.7 751 594 752.1C594.3 753.1 593.8 754.3 592.7 754.6L567.2 763C567 763.1 566.8 763.1 566.6 763.1Z" fill="black"/>
<path d="M554.8 631.3C532.5 631.3 497 626.5 450 605.1C429.1 595.6 409.9 585.2 391.3 575.1C353.2 554.5 320.4 536.8 286.5 533.2C285.4 533.1 284.6 532.1 284.7 531C284.8 529.9 285.8 529.1 286.9 529.2C321.5 532.8 354.7 550.7 393.1 571.5C411.7 581.5 430.8 591.9 451.6 601.4C510.7 628.3 551 628.6 569.7 626.4C570.8 626.3 571.8 627.1 571.9 628.2C572 629.3 571.2 630.3 570.1 630.4C566.1 631 560.9 631.3 554.8 631.3Z" fill="black"/>
<path d="M544.8 412.2C543.8 412.2 542.9 411.4 542.8 410.4L525.4 253.5C525.3 252.4 526.1 251.4 527.2 251.3C528.3 251.2 529.3 252 529.4 253.1L546.8 410C546.9 411.1 546.1 412.1 545 412.2C544.9 412.2 544.9 412.2 544.8 412.2Z" fill="black"/>
<path d="M456.6 553.4C435.6 553.4 409.4 526.8 409.1 526.5C409 526.4 399.4 516.8 391 507.4L374.9 490.4L436.5 424.2L447.5 435.2C454.2 443.3 461.1 451.1 467.2 457.9C476.2 468 484 476.8 485.4 480.5C486.4 483.2 486.4 485.4 485.3 487.1C483.4 490.3 478.5 491.3 477.6 491.4L474 492L476.4 494.7C477.8 496.2 485 504.4 495.3 515.5C499.3 519.8 501 523.7 500.4 527.2C499.8 531.2 496.2 533.5 495.8 533.7L494.8 534.3V535.4C494.8 539.6 493.4 542.5 490.7 544.3C488.3 545.8 485.4 546 483.9 546C483.2 546 482.8 546 482.6 545.9L481.2 545.8L480.6 547.1C478.9 550.9 475.7 552.8 471.4 552.8C468.5 552.8 466.1 551.9 465.8 551.8L465.1 551.5L464.4 551.8C462.1 552.9 459.4 553.4 456.6 553.4Z" fill="white"/>
<path d="M436.6 427L446.1 436.5C452.8 444.6 459.7 452.4 465.8 459.2C474.3 468.7 482.3 477.8 483.6 481.2C484.8 484.3 484 485.6 483.7 486.1C482.5 488 479.6 489.1 477.3 489.5L470.2 490.7L475 496.1C476.4 497.6 483.6 505.8 493.9 516.9C496.3 519.5 499.1 523.4 498.5 526.9C498 530.1 494.9 531.9 494.8 532L492.9 533.2V535.4C492.9 540.6 490.5 542.1 489.7 542.6C487.7 543.9 485 544 484 544C483.4 544 483 544 482.9 544L480.1 543.7L478.9 546.3C477.5 549.3 475.1 550.8 471.5 550.8C469 550.8 466.8 550.1 466.6 550L465.2 549.5L463.8 550.1C461.7 551 459.3 551.4 456.7 551.4C448.6 551.4 438.2 547 426.6 538.6C417.4 531.9 410.7 525.2 410.7 525.1C410.6 525 401.1 515.5 392.7 506.1L377.9 490.5L436.6 427ZM436.5 421.3L372.2 490.4L389.5 508.7C398 518.2 407.6 527.7 407.7 527.8C408 528.1 434.7 555.3 456.6 555.3C459.7 555.3 462.6 554.8 465.2 553.7C465.7 553.9 468.3 554.8 471.5 554.8C475.1 554.8 479.9 553.6 482.5 548C482.7 548 483.3 548.1 484 548.1C485.7 548.1 489.1 547.8 491.9 546.1C495.2 544 496.9 540.4 496.9 535.5C497.6 535.1 501.7 532.4 502.5 527.6C503.2 523.5 501.3 519 496.9 514.2C486.7 503.1 479.4 495 478 493.4C479.5 493.2 484.8 492 487.1 488.1C488.5 485.8 488.6 483 487.3 479.8C485.8 475.7 478.2 467.2 468.7 456.6C462.6 449.8 455.7 442 449 433.9L436.5 421.3Z" fill="black"/>
<path d="M379.6 546.1C379.1 546.1 378.6 546.1 378.1 546.1H378C377.8 546 374.1 543 377 531.5C379.8 520.1 389.4 508.6 389.5 508.5L389.6 508.3L389.8 508.5C398.3 517.9 407.9 527.5 408 527.6L408.1 527.7L408 527.8C407.9 528 398.6 546.1 379.6 546.1Z" fill="black"/>
<path d="M378.2 546.1L378 546C362.8 531.8 344.8 500.9 332 467.4C312 414.5 314.4 382.4 317.6 368C332 304 431.4 242.6 490.8 230.1H491L493.9 250.5L407.9 376.7C409 378.5 423.4 402.9 448.9 433.9L449 434V434.1C448.9 434.3 442.9 455.5 415.5 482C400 496.9 390.9 507.3 389.8 508.6C389.9 508.6 370.1 531.9 378.2 546.1Z" fill="#98D8F4"/>
<path d="M475.699 496.3C475.199 496.3 474.699 496.1 474.299 495.7C471.099 492.5 467.699 488.9 464.999 485.9C464.299 485.1 464.299 483.8 465.199 483.1C465.999 482.4 467.299 482.4 467.999 483.3C470.599 486.2 473.999 489.8 477.099 492.9C477.899 493.7 477.899 494.9 477.099 495.7C476.699 496.1 476.199 496.3 475.699 496.3Z" fill="black"/>
<path d="M494.8 536.4C494.6 536.4 494.4 536.4 494.1 536.3C486 533.4 470 518.9 446.4 493.3C445.7 492.5 445.7 491.2 446.5 490.5C447.3 489.8 448.6 489.8 449.3 490.6C478.1 522 490.3 530.7 495.4 532.6C496.4 533 497 534.1 496.6 535.2C496.4 535.9 495.6 536.4 494.8 536.4Z" fill="black"/>
<path d="M481.5 547.9C481.2 547.9 481 547.9 480.7 547.7C470.7 543.5 446.1 520.5 432.6 506.2C431.8 505.4 431.9 504.1 432.7 503.4C433.5 502.7 434.8 502.7 435.5 503.5C448.9 517.7 473.3 540.3 482.2 544C483.2 544.4 483.7 545.6 483.3 546.6C483 547.4 482.3 547.9 481.5 547.9Z" fill="black"/>
<path d="M466.2 553.6C466 553.6 465.7 553.6 465.5 553.5C455.7 549.8 435.9 533.3 420.7 519.2C419.9 518.4 419.8 517.2 420.6 516.4C421.4 515.6 422.6 515.5 423.4 516.3C437.7 529.6 457.7 546.3 467 549.8C468 550.2 468.6 551.3 468.2 552.4C467.8 553.1 467 553.6 466.2 553.6Z" fill="black"/>
<path d="M377.8 548C377.3 548 376.8 547.8 376.4 547.5C361 533.1 342.8 502 330 468.2C329.6 467.2 330.1 466 331.2 465.6C332.2 465.2 333.4 465.7 333.8 466.8C346.4 500 364.2 530.6 379.2 544.5C380 545.3 380.1 546.5 379.3 547.3C378.9 547.8 378.3 548 377.8 548Z" fill="black"/>
<path d="M449.1 439C448.5 439 448 438.8 447.6 438.3C421 406 396.7 361.8 396.5 361.4C396 360.4 396.3 359.2 397.3 358.7C398.3 358.2 399.5 358.5 400 359.5C400.2 359.9 424.3 403.8 450.7 435.8C451.4 436.7 451.3 437.9 450.4 438.6C450 438.9 449.5 439 449.1 439Z" fill="black"/>
<path d="M407.799 378.6C407.399 378.6 406.999 378.5 406.699 378.3C405.799 377.7 405.599 376.4 406.199 375.5L449.899 311.4C450.499 310.5 451.799 310.3 452.699 310.9C453.599 311.5 453.799 312.8 453.199 313.7L409.499 377.8C409.099 378.3 408.399 378.6 407.799 378.6Z" fill="black"/>
<path d="M501.099 310C492.899 310 484.699 308.4 477.099 305.1C463.199 299.1 444.599 284.9 434.599 251C434.299 249.9 434.899 248.8 435.999 248.5C437.099 248.2 438.199 248.8 438.499 249.9C447.999 282.3 465.599 295.8 478.699 301.4C495.099 308.4 513.699 307.3 531.199 298.4C532.199 297.9 533.399 298.3 533.899 299.3C534.399 300.3 533.999 301.5 532.999 302C522.599 307.3 511.699 310 501.099 310Z" fill="black"/>
<path d="M347.9 504.4C347.8 504.4 347.7 504.4 347.6 504.4C346.5 504.3 345.7 503.3 345.9 502.2C347.2 491.8 353.4 480.3 364.3 468.1C368.5 463.4 373.8 458.2 379.4 452.7C394.9 437.4 414.1 418.5 420.3 399C420.6 397.9 421.8 397.4 422.8 397.7C423.9 398 424.4 399.2 424.1 400.2C417.6 420.5 397.9 439.9 382.2 455.5C376.7 460.9 371.5 466.1 367.3 470.7C356.9 482.3 351.1 493 349.9 502.6C349.8 503.7 348.9 504.4 347.9 504.4Z" fill="black"/>
<path d="M499.5 180.8L469.5 78.7002C466 66.9002 453.7 60.2002 441.9 63.6002C440.4 64.0002 439 64.6002 437.6 65.4002L437.1 65.7002C426.3 71.5002 422.2 85.0002 428.1 95.8002C428.8 97.2002 429.7 98.4002 430.7 99.6002L499.5 180.8Z" fill="black"/>
<path d="M463.6 248C452.6 248 443.6 239 443.6 228C443.6 217 452.6 208 463.6 208C474.6 208 483.6 217 483.6 228C483.5 239.1 474.6 248 463.6 248Z" fill="white"/>
<path d="M463.6 210.1C473.5 210.1 481.6 218.2 481.6 228.1C481.6 238 473.5 246.1 463.6 246.1C453.7 246.1 445.6 238 445.6 228.1C445.6 218.2 453.7 210.1 463.6 210.1ZM463.6 206.1C451.5 206.1 441.6 215.9 441.6 228.1C441.6 240.2 451.4 250.1 463.6 250.1C475.8 250.1 485.6 240.3 485.6 228.1C485.5 215.9 475.7 206.1 463.6 206.1Z" fill="black"/>
<path d="M504.701 266.4C493.201 266.4 483.701 258.1 478.101 243C461.601 198.6 469.601 182.4 487.801 170.6C487.901 170.5 502.801 161.4 520.101 161.4C528.101 161.4 535.401 163.4 541.901 167.2C555.701 175.5 556.701 203.2 544.301 231.7C535.101 252.8 519.601 266.4 504.701 266.4Z" fill="white"/>
<path d="M520.1 163.4C527.7 163.4 534.7 165.3 540.8 168.9C546.7 172.4 550.2 180.3 550.8 191.2C551.4 202.9 548.4 217 542.4 230.9C533.6 251.2 518.7 264.4 504.7 264.4C494.1 264.4 485.3 256.6 480 242.3C464 199.2 471.5 183.5 488.9 172.3C489.5 171.9 503.7 163.4 520.1 163.4ZM520.1 159.4C502 159.4 486.8 168.9 486.8 168.9C466.4 182.1 460.4 200.8 476.3 243.7C482.6 260.7 493.3 268.4 504.7 268.4C519.8 268.4 536.3 255.1 546.1 232.5C559.1 202.5 557.3 174.2 542.9 165.5C535.4 161 527.5 159.4 520.1 159.4Z" fill="black"/>
<path d="M527.1 228.2C526.3 228.2 525.6 227.7 525.2 226.9C524.8 225.9 525.3 224.7 526.3 224.3C527.4 223.9 528.4 223 529.1 222C530.1 220.3 530.5 215.8 530.2 207.1C530.2 206 531 205.1 532.1 205C533.2 205 534.1 205.8 534.2 206.9C534.5 216.7 534.1 221.4 532.5 224C531.3 225.8 529.7 227.2 527.8 227.9C527.6 228.2 527.3 228.2 527.1 228.2Z" fill="black"/>
<path d="M516.799 213.5C516.699 213.5 516.699 213.5 516.599 213.5C515.499 213.4 514.699 212.4 514.799 211.3L514.999 209C515.099 207.9 516.099 207.1 517.199 207.2C518.299 207.3 519.099 208.3 518.999 209.4L518.799 211.7C518.699 212.7 517.799 213.5 516.799 213.5Z" fill="black"/>
<path d="M542.5 210C542.4 210 542.4 210 542.3 210C541.2 209.9 540.4 208.9 540.5 207.8L540.7 205.5C540.8 204.4 541.8 203.6 542.9 203.7C544 203.8 544.8 204.8 544.7 205.9L544.5 208.2C544.4 209.2 543.5 210 542.5 210Z" fill="black"/>
<path d="M518.9 239.2C516.3 239.1 514 238.1 512.3 236.2C510.6 234.3 509.7 231.9 509.8 229.4C509.9 228.3 510.8 227.5 511.9 227.5C513 227.6 513.9 228.5 513.8 229.6C513.7 231.1 514.2 232.5 515.2 233.5C516.2 234.6 517.5 235.1 518.9 235.2C519.3 235.2 519.6 235.2 519.9 235.1C521 234.9 522 235.6 522.3 236.7C522.5 237.8 521.8 238.8 520.7 239.1C520 239.2 519.4 239.2 518.9 239.2Z" fill="black"/>
<path d="M459.8 232.2C458.9 232.2 458.1 231.6 457.9 230.7C457.6 229.6 458.3 228.5 459.4 228.3L471.9 225.2C473 224.9 474.1 225.6 474.3 226.7C474.6 227.8 473.9 228.9 472.8 229.1L460.3 232.2C460.1 232.2 460 232.2 459.8 232.2Z" fill="black"/>
<path d="M542.8 165.5C549.3 169.4 553.2 177.2 554.4 187.4C541.1 196.3 510.8 189 496.8 176.2C496.9 220.8 473.4 235.9 473.4 235.9C461 198.4 467.5 181.3 486.6 168.9C486.7 168.9 517.1 150 542.8 165.5Z" fill="black"/>
<path d="M304.8 403.3C283.8 403.3 246.3 388.6 225.6 379.7L215.9 370.4L247.4 285.2L261.7 290.5C306.7 315.1 318.6 322.5 320.6 324.4C323.1 326.7 324.3 328.9 324 331C323.5 334.5 319.2 337.1 318.4 337.5L315.2 339.3L318.4 341C320.5 342.1 331.3 348.1 339 353.2C342.5 355.5 344.6 359.1 344.7 362.8C344.7 365.8 343.4 368.5 341 370.2L339.3 371.5L340.7 373.1C343 375.8 343.7 378.8 342.6 381.7C341.6 384.5 338.9 386.7 336 387.2L334.6 387.4L334.4 388.8C333.3 396.3 327.2 397.9 322.3 397.9C320.8 397.9 319.7 397.7 319.4 397.7L318 397.5L317.3 398.7C315.6 401.8 311.4 403.3 304.8 403.3Z" fill="white"/>
<path d="M248.5 287.8L260.8 292.3C307.9 318.1 317.6 324.4 319.2 325.8C320.6 327.1 322.2 328.9 322 330.7C321.7 332.9 319 334.9 317.4 335.8L311 339.3L317.4 342.8C319.5 343.9 330.2 349.8 337.8 354.9C340.8 356.9 342.6 359.8 342.6 362.8C342.6 365.1 341.6 367.2 339.7 368.6L336.3 371.1L339.1 374.4C341 376.6 341.5 378.8 340.7 381C339.9 383.1 337.8 384.9 335.7 385.2L332.8 385.7L332.4 388.6C332.1 390.4 331.3 396 322.3 396C320.9 396 320 395.9 319.7 395.8L316.9 395.3L315.5 397.8C314.3 400 310.5 401.2 304.8 401.2C284.2 401.2 247.3 386.7 226.7 377.9L218.2 369.8L248.5 287.8ZM246.1 282.7L213.5 371L224.4 381.4C245.2 390.3 283.3 405.3 304.8 405.3C312.2 405.3 317 403.4 319 399.8C319.4 399.9 320.6 400 322.2 400C326.8 400 334.8 398.6 336.2 389.2C339.8 388.6 343 385.9 344.3 382.4C345.6 378.9 344.8 375.1 342 371.8C344.9 369.6 346.5 366.3 346.5 362.7C346.4 358.4 344 354.2 339.9 351.5C332.2 346.3 321.2 340.3 319.2 339.2C320.5 338.5 325.2 335.6 325.8 331.2C326.2 328.4 324.8 325.6 321.8 322.8C318.7 320 298.7 308.5 262.4 288.6L246.1 282.7Z" fill="black"/>
<path d="M224.4 381.4C205.9 373.4 181.2 362.2 172.5 356.7C171.2 355.9 169.8 355 168.4 354.1C142.4 338 98.7998 311.1 98.7998 266.6C98.7998 245.8 109.9 221.4 130.8 196.1C150.7 172.1 178.1 149.2 208 131.6L208.2 131.5L208.3 131.8C224 190.8 198.5 249.6 196.9 253.2C199.5 254.6 231.7 271.8 262.6 288.7L262.8 288.8L224.8 381.5L224.4 381.4Z" fill="#F9494B"/>
<path d="M196.5 255.3C196.2 255.3 195.9 255.2 195.6 255.1L171 243.1C170 242.6 169.6 241.4 170.1 240.4C170.6 239.4 171.8 239 172.8 239.5L197.4 251.5C198.4 252 198.8 253.2 198.3 254.2C198 254.9 197.2 255.3 196.5 255.3Z" fill="black"/>
<path d="M315.7 341.5C315.4 341.5 315.1 341.4 314.8 341.3L299.7 333.5C298.7 333 298.3 331.8 298.8 330.8C299.3 329.8 300.5 329.4 301.5 329.9L316.6 337.7C317.6 338.2 318 339.4 317.5 340.4C317.1 341.1 316.4 341.5 315.7 341.5Z" fill="black"/>
<path d="M339 373.8C338.8 373.8 338.6 373.8 338.4 373.7C323.1 368.9 275.1 345 273.1 344C272.1 343.5 271.7 342.3 272.2 341.3C272.7 340.3 273.9 339.9 274.9 340.4C275.4 340.6 324.6 365.2 339.6 369.9C340.7 370.2 341.2 371.4 340.9 372.4C340.6 373.3 339.9 373.8 339 373.8Z" fill="black"/>
<path d="M334.199 390.1C333.999 390.1 333.899 390.1 333.699 390C333.399 389.9 304.299 382 265.399 362.2C264.399 361.7 263.999 360.5 264.499 359.5C264.999 358.5 266.199 358.1 267.199 358.6C305.699 378.3 334.399 386.1 334.699 386.1C335.799 386.4 336.399 387.5 336.099 388.6C335.899 389.5 335.099 390.1 334.199 390.1Z" fill="black"/>
<path d="M317.9 399.7C317.7 399.7 317.5 399.7 317.3 399.6C297.2 393.6 277.5 385.7 258.8 376.1C257.8 375.6 257.4 374.4 257.9 373.4C258.4 372.4 259.6 372 260.6 372.5C279.1 382 298.6 389.8 318.5 395.8C319.6 396.1 320.2 397.2 319.8 398.3C319.6 399.1 318.8 399.7 317.9 399.7Z" fill="black"/>
<path d="M184.2 364.8C183.9 364.8 183.7 364.7 183.4 364.6C182.4 364.2 181.9 363 182.3 362L222.6 267.2C223 266.2 224.2 265.7 225.2 266.1C226.2 266.5 226.7 267.7 226.3 268.7L186 363.6C185.7 364.3 185 364.8 184.2 364.8Z" fill="black"/>
<path d="M256.9 302.2C256.6 302.2 256.3 302.1 256 302L218.7 281.9C217.7 281.4 217.4 280.2 217.9 279.2C218.4 278.2 219.6 277.9 220.6 278.4L257.9 298.5C258.9 299 259.2 300.2 258.7 301.2C258.3 301.8 257.6 302.2 256.9 302.2Z" fill="black"/>
<path d="M229 371C228.7 371 228.4 370.9 228.1 370.8L189.8 351.7C188.8 351.2 188.4 350 188.9 349C189.4 348 190.6 347.6 191.6 348.1L229.9 367.2C230.9 367.7 231.3 368.9 230.8 369.9C230.4 370.6 229.7 371 229 371Z" fill="black"/>
<path d="M247.5 324.7C247.2 324.7 246.9 324.6 246.6 324.5L209.3 304.4C208.3 303.9 208 302.7 208.5 301.7C209 300.7 210.2 300.4 211.2 300.9L248.5 321C249.5 321.5 249.8 322.7 249.3 323.7C248.9 324.3 248.2 324.7 247.5 324.7Z" fill="black"/>
<path d="M237.5 350C237.2 350 236.9 349.9 236.6 349.8L199.3 329.8C198.3 329.3 198 328.1 198.5 327.1C199 326.1 200.2 325.8 201.2 326.3L238.5 346.3C239.5 346.8 239.8 348 239.3 349C238.9 349.6 238.2 350 237.5 350Z" fill="black"/>
<path d="M224.5 383.2C224.2 383.2 224 383.2 223.7 383C222.7 382.6 222.2 381.4 222.6 380.4L260.5 288.1C260.9 287.1 262.1 286.6 263.1 287C264.1 287.4 264.6 288.6 264.2 289.6L226.4 382C226 382.7 225.3 383.2 224.5 383.2Z" fill="black"/>
</svg>
