<svg width="619" height="771" viewBox="0 0 619 771" fill="none" xmlns="http://www.w3.org/2000/svg">
<path d="M444.2 769.2V769C442.6 752.9 451.9 741.5 464.8 725.8C466.5 723.7 468.3 721.5 470.2 719.1C487.8 697 474.1 665.1 474 664.8C473.9 664.6 465.2 643.4 451.1 614.1L433.6 581.1L585.3 637.7L601.1 664C611.3 695.4 616.7 727.8 618.8 768.9V769.1H444.2V769.2Z" fill="#98D8F4"/>
<path d="M502 711C501.8 711 501.6 711 501.5 710.9L477.6 704.2C476.5 703.9 475.9 702.8 476.2 701.7C476.5 700.6 477.6 700 478.7 700.3L502.6 707C503.7 707.3 504.3 708.4 504 709.5C503.7 710.4 502.9 711 502 711Z" fill="black"/>
<path d="M490.5 733.9C490.1 733.9 489.7 733.8 489.3 733.5L470 719.5C469.1 718.9 468.9 717.6 469.6 716.7C470.2 715.8 471.5 715.6 472.4 716.3L491.7 730.3C492.6 730.9 492.8 732.2 492.1 733.1C491.7 733.6 491.1 733.9 490.5 733.9Z" fill="black"/>
<path d="M556 769.2L556.1 768.9C563.4 741.3 585 719.1 612.4 710.9L612.6 710.8V711C615.8 730.1 617.9 749.5 618.8 768.8V769H556V769.2Z" fill="#6C79D9"/>
<path d="M474.1 665C473.5 664.9 418.3 658.8 402.2 621.8C402.2 621.6 400.4 609.1 416.7 606.2C418.6 605.9 420.6 605.7 422.6 605.7C436.9 605.7 451.1 613.8 451.2 613.9H451.3V614C465.5 643.3 474.2 664.5 474.3 664.7L474.4 665H474.1Z" fill="black"/>
<path d="M579 667.1C593.5 667.1 600.8 664.4 600.9 664.4L601.1 664.3L601 664.1C588.8 626.5 570.6 591.8 544.1 543.1C503.5 468.4 483.1 430.9 463.4 339.5L460.9 327.9L352.5 320.2V320.4C352.6 321.3 360.8 408.1 372.6 486.8C386.8 581.4 402.1 621.3 402.3 621.7C402.8 601.3 430.5 603 451.7 614.4C454.9 616.1 471.8 625.2 492.3 638C514.1 651.6 538.5 662.1 554.5 664.8C563.1 666.4 571.4 667.1 579 667.1Z" fill="#6C79D9"/>
<path d="M186.7 769.2V769C187.6 750.5 194.1 743.6 203.9 733.2C209.4 727.4 215.6 720.8 222.5 710.5C238.3 686.7 235.9 649.8 235.9 649.4C235.9 649.2 234.9 631 232.1 607.3L229.1 593.5L343.4 657.8L345.6 673.4C344.3 705.3 341 737.5 335.7 768.9V769.1L186.7 769.2Z" fill="#98D8F4"/>
<path d="M345.3 673.7C345.1 673.7 324.3 673.1 308.6 666.8C291.2 659.9 277.8 649.8 263.6 633.3C248 615.1 234.6 608.7 232.4 607.7C235.2 631.2 236.2 649.3 236.2 649.4V649.7L235.9 649.6C235.4 649.5 190.8 638.8 191.8 614C206.9 487.3 254.6 341 255.1 339.5L261.7 326H379.7L379.6 326.3C379.3 327.3 347.2 427.8 341.4 488.8C337.8 526.7 340.4 557.2 343 586.6C344.6 605.4 346.2 623.2 346.2 642.7C346.2 652.7 346 663 345.5 673.5V673.7H345.3Z" fill="#6C79D9"/>
<path d="M236 649.7C235.5 649.6 190.9 638.9 191.9 614.1C191.9 614 193.1 604.5 208.3 603.4C209.5 603.3 210.7 603.3 211.9 603.3C218.9 603.3 225.8 604.6 232.3 607.3H232.4V607.4C235.2 631 236.2 649.3 236.2 649.5V649.8L236 649.7Z" fill="black"/>
<path d="M252.3 709.8C252.1 709.8 251.9 709.8 251.8 709.7L227.9 703C226.8 702.7 226.2 701.6 226.5 700.5C226.8 699.4 227.9 698.8 229 699.1L252.9 705.8C254 706.1 254.6 707.2 254.3 708.3C254 709.2 253.2 709.8 252.3 709.8Z" fill="black"/>
<path d="M238 732.7C237.6 732.7 237.2 732.6 236.8 732.3L217.5 718.4C216.6 717.8 216.4 716.5 217 715.6C217.6 714.7 218.9 714.5 219.8 715.1L239.1 729C240 729.6 240.2 730.9 239.6 731.8C239.2 732.4 238.6 732.7 238 732.7Z" fill="black"/>
<path d="M360.4 394.6C359.4 394.6 358.5 393.8 358.4 392.8C353.7 351.8 350.7 321 350.7 320.7C350.6 319.6 351.4 318.6 352.5 318.5C353.6 318.4 354.6 319.2 354.7 320.3C354.7 320.6 357.7 351.4 362.4 392.4C362.5 393.5 361.7 394.5 360.6 394.6C360.6 394.6 360.5 394.6 360.4 394.6Z" fill="black"/>
<path d="M122.9 418.8C119.2 418.8 116.5 417.1 114.4 413.6L113.6 412.3L112.1 412.7C111.5 412.9 110.8 413 110.1 413C107.2 413 104.3 411.6 102.9 409.4C101.5 407.3 101.4 404.7 102.7 401.7L103.6 399.5L101.3 399C98.3996 398.3 96.0996 396.4 94.9996 393.6C93.6996 390.3 94.2995 386.2 96.5995 382.8C102.3 374.4 111.2 363.6 111.3 363.5L113.8 360.5L110 360.2C108.4 360.1 103.8 359.1 102.2 356.3C101.2 354.5 101.4 352.1 102.9 349.1C105 344.7 124.3 321.7 141.3 301.2L151.1 296.1L213.1 359.9L208.1 367.5C176 399.6 150.7 418 138.6 418C136.6 418 135.1 417.5 133.9 416.5L132.8 415.5L131.6 416.3C131.5 416.2 127.3 418.8 122.9 418.8Z" fill="white"/>
<path d="M150.6 298.5L210.5 360L206.5 366.1C175.3 397.3 149.9 415.9 138.6 415.9C137.1 415.9 136 415.6 135.2 414.9L132.9 413L130.4 414.6C130.4 414.6 126.7 416.9 122.8 416.9C119.9 416.9 117.7 415.6 116.1 412.7L114.6 410.1L111.7 410.9C111.2 411 110.7 411.1 110.2 411.1C108 411.1 105.7 410 104.6 408.4C103.6 406.9 103.6 404.9 104.6 402.6L106.4 398.2L101.8 397.1C99.5001 396.6 97.8001 395.1 96.9001 392.9C95.8001 390.2 96.4001 386.8 98.3001 383.9C103.9 375.6 112.8 364.9 112.9 364.7L117.7 358.8L110.1 358.1C108.5 358 104.9 357.1 103.9 355.2C103.1 353.8 103.8 351.5 104.6 349.8C106.6 345.7 126.4 322 142.5 302.7L150.6 298.5ZM151.4 293.5L140 299.5C120.3 323 103.2 343.6 101 348.1C94.9001 360.9 109.8 362.1 109.8 362.1C109.8 362.1 100.8 373 95.0001 381.6C89.6001 389.5 92.8001 399 100.8 400.9C97.1001 409.7 103.9 415 110.1 415C111 415 111.8 414.9 112.6 414.7C115.4 419.5 119.2 420.9 122.8 420.9C127.9 420.9 132.5 418 132.5 418C134.1 419.3 136.1 420 138.5 420C153.8 420 184.2 394.1 209.6 368.8L215.6 359.7L151.4 293.5Z" fill="black"/>
<path d="M139.7 299.6C160.1 275.2 182.7 246.8 198.2 227.2C215.9 204.7 288.6 115.1 320.4 87.7001L320.5 87.6001L320.6 87.7001C345.6 113.8 351 141 351.1 141.3C350.9 142.2 334.1 222.7 272.6 298.7C256.1 319.1 227.2 351.2 209.7 368.8L209.6 368.9L139.7 299.6Z" fill="#98D8F4"/>
<path d="M110.9 366C110.5 366 110 365.9 109.6 365.6C108.7 364.9 108.6 363.6 109.3 362.8L119.7 350C120.4 349.1 121.7 349 122.5 349.7C123.4 350.4 123.5 351.7 122.8 352.5L112.4 365.3C112.1 365.7 111.5 366 110.9 366Z" fill="black"/>
<path d="M103.1 401.9C102.6 401.9 102.2 401.7 101.8 401.4C101 400.7 100.9 399.4 101.6 398.6C114.9 383.4 133 362.2 141 352.7C141.7 351.9 143 351.8 143.8 352.5C144.6 353.2 144.7 354.5 144 355.3C136 364.8 117.9 386 104.6 401.2C104.2 401.7 103.7 401.9 103.1 401.9Z" fill="black"/>
<path d="M113.9 415C113.4 415 113 414.8 112.6 414.5C111.8 413.8 111.7 412.5 112.4 411.7L153.4 365.2C154.1 364.4 155.4 364.3 156.2 365C157 365.7 157.1 367 156.4 367.8L115.4 414.3C115 414.8 114.5 415 113.9 415Z" fill="black"/>
<path d="M131.9 418C131.4 418 130.9 417.8 130.5 417.5C129.7 416.7 129.6 415.5 130.4 414.7L165.1 377.4C165.9 376.6 167.1 376.5 167.9 377.3C168.7 378.1 168.8 379.3 168 380.1L133.3 417.4C133 417.8 132.4 418 131.9 418Z" fill="black"/>
<path d="M174.5 386.1C174 386.1 173.5 385.9 173.1 385.6L134.4 349.2C133.6 348.4 133.6 347.2 134.3 346.4C135.1 345.6 136.3 345.6 137.1 346.3L175.8 382.7C176.6 383.5 176.6 384.7 175.9 385.5C175.6 385.9 175 386.1 174.5 386.1Z" fill="black"/>
<path d="M255.1 339.8L255.2 339.5C274.4 270.7 323.2 91.7003 319.5 89.2003V89.0003V88.8003L382.7 88.9003L382.8 89.0003C383.4 90.1003 443.3 201.5 463.5 339.5V339.7L255.1 339.8Z" fill="#98D8F4"/>
<path d="M273.7 341.6C273.5 341.6 273.4 341.6 273.2 341.5C272.1 341.2 271.5 340.2 271.7 339.1L284.9 284.6C285.2 283.5 286.2 282.9 287.3 283.1C288.4 283.4 289 284.4 288.8 285.5L275.6 340C275.4 341 274.6 341.6 273.7 341.6Z" fill="black"/>
<path d="M304.8 341.6C304.7 341.6 304.5 341.6 304.4 341.6C303.3 341.4 302.6 340.3 302.8 339.2L314.1 284.7C314.3 283.6 315.4 282.9 316.5 283.1C317.6 283.3 318.3 284.4 318.1 285.5L306.8 340C306.6 341 305.7 341.6 304.8 341.6Z" fill="black"/>
<path d="M344.4 341.6C344.3 341.6 344.2 341.6 344.1 341.6C343 341.5 342.2 340.5 342.4 339.4L349.2 284.9C349.3 283.8 350.3 283 351.4 283.2C352.5 283.3 353.3 284.3 353.1 285.4L346.3 339.9C346.3 340.9 345.4 341.6 344.4 341.6Z" fill="black"/>
<path d="M331.699 414C322.799 414 320.3 410 320 409.6L319.4 408.5L318.199 408.6C317.699 408.6 317.3 408.6 316.9 408.6C308.4 408.6 307 402 306.9 400.6L306.699 399.4L305.599 399C305.199 398.8 301.7 397.4 300.4 394.2C299.6 392.2 299.7 389.9 300.9 387.2L301.5 385.8L300.3 384.8C299.4 384.1 295.3 380.2 299 372.7C302.4 365 318.7 351.6 320.5 350.1L322.9 348.1L320.099 346.7C319.299 346.3 315.3 344.1 314.8 340.6C314.4 337.4 317 333.5 322.4 329.3C331.7 322.1 346.7 311.3 366.9 297.2L390 297.5L426 369.6L417.8 381.7C412.3 384.7 406.6 387.6 400.9 390.3C374.4 402.8 353.299 410.4 338.199 413.1C335.899 413.8 333.699 414 331.699 414Z" fill="white"/>
<path d="M367.5 299.5L388.7 299.7L423.6 369.7L416.3 380.5C410.9 383.4 405.4 386.2 399.9 388.8C373.6 401.2 352.6 408.8 337.7 411.4C335.5 411.8 333.4 412 331.6 412C323.8 412 321.8 408.7 321.7 408.6L320.5 406.4L318 406.6C317.6 406.6 317.2 406.6 316.8 406.6C310.1 406.6 308.9 401.8 308.7 400.4L308.4 398.1L306.2 397.2C306.1 397.2 303.1 396 302.1 393.5C301.5 392 301.6 390.3 302.6 388.1L303.8 385.3L301.4 383.4C300.5 382.6 297.7 379.7 300.6 373.8V373.7V373.6C303.2 367.8 315 357.2 321.5 351.8L326.3 347.9L320.8 345.1C319.4 344.4 316.9 342.6 316.6 340.5C316.3 338 318.7 334.7 323.4 331C332.8 324 347.6 313.4 367.5 299.5ZM366.3 295.5C345.8 309.8 330.6 320.7 321.2 328C315.2 332.7 312.4 337.1 312.9 341.1C313.5 345.6 318.1 348.2 319.3 348.8C317.1 350.6 300.8 364 297.3 372C292.9 380.9 298.2 385.7 299.1 386.5C297.7 389.7 297.5 392.5 298.6 395C300.2 398.9 304.2 400.6 304.9 400.9C305.1 402 306.6 410.6 316.9 410.6C317.4 410.6 317.8 410.6 318.3 410.5C318.8 411.3 321.9 415.9 331.7 415.9C333.8 415.9 336.1 415.7 338.5 415.3C353.7 412.6 375 404.9 401.7 392.3C407.6 389.5 413.4 386.6 419.2 383.4L428.4 369.9L391.3 295.6L366.3 295.5Z" fill="black"/>
<path d="M366.1 295.6L366.3 295.5C394.6 275.9 423.9 256 426.3 254.5L352.7 102.5L380.8 83.2002L380.9 83.3002C391.5 88.6002 431.1 119.8 465.8 157.9C496.8 191.9 532.2 240.4 525.3 278.6C518.9 313.9 484.2 348.3 419.2 383.7L419 383.8L366.1 295.6Z" fill="#98D8F4"/>
<path d="M365 300.8C364.4 300.8 363.7 300.5 363.4 299.9C362.8 299 363 297.7 363.9 297.1C364.5 296.7 427.4 252.7 441.5 241.4C442.4 240.7 443.6 240.8 444.3 241.7C445 242.6 444.9 243.8 444 244.5C429.8 255.9 366.8 299.9 366.2 300.4C365.8 300.7 365.4 300.8 365 300.8Z" fill="black"/>
<path d="M426.5 256.5C425.8 256.5 425 256.1 424.7 255.4L381 165.6C380.5 164.6 380.9 163.4 381.9 162.9C382.9 162.4 384.1 162.8 384.6 163.8L428.3 253.6C428.8 254.6 428.4 255.8 427.4 256.3C427.1 256.4 426.8 256.5 426.5 256.5Z" fill="black"/>
<path d="M564.7 604.5C546.4 604.5 523.8 597.4 497.3 583.4C495.1 582.2 492.7 581 490.3 579.7C458.5 562.6 410.3 536.8 386 556.4C385.1 557.1 383.9 557 383.2 556.1C382.5 555.2 382.6 554 383.5 553.3C409.9 532 459.4 558.6 492.2 576.2C494.6 577.5 497 578.7 499.2 579.9C529.7 596.1 555.6 602.9 574.3 599.8C575.4 599.6 576.4 600.4 576.6 601.4C576.8 602.5 576 603.5 575 603.7C571.8 604.2 568.3 604.5 564.7 604.5Z" fill="black"/>
<path d="M263.9 311C263.7 311 263.6 311 263.4 310.9C262.3 310.6 261.7 309.5 262 308.4L296.4 180.3C296.7 179.2 297.8 178.6 298.9 178.9C300 179.2 300.6 180.3 300.3 181.4L265.9 309.5C265.6 310.4 264.8 311 263.9 311Z" fill="black"/>
<path d="M345.1 628.5C345 628.5 344.9 628.5 344.8 628.5C323 625.5 310.1 613.6 290.5 595.5C272.6 578.9 239.2 548 201.4 556.8C200.3 557 199.2 556.4 199 555.3C198.8 554.2 199.4 553.1 200.5 552.9C240.3 543.7 274.7 575.5 293.2 592.6C312.2 610.2 324.7 621.7 345.3 624.6C346.4 624.8 347.2 625.8 347 626.9C346.9 627.8 346.1 628.5 345.1 628.5Z" fill="black"/>
<path d="M322.3 351.2C321.7 351.2 321.1 350.9 320.7 350.5C320 349.6 320.1 348.4 321 347.7L335.3 336.2C336.2 335.5 337.4 335.6 338.1 336.5C338.8 337.4 338.7 338.6 337.8 339.3L323.5 350.8C323.2 351.1 322.7 351.2 322.3 351.2Z" fill="black"/>
<path d="M319.3 410.1C318.4 410.1 317.6 409.5 317.3 408.5C317.1 407.4 317.7 406.4 318.8 406.1C344.1 400.5 381 381.6 381.4 381.4C382.4 380.9 383.6 381.3 384.1 382.3C384.6 383.3 384.2 384.5 383.2 385C381.7 385.8 345.4 404.4 319.6 410.1C319.6 410.1 319.4 410.1 319.3 410.1Z" fill="black"/>
<path d="M306.8 401.5C306 401.5 305.2 401 304.9 400.2C304.5 399.2 305.1 398 306.1 397.7C327.7 390.2 370.3 365.6 370.8 365.4C371.8 364.8 373 365.2 373.5 366.1C374.1 367.1 373.7 368.3 372.8 368.8C371 369.8 329.4 393.8 307.5 401.5C307.2 401.5 307 401.5 306.8 401.5Z" fill="black"/>
<path d="M301.1 388.1C300.4 388.1 299.7 387.7 299.3 387.1C298.8 386.1 299.1 384.9 300.1 384.4C300.4 384.2 330 367.9 358.3 349.1C359.2 348.5 360.5 348.7 361.1 349.7C361.7 350.6 361.5 351.9 360.5 352.5C332.1 371.4 302.4 387.8 302.1 388C301.8 388 301.4 388.1 301.1 388.1Z" fill="black"/>
<path d="M377.301 93.3003C388.346 93.3003 397.301 84.346 397.301 73.3003C397.301 62.2546 388.346 53.3003 377.301 53.3003C366.255 53.3003 357.301 62.2546 357.301 73.3003C357.301 84.346 366.255 93.3003 377.301 93.3003Z" fill="white"/>
<path d="M377.301 55.3003C387.201 55.3003 395.301 63.4003 395.301 73.3003C395.301 83.2003 387.201 91.3003 377.301 91.3003C367.401 91.3003 359.301 83.2003 359.301 73.3003C359.301 63.4003 367.401 55.3003 377.301 55.3003ZM377.301 51.3003C365.201 51.3003 355.301 61.1003 355.301 73.3003C355.301 85.4003 365.101 95.3003 377.301 95.3003C389.501 95.3003 399.301 85.5003 399.301 73.3003C399.201 61.2003 389.401 51.3003 377.301 51.3003Z" fill="black"/>
<path d="M335.101 108.2C319.801 108.2 304.301 93 296.601 70.3C286.601 40.9 289.901 13.3 304.301 6.20001C309.901 3.40001 316.101 2 322.601 2C341.501 2 357.801 13.8 357.901 14C367.901 21.7 372.801 29.8 373.801 40.3C374.901 52.1 371.001 66.9 361.701 86.9C355.201 100.7 345.801 108.2 335.101 108.2Z" fill="white"/>
<path d="M322.501 4.1001C340.401 4.1001 355.901 15.2001 356.601 15.6001C373.001 28.2001 379.201 44.4001 359.701 86.1001C353.601 99.0001 344.901 106.2 335.001 106.2C320.501 106.2 305.801 91.5001 298.401 69.7001C293.501 55.4001 291.701 41.1001 293.301 29.5001C294.801 18.7001 298.901 11.1001 305.101 8.1001C310.401 5.5001 316.301 4.1001 322.501 4.1001ZM322.501 0.100098C316.301 0.100098 309.801 1.30009 303.301 4.50009C288.201 12.0001 284.101 40.1001 294.601 71.0001C302.901 95.4001 319.301 110.2 335.001 110.2C345.701 110.2 356.001 103.3 363.301 87.8001C382.701 46.3001 378.201 27.2001 359.001 12.4001C359.001 12.5001 342.401 0.100098 322.501 0.100098Z" fill="black"/>
<path d="M348.1 46.0001C349.1 67.1001 367.301 78.9001 367.301 78.9001C380.401 47.4001 377.8 30.2001 364.5 17.1001C353.8 22.7001 347.3 34.0001 348.1 46.0001Z" fill="black"/>
<path d="M303.4 4.50018C294.4 8.90018 289.4 20.6002 288.9 35.7002C288.9 35.7002 295.8 35.9002 304.1 26.9002C316.5 13.5002 318.5 0.200195 318.5 0.200195C313.3 0.700195 308.1 2.10018 303.4 4.50018Z" fill="black"/>
<path d="M314.201 68.2999C313.901 68.2999 313.601 68.1999 313.301 68.0999C311.401 67.0999 309.901 65.6999 309.001 63.8999C307.601 61.1999 307.501 56.4999 308.701 46.5999C308.801 45.4999 309.801 44.6999 310.901 44.8999C312.001 44.9999 312.801 45.9999 312.601 47.0999C311.901 53.1999 311.301 59.6999 312.501 61.9999C313.101 63.0999 313.901 63.8999 315.201 64.5999C316.201 65.0999 316.501 66.2999 316.001 67.2999C315.601 67.8999 314.901 68.2999 314.201 68.2999Z" fill="black"/>
<path d="M325.601 54.4001C324.501 54.4001 323.601 53.5001 323.601 52.4001V50.1001C323.601 49.0001 324.501 48.1001 325.601 48.1001C326.701 48.1001 327.601 49.0001 327.601 50.1001V52.4001C327.601 53.5001 326.701 54.4001 325.601 54.4001Z" fill="black"/>
<path d="M300.301 48.8C299.201 48.8 298.301 47.9 298.301 46.8V44.5C298.301 43.4 299.201 42.5 300.301 42.5C301.401 42.5 302.301 43.4 302.301 44.5V46.8C302.301 47.9 301.401 48.8 300.301 48.8Z" fill="black"/>
<path d="M321.7 79.9C321.5 79.9 321.4 79.9 321.2 79.9C320.6 79.9 320.2 79.8 319.7 79.7H319.5C318.4 79.5 317.7 78.4 317.9 77.3C318.1 76.2 319.2 75.5 320.3 75.7H320.5C320.9 75.8 321.1 75.8 321.3 75.8C324.4 75.9 327 73.7 327.1 70.6C327.2 69.5 328.1 68.6 329.2 68.7C330.3 68.8 331.2 69.7 331.1 70.8C330.8 76 326.8 79.9 321.7 79.9Z" fill="black"/>
<path d="M380.701 78C380.401 78 380.201 77.9 379.901 77.8L368.001 72.8C367.001 72.4 366.501 71.2 366.901 70.2C367.301 69.2 368.501 68.7 369.501 69.1L381.401 74.1C382.401 74.5 382.901 75.7 382.501 76.7C382.201 77.5 381.501 78 380.701 78Z" fill="black"/>
<path d="M305.369 45.3362C306.563 36.6921 301.677 28.8757 294.456 27.8777C287.234 26.8797 280.411 33.0779 279.217 41.722C278.022 50.3661 282.908 58.1826 290.13 59.1806C297.351 60.1786 304.174 53.9802 305.369 45.3362Z" stroke="black" stroke-width="4.0001" stroke-miterlimit="4.0001" stroke-linecap="round" stroke-linejoin="round"/>
<path d="M343.205 47.5301C344.4 38.8861 339.514 31.0696 332.293 30.0715C325.071 29.0735 318.248 35.2719 317.054 43.916C315.859 52.56 320.745 60.3764 327.967 61.3745C335.188 62.3725 342.011 56.1742 343.205 47.5301Z" stroke="black" stroke-width="4.0001" stroke-miterlimit="4.0001" stroke-linecap="round" stroke-linejoin="round"/>
<path d="M344.201 46.0999C343.401 46.0999 342.601 45.5999 342.301 44.7999C341.901 43.7999 342.401 42.5999 343.501 42.1999L376.901 29.6999C380.001 28.4999 383.501 28.5999 386.601 29.9999C389.701 31.3999 392.101 33.9999 393.301 37.1999C393.901 38.8999 394.101 40.2999 394.101 41.5999V43.0999C394.101 44.1999 393.201 45.0999 392.101 45.0999C391.001 45.0999 390.101 44.1999 390.101 43.0999V41.5999C390.101 40.7999 389.901 39.6999 389.501 38.4999C388.701 36.3999 387.101 34.5999 384.901 33.5999C382.801 32.5999 380.401 32.5999 378.301 33.3999L344.901 45.8999C344.701 46.0999 344.401 46.0999 344.201 46.0999Z" fill="black"/>
<path d="M384.4 287.1H270.6C269.5 287.1 268.6 286.2 268.6 285.1C268.6 284 269.5 283.1 270.6 283.1H384.4C385.5 283.1 386.4 284 386.4 285.1C386.4 286.2 385.5 287.1 384.4 287.1Z" fill="black"/>
<path d="M283.1 769.2V769C288.8 739.6 312.7 717.8 342.4 714.7H342.6V714.9C339.6 747.1 335.6 768.8 335.6 769.1V769.3L283.1 769.2Z" fill="#6C79D9"/>
<path d="M320 152.3C319.9 152.3 319.901 152.3 319.801 152.3C319.201 152.2 318.601 151.9 318.301 151.3L294.7 112.1C294.1 111.2 294.4 109.9 295.4 109.4C296.3 108.8 297.6 109.1 298.1 110.1L320.301 147L339.9 125.9C340.3 125.5 340.8 125.2 341.4 125.3C342 125.3 342.5 125.6 342.9 126.1L359.6 147.2L401 97.4C401.7 96.5 403.001 96.4 403.801 97.1C404.601 97.8 404.8 99.1 404.1 99.9L361.1 151.6C360.7 152.1 360.1 152.3 359.5 152.3C358.9 152.3 358.3 152 358 151.5L341.2 130.3L321.4 151.6C321.1 152.1 320.6 152.3 320 152.3Z" fill="black"/>
<path d="M235.8 670.7C229.9 670.7 225.7 668.7 223.5 664.9V664.8C223.5 664.7 223.7 652.1 242.7 637.9L242.9 637.8L260.4 664L260.2 664.1C260.1 664.1 246.7 670.7 235.8 670.7Z" fill="black"/>
<path d="M159.1 665.8C159.1 665.7 157.6 654 154.7 636.1V635.9H154.9C158.2 635.6 161.6 635.5 165 635.5C168.4 635.5 171.7 635.6 175.1 635.9C189.5 637.3 189.6 640.7 189.6 640.9C192.5 659 159.7 666 159.4 666H159.2L159.1 665.8Z" fill="black"/>
<path d="M282.6 700.9L277.7 691.5C274.5 683.8 269.2 674.4 261.6 662.8L244.4 637L236.5 626L356.8 608L361.6 615.1C386.9 661.6 399 700.7 404.6 725.4L403.8 735.3L347.5 755.6L282.6 700.9Z" fill="white"/>
<path d="M355.9 610.1L359.9 616.1C385 662.2 396.9 701 402.6 725.5L401.9 733.8L347.9 753.3L284.2 699.8L279.5 690.8C276.2 683 270.9 673.5 263.2 661.8L246 636V635.9V635.8L240 627.5L355.9 610.1ZM357.8 605.7L233 624.5L242.7 638.1L259.9 663.9C267.4 675.4 272.7 684.7 275.9 692.4L281 702.2L347.1 757.7L405.7 736.6L406.6 725.2C401 700.4 388.9 660.9 363.3 614L357.8 605.7Z" fill="black"/>
<path d="M253.6 769.2V769C252.6 755.9 259.6 745.8 266.5 736C272.6 727.2 279 718.1 279.4 706.8C279.5 703.2 278.3 698.3 275.8 692.3L275.7 692H276C309.5 696.4 337.6 718.8 349.3 750.4C364.6 735.4 384.9 726.3 406.3 724.9H406.5V725.1C412.7 752.5 412.7 768.8 412.7 768.9V769.1L253.6 769.2Z" fill="#F9494B"/>
<path d="M43.8004 697.401L42.4004 689.201C43.8004 680.601 45.6004 667.401 47.9004 649.901L52.2004 629L150.5 616L153.1 636.201C156 654.301 157.5 665.801 157.5 665.901C159.9 685.401 161.5 705.201 162.2 724.901L160.9 736L97.1003 755.401L43.8004 697.401Z" fill="white"/>
<path d="M148.8 618.3L151.2 636.5V636.6V636.7C154 654.5 155.5 666.2 155.6 666.3C158 685.7 159.6 705.4 160.3 724.9L159.2 734.5L97.9004 753.2L45.8004 696.5L44.6003 689.2C46.0003 680.6 47.8004 667.5 50.0004 650.3L54.0004 630.9L148.8 618.3ZM152.2 613.9L50.5004 627.3L45.9004 649.6C43.6004 667.4 41.7004 680.7 40.4004 689.2L41.9004 698.3L96.5004 757.7L162.7 737.5L164.2 725C163.5 705.3 161.9 685.3 159.4 665.7C159.4 665.6 157.9 653.9 155 636L152.2 613.9Z" fill="black"/>
<path d="M0.200195 769.2V769C1.2002 752.6 8.50018 744.6 17.0002 735.2C24.7002 726.7 33.4002 717.1 38.5002 699.1C39.0002 697.5 39.6002 694.1 40.4002 689.1V688.9L40.6002 689C68.9002 698.1 90.9002 720.5 99.6002 748.9C116.3 733.3 138.1 724.8 161 724.8H161.1C162.1 724.8 163 724.8 164 724.9H164.2V725.1C165.2 751.9 164.1 768.9 164.1 769.1V769.3H0.200195V769.2Z" fill="#F9494B"/>
<path d="M223.6 664.9C211.7 637.3 197.8 603.2 196.9 600.9L181 600C184.8 618.1 189.6 640.9 189.6 640.9C182.3 633.2 154.8 636.4 154.8 636.4C146.3 637.4 136 639.8 125.1 642.5C113.6 645.3 101.7 648.1 89.9004 649.8C82.4004 650.8 74.8004 651.3 67.3004 651.3C60.3004 651.3 53.3004 650.9 46.4004 650L45.9004 649.9V649.7C61.8004 526.9 95.5004 219.4 95.8004 216.3V216.1L140.6 213.2L140.7 213.3C140.9 213.8 161.5 266.8 191.9 331.6C219.9 391.3 262.1 473.5 304.2 526C326.4 553.4 346.3 583.1 363.3 614L363.4 614.2L357.1 617.2C346.8 621.2 331.3 625.9 302.8 625.9C300.4 625.9 297.9 625.9 295.4 625.8C294.2 625.8 293 625.8 291.8 625.8C266 625.8 248.8 633.8 243.1 638.1C243.2 638 225.7 650.2 223.6 664.9Z" fill="#F696BB"/>
<path d="M201.3 618.7C197.9 618.7 194.5 618.5 191.2 618.1C175.5 616.2 162.2 612.3 149.3 608.5C134.1 604.1 119.8 599.9 104.2 599.9C70.2 599.9 51.1 612.2 50.9 612.3L50.5 612.5L50.6 612.1C63 512 80.8 352.7 90.3 266.6V266.4H130.2L261.3 597.9L261.2 598C260.9 598.2 235.3 618.7 201.3 618.7Z" fill="#F9494B"/>
<path d="M148.101 314.3H85.1006C84.0006 314.3 83.1006 313.4 83.1006 312.3C83.1006 311.2 84.0006 310.3 85.1006 310.3H148.101C149.201 310.3 150.101 311.2 150.101 312.3C150.101 313.4 149.201 314.3 148.101 314.3Z" fill="black"/>
<path d="M173.7 380.1H78C76.9 380.1 76 379.2 76 378.1C76 377 76.9 376.1 78 376.1H173.7C174.8 376.1 175.7 377 175.7 378.1C175.7 379.2 174.8 380.1 173.7 380.1Z" fill="black"/>
<path d="M200.201 446H70.6006C69.5006 446 68.6006 445.1 68.6006 444C68.6006 442.9 69.5006 442 70.6006 442H200.201C201.301 442 202.201 442.9 202.201 444C202.201 445.1 201.301 446 200.201 446Z" fill="black"/>
<path d="M226.2 511.8H63C61.9 511.8 61 510.9 61 509.8C61 508.7 61.9 507.8 63 507.8H226.2C227.3 507.8 228.2 508.7 228.2 509.8C228.2 510.9 227.3 511.8 226.2 511.8Z" fill="black"/>
<path d="M252.3 577.7H55.2002C54.1002 577.7 53.2002 576.8 53.2002 575.7C53.2002 574.6 54.1002 573.7 55.2002 573.7H252.3C253.4 573.7 254.3 574.6 254.3 575.7C254.3 576.8 253.4 577.7 252.3 577.7Z" fill="black"/>
<path d="M112.4 602.1C111.3 602.1 110.4 601.2 110.4 600.1V266.9C110.4 265.8 111.3 264.9 112.4 264.9C113.5 264.9 114.4 265.8 114.4 266.9V600.1C114.4 601.2 113.5 602.1 112.4 602.1Z" fill="black"/>
<path d="M178.2 619C177.1 619 176.2 618.1 176.2 617V383.6C176.2 382.5 177.1 381.6 178.2 381.6C179.3 381.6 180.2 382.5 180.2 383.6V617C180.2 618.1 179.3 619 178.2 619Z" fill="black"/>
<path d="M244.101 610.1C243.001 610.1 242.101 609.2 242.101 608.1V554.8C242.101 553.7 243.001 552.8 244.101 552.8C245.201 552.8 246.101 553.7 246.101 554.8V608.1C246.101 609.2 245.201 610.1 244.101 610.1Z" fill="black"/>
<path d="M130.001 433.5C111.301 432.6 93.2008 429.7 93.0008 429.7C92.4008 429.6 78.5008 427.5 64.7008 423C47.0008 417.2 37.8008 410.3 38.1008 403V402L37.4008 401.4C36.5008 400.7 29.1008 394.1 32.2008 385.4L32.6008 384.3L31.8008 383.4C31.5008 383.1 28.7008 380 28.9008 376.1C29.0008 373.3 30.6008 370.6 33.6008 368L34.6008 367.1L34.2008 365.8C34.0008 365.2 32.5008 360 34.9008 356.7C36.3008 354.7 39.0008 353.7 42.8008 353.7C43.7008 353.7 44.7008 353.8 45.7008 353.9C60.2008 355.5 66.6008 356.1 68.3008 356.2L72.1008 356.5L70.2008 353.2C69.5008 352 66.2008 345.7 70.1008 342.1C71.5008 340.9 73.2008 340.2 75.1008 340.2L123.001 339.5L141.901 342.1L149.301 433.4L130.001 433.5Z" fill="white"/>
<path d="M122.7 341.5L139.9 343.9L147 431.4H130.2C111.7 430.5 93.6005 427.7 93.4005 427.6C93.3005 427.6 79.1005 425.4 65.4005 420.9C48.9005 415.5 39.9005 409.1 40.2005 402.9L40.3005 401L38.8005 399.7C38.6005 399.5 36.6005 397.8 35.2005 395.2C33.5005 392.1 33.2005 389 34.3005 385.9L35.1004 383.6L33.4005 381.8C33.3005 381.7 30.9005 379.1 31.0005 376C31.1005 373.8 32.4005 371.5 35.0005 369.3L37.0005 367.6L36.2005 365.1C35.7005 363.5 35.1004 359.8 36.6004 357.7C37.6004 356.3 39.7005 355.6 42.8005 355.6C43.6005 355.6 44.5005 355.7 45.5005 355.8C60.0005 357.4 66.5004 358 68.1004 358.1L75.7005 358.7L71.9005 352.1C71.3005 351.1 68.6005 346.1 71.4005 343.5C72.4005 342.6 73.7004 342.1 75.1004 342.1L122.7 341.5ZM123 337.5L75.0005 338.2C72.7005 338.2 70.4005 339.1 68.7005 340.6C63.7005 345.2 67.5005 352.5 68.5005 354.1C67.0005 354 60.6005 353.4 46.0005 351.8C44.9005 351.7 43.8005 351.6 42.9005 351.6C38.4005 351.6 35.2005 352.9 33.4005 355.4C30.5005 359.5 32.1005 365.3 32.4005 366.3C29.0005 369.2 27.2005 372.5 27.0005 375.9C26.8005 380.5 29.9005 384 30.5005 384.6C27.0005 394.6 35.3005 402 36.3005 402.8C36.0005 411.2 45.4005 418.6 64.3005 424.8C78.4005 429.4 92.8005 431.6 92.9005 431.6C93.1005 431.6 111.3 434.5 130.2 435.4H151.5L143.8 340.4L123 337.5Z" fill="black"/>
<path d="M121.6 469C120.5 469 119.5 469 118.5 468.9C110.5 467.3 105.7 459.2 103 452.7C99.8997 445.2 98.4997 436.7 98.5997 432.2V432H98.7997C106.4 433 117.9 434.3 129.8 434.9C129.9 433.1 130.3 418.7 125 392.1C117.7 355.5 122.7 337.7 122.7 337.5V337.4L190.8 336.4L137.3 219.9L150.8 190L151 190.1C210.1 222.6 263.2 284 277.1 336.2C283.8 361.4 281.6 383.5 270.6 401.7C262.7 414.7 243.6 433.8 197.5 451.2C167.1 463 136.3 469 121.6 469Z" fill="#F696BB"/>
<path d="M202.3 451.4C201.5 451.4 200.7 450.9 200.4 450.1C200 449.1 200.5 447.9 201.5 447.5C215 442.3 228 435.7 240.3 428C241.2 427.4 242.5 427.7 243.1 428.6C243.7 429.5 243.4 430.8 242.5 431.4C230 439.2 216.8 445.9 203.1 451.3C202.8 451.4 202.5 451.4 202.3 451.4Z" fill="black"/>
<path d="M118.5 468.9C103.6 465.9 98.2999 440.1 98.5999 432.3V432.1H98.7999C106.4 433.1 118 434.5 130 435.1H130.2V435.3C130.2 435.4 130.2 448.8 126.4 458.3C122.7 467.5 118.8 468.9 118.5 468.9Z" fill="black"/>
<path d="M87.0006 359.8C86.9006 359.8 86.9006 359.8 86.8006 359.8L64.8006 357.9C63.7006 357.8 62.9006 356.8 63.0006 355.7C63.1006 354.6 64.1006 353.8 65.2006 353.9L87.2006 355.8C88.3006 355.9 89.1006 356.9 89.0006 358C88.9006 359 88.0006 359.8 87.0006 359.8Z" fill="black"/>
<path d="M98.5 379C85.6 379 39.9 372.5 33.5 369.2C32.5 368.7 32.1 367.5 32.6 366.5C33.1 365.5 34.3 365.1 35.3 365.6C40.6 368.3 85.5 375 98.5 375C99.6 375 100.5 375.9 100.5 377C100.5 378.1 99.6 379 98.5 379Z" fill="black"/>
<path d="M98.5 398.1C75.6 397.1 38.1 388.6 31.9 386.5C30.9 386.2 30.2999 385 30.5999 384C30.8999 383 32.0999 382.4 33.0999 382.7C39.1999 384.7 76.1 393.1 98.6 394.1C99.7 394.1 100.6 395.1 100.5 396.2C100.5 397.3 99.6 398.1 98.5 398.1Z" fill="black"/>
<path d="M99.4001 415.3C99.3001 415.3 99.3001 415.3 99.2001 415.3C79.8001 413.4 45.3001 406.6 37.5001 403.7C36.5001 403.3 35.9001 402.2 36.3001 401.1C36.7001 400.1 37.8001 399.5 38.9001 399.9C46.3001 402.7 80.8001 409.4 99.6001 411.3C100.7 411.4 101.5 412.4 101.4 413.5C101.3 414.5 100.4 415.3 99.4001 415.3Z" fill="black"/>
<path d="M130 268.6C129.4 268.6 128.9 268.4 128.5 267.9C127.8 267.1 127.9 265.8 128.7 265.1L187.1 214.8C187.9 214.1 189.2 214.2 189.9 215C190.6 215.8 190.5 217.1 189.7 217.8L131.3 268.1C130.9 268.4 130.5 268.6 130 268.6Z" fill="black"/>
<path d="M120.4 341.6C119.3 341.6 118.4 340.7 118.4 339.6C118.4 338.5 119.3 337.6 120.4 337.6C161.9 337.6 212.5 332.9 213 332.8C214.1 332.7 215.1 333.5 215.2 334.6C215.3 335.7 214.5 336.7 213.4 336.8C212.9 336.8 162.1 341.6 120.4 341.6Z" fill="black"/>
<path d="M191.2 337.8C190.5 337.8 189.7 337.4 189.4 336.7L167.9 291.2C167.4 290.2 167.9 289 168.9 288.5C169.9 288 171.1 288.5 171.6 289.5L193.1 335C193.6 336 193.1 337.2 192.1 337.7C191.8 337.7 191.5 337.8 191.2 337.8Z" fill="black"/>
<path d="M159.8 211C148.8 211 139.8 202 139.8 191C139.8 180 148.8 171 159.8 171C170.8 171 179.8 180 179.8 191C179.8 202.1 170.8 211 159.8 211Z" fill="white"/>
<path d="M159.8 173.1C169.7 173.1 177.8 181.2 177.8 191.1C177.8 201 169.7 209.1 159.8 209.1C149.9 209.1 141.8 201 141.8 191.1C141.9 181.2 149.9 173.1 159.8 173.1ZM159.8 169.1C147.7 169.1 137.8 178.9 137.8 191.1C137.8 203.2 147.6 213.1 159.8 213.1C172 213.1 181.8 203.3 181.8 191.1C181.8 178.9 171.9 169.1 159.8 169.1Z" fill="black"/>
<path d="M118.7 229.4C103.8 229.4 88.3002 215.8 79.1002 194.7C66.7002 166.2 67.8002 138.5 81.5002 130.2C87.9002 126.3 95.2002 124.4 103.3 124.4C120.6 124.4 135.4 133.5 135.6 133.6C146.2 140.4 151.7 148.1 153.6 158.5C155.7 170.1 153 185.2 145.3 206C139.7 221.1 130.2 229.4 118.7 229.4Z" fill="white"/>
<path d="M103.301 126.4C119.701 126.4 133.901 134.9 134.501 135.3C151.901 146.5 159.401 162.2 143.401 205.3C138.101 219.5 129.301 227.4 118.701 227.4C104.601 227.4 89.8005 214.3 81.0005 193.9C75.0005 180.1 72.0005 166 72.6005 154.2C73.2005 143.3 76.7005 135.4 82.6005 131.9C88.7005 128.3 95.7005 126.4 103.301 126.4ZM103.301 122.4C95.9005 122.4 88.0005 124 80.5005 128.5C66.0005 137.2 64.2005 165.5 77.3005 195.5C87.1005 218.1 103.601 231.4 118.701 231.4C130.101 231.4 140.801 223.8 147.101 206.7C163.001 163.8 157.001 145.1 136.601 131.9C136.701 131.9 121.401 122.4 103.301 122.4Z" fill="black"/>
<path d="M136.7 131.9C155.8 144.3 162.3 161.5 149.9 198.9C149.9 198.9 126.5 183.9 126.5 139.2C112.5 151.9 82.2004 159.2 68.9004 150.4C70.1004 140.2 74.0004 132.4 80.5004 128.5C106.3 113 136.7 131.9 136.7 131.9Z" fill="black"/>
<path d="M96.3 191.2C96.1 191.2 95.8 191.2 95.6 191.1C93.7 190.4 92.1 189 91 187.2C89.4 184.5 89 179.9 89.3 170.1C89.3 169 90.2 168.1 91.4 168.2C92.5 168.2 93.4 169.2 93.3 170.3C93 179 93.4 183.4 94.4 185.2C95 186.2 96 187 97.1 187.5C98.1 187.9 98.6 189.1 98.2 190.1C97.8 190.7 97.1 191.2 96.3 191.2Z" fill="black"/>
<path d="M106.6 176.5C105.6 176.5 104.7 175.7 104.6 174.7L104.4 172.4C104.3 171.3 105.1 170.3 106.2 170.2C107.3 170.1 108.3 170.9 108.4 172L108.6 174.3C108.7 175.4 107.9 176.4 106.8 176.5C106.7 176.5 106.7 176.5 106.6 176.5Z" fill="black"/>
<path d="M80.8999 173C79.8999 173 78.9999 172.2 78.8999 171.2L78.6998 168.9C78.5998 167.8 79.3998 166.8 80.4998 166.7C81.5998 166.6 82.5998 167.4 82.6998 168.5L82.8999 170.8C82.9999 171.9 82.1998 172.9 81.0998 173C80.9998 173 80.9999 173 80.8999 173Z" fill="black"/>
<path d="M104.401 202.2C103.901 202.2 103.3 202.2 102.7 202.1C101.6 201.9 100.9 200.8 101.1 199.7C101.3 198.6 102.4 197.9 103.5 198.1C103.8 198.2 104 198.2 104.5 198.2C105.9 198.2 107.2 197.6 108.2 196.5C109.2 195.4 109.7 194 109.6 192.6C109.5 191.5 110.4 190.6 111.5 190.5C112.6 190.4 113.5 191.3 113.6 192.4C113.7 194.9 112.8 197.4 111.1 199.2C109.4 201 107.1 202.1 104.5 202.2C104.5 202.2 104.501 202.2 104.401 202.2Z" fill="black"/>
<path d="M163.601 195.2C163.401 195.2 163.301 195.2 163.101 195.1L150.601 192C149.501 191.7 148.901 190.6 149.101 189.6C149.401 188.5 150.501 187.9 151.501 188.1L164.001 191.2C165.101 191.5 165.701 192.6 165.501 193.6C165.301 194.6 164.501 195.2 163.601 195.2Z" fill="black"/>
<path d="M153 134.9C181.498 134.9 204.6 111.798 204.6 83.3002C204.6 54.8023 181.498 31.7002 153 31.7002C124.502 31.7002 101.4 54.8023 101.4 83.3002C101.4 111.798 124.502 134.9 153 134.9Z" fill="black"/>
<path d="M102.3 771C101.2 771 100.3 770.1 100.3 769C100.2 762.7 99.3003 756.3 97.6003 749.8C97.3003 748.7 98.0004 747.6 99.0004 747.4C100.1 747.1 101.2 747.8 101.4 748.8C103.2 755.6 104.2 762.4 104.3 769C104.3 770.1 103.4 771 102.3 771Z" fill="black"/>
<path d="M352.8 771C351.8 771 350.9 770.2 350.8 769.2C350.1 763.3 349 757.3 347.4 751.4C347.1 750.3 347.7 749.2 348.8 748.9C349.9 748.6 351 749.2 351.3 750.3C353 756.4 354.2 762.6 354.9 768.7C355 769.8 354.2 770.8 353.1 770.9C353 771 352.9 771 352.8 771Z" fill="black"/>
<path d="M288.8 739.4C288.6 739.4 288.3 739.4 288.1 739.3L269.7 732.6C268.7 732.2 268.1 731.1 268.5 730C268.9 729 270 728.4 271.1 728.8L289.5 735.5C290.5 735.9 291.1 737 290.7 738.1C290.4 738.9 289.6 739.4 288.8 739.4Z" fill="black"/>
<path d="M46.1002 739.4C45.7002 739.4 45.3002 739.3 45.0002 739.1L25.5002 725.8C24.6002 725.2 24.4002 723.9 25.0002 723C25.6002 722.1 26.9002 721.9 27.8002 722.5L47.3002 735.8C48.2002 736.4 48.4002 737.7 47.8002 738.6C47.4002 739.1 46.7002 739.4 46.1002 739.4Z" fill="black"/>
<path d="M189.101 217.6C188.901 217.6 188.801 217.6 188.601 217.5C187.701 217.3 187.101 216.4 187.101 215.5L190.201 149.1V149V148.9C190.301 147.9 190.401 146.7 190.801 145.5C191.901 141.3 194.701 137.8 198.501 135.6C202.301 133.4 206.801 132.8 211.001 134L211.401 134.1C212.701 134.5 213.801 134.9 214.801 135.5C218.701 137.5 221.501 141 222.801 145.2C224.101 149.4 223.701 153.9 221.701 157.8L190.901 216.6C190.501 217.2 189.801 217.6 189.101 217.6ZM194.201 149.3L191.501 206.6L218.101 155.8C219.601 152.8 220.001 149.4 219.001 146.2C218.001 143 215.801 140.4 212.901 138.9C212.101 138.5 211.301 138.1 210.401 137.8L210.101 137.7C206.901 136.8 203.501 137.3 200.601 138.9C197.701 140.6 195.601 143.3 194.701 146.5C194.401 147.4 194.301 148.4 194.201 149.3Z" fill="black"/>
<path d="M189.2 217.7C188.4 217.7 187.7 217.2 187.3 216.5C186.9 215.6 187.2 214.6 188 214.1L231.3 184.3C232.2 183.7 233 183.2 233.9 182.9C240.8 180.2 248.7 183.6 251.5 190.4V190.5L251.6 190.8C251.9 191.6 252.2 192.5 252.4 193.5C253 197 252.2 200.6 250.1 203.5C248 206.4 244.9 208.4 241.3 208.9L189.4 217.6C189.4 217.7 189.3 217.7 189.2 217.7ZM238.9 185.9C237.7 185.9 236.6 186.1 235.4 186.6C234.8 186.8 234.2 187.1 233.6 187.6L197.7 212.3L240.7 205.1C243.2 204.7 245.4 203.3 246.9 201.3C248.4 199.2 248.9 196.7 248.5 194.2V194.1C248.4 193.5 248.2 192.9 247.9 192.2L247.8 191.9C246.3 188.1 242.7 185.9 238.9 185.9Z" fill="black"/>
</svg>
