<svg width="687" height="650" viewBox="0 0 687 650" fill="none" xmlns="http://www.w3.org/2000/svg">
<path d="M52.3999 588.4L32.8999 567.3L41.2999 536.4L58.8999 533.2C62.8999 532.9 66.7999 532.4 70.5999 531.8C104.3 526 122.9 508.3 123.1 508.1C123.1 508.1 133.4 498.8 155 474.2L181 458.4L228.7 569.4C223.5 575 218.6 580.6 214.9 584.9C210.1 590.6 208.5 592.9 208.2 594.3C178.3 616.8 149.4 634.5 122.4 647L52.3999 588.4Z" fill="white"/>
<path d="M180.2 461.2L226.5 568.9C221.6 574.2 219.1 581 215.6 585.1C212 588.8 206.6 592.9 206.6 592.9C177.4 614.8 149.2 632.2 122.8 644.5L53.7999 586.9L35.1998 566.7L42.9998 538L59.2999 535.1C63.2999 534.8 67.1998 534.3 70.9998 533.6C104.2 527.9 123.2 510.7 124.5 509.5C125.3 508.8 135.6 499.3 156.4 475.7L180.2 461.2ZM182 455.4L153.8 472.6C132.1 497.3 121.9 506.5 121.8 506.6C121.6 506.8 103.3 524.1 70.2999 529.7C66.5999 530.3 62.6998 530.8 58.6998 531.1L39.6998 534.5L30.5999 567.7L50.8998 589.8L122.1 649.2L122.2 649.1C150 636.4 179.6 618.2 210.3 595L210.5 594.9L210.2 594.6C209.6 593.5 220.4 581 230.9 569.7L231 569.6L182 455.4Z" fill="black"/>
<path d="M121.8 506.8C121.5 506.4 96.4 462.1 117.3 445L117.6 444.8C117.6 444.8 118 444.5 118.5 444.5C120.5 444.5 127.3 445.5 136.1 451.7C146 458.6 154.1 472.6 154.2 472.8L154.3 472.9L154.2 473C132.4 497.7 122.3 506.9 122.2 507L122 507.2L121.8 506.8Z" fill="black"/>
<path d="M210.1 595C208.1 593 190.6 575.1 180.8 550.8C175.6 538 171.6 524 168.1 511.6C163.5 495.4 159.5 481.4 154 473C136.9 443.6 117.3 445 117.3 445C118.4 444.1 119.7 443.2 121 442.5C140.8 431.6 314.3 352.3 316 351.5L316.3 351.4L299.3 514.8C276 540.7 242.9 570.7 210.7 595.1L210.6 595.2L210.1 595Z" fill="#F696BB"/>
<path d="M298.9 538.9C298.5 538.8 253.8 524.8 243 503.1C240.3 497.6 239.9 492.1 241.8 486.6C242 486.3 246 482 256.4 482C262.4 482 269.4 483.5 277.1 486.5C285.9 489.9 294.3 494.3 302.1 499.4L302.2 499.5V499.6C302 527.2 299.2 538.6 299.2 538.7L299.1 538.9H298.9Z" fill="black"/>
<path d="M0.699951 547.8C0.899951 547.5 8.29995 531.6 49 531.6C52.2 531.6 55.4 531.4 58.7 531.1H58.8999L59 531.4C63.5 551.2 60.7999 571.9 51.3999 589.9L51.3 590.1L0.699951 547.8Z" fill="#F9494B"/>
<path d="M517 243.8L501.9 312.7H661.9C661.9 312.7 607.9 208.7 600.9 201.7C590.7 191.5 517 243.8 517 243.8Z" fill="black"/>
<path d="M617 271C604.8 271 595 261.1 595 249C595 236.8 604.9 227 617 227C629.1 227 639 236.9 639 249C639.1 261.2 629.2 271 617 271Z" fill="white"/>
<path d="M617 229C628.1 229 637 238 637 249C637 260 628 269 617 269C606 269 597 260 597 249C597 238 606 229 617 229ZM617 225C603.7 225 593 235.8 593 249C593 262.2 603.8 273 617 273C630.2 273 641 262.2 641 249C641 235.8 630.3 225 617 225Z" fill="black"/>
<path d="M573.6 296.3C558.1 296.3 541 284 529 264.1C511.3 234.9 508.4 204.6 522.2 193.5C530.5 186.8 540.9 183.5 552.9 183.5C568.5 183.5 581.4 189.2 581.5 189.3C594 195.2 601.2 202.8 604.7 213.8C608.6 226.2 608 243 602.7 266.7C598.6 285.5 588 296.3 573.6 296.3Z" fill="white"/>
<path d="M553 181.5V185.5C567.8 185.5 580.2 190.8 580.8 191.1C601.5 200.8 612 216.8 600.9 266.2C596.8 284.3 587.1 294.3 573.7 294.3C558.9 294.3 542.5 282.3 530.8 263.1C522.2 248.9 516.9 234 515.9 221.1C514.9 209.1 517.7 199.9 523.6 195.1C531.6 188.7 541.5 185.5 553.1 185.5L553 181.5ZM553 181.5C542.6 181.5 531.1 183.9 521 192C506.6 203.5 508.8 234.6 527.3 265.2C540.2 286.5 558 298.3 573.6 298.3C587.7 298.3 599.9 288.5 604.8 267.1C615.8 218.2 606.6 198.8 582.5 187.5C582.5 187.4 569.2 181.5 553 181.5Z" fill="black"/>
<path d="M582.5 187.4C605.1 198.1 614.7 215.8 606.6 258.5C572 243.7 569 196.7 569 196.7C569 196.7 547 224.7 512 222.9C510.6 209.2 513.6 198 521.1 192C546.8 171.4 582.5 187.4 582.5 187.4Z" fill="black"/>
<path d="M547.1 257.5C546.9 257.5 546.8 257.5 546.6 257.4C544.5 256.9 542.5 255.7 541 254C538.9 251.4 537.7 246.4 536.6 235.7C536.5 234.6 537.3 233.6 538.4 233.5C539.5 233.4 540.5 234.2 540.6 235.3C541.5 244.8 542.6 249.6 544.1 251.4C545 252.5 546.2 253.2 547.5 253.5C548.6 253.8 549.2 254.8 549 255.9C548.8 256.9 548 257.5 547.1 257.5Z" fill="black"/>
<path d="M556 240C555.1 240 554.2 239.4 554 238.4L553.5 236C553.3 234.9 554 233.9 555.1 233.6C556.2 233.4 557.2 234.1 557.5 235.2L558 237.6C558.2 238.7 557.5 239.7 556.4 240C556.3 240 556.1 240 556 240Z" fill="black"/>
<path d="M527.7 240C526.8 240 526 239.4 525.8 238.5L525.2 236C524.9 234.9 525.6 233.8 526.7 233.6C527.8 233.3 528.9 234 529.1 235.1L529.7 237.6C530 238.7 529.3 239.8 528.2 240C528 240 527.9 240 527.7 240Z" fill="black"/>
<path d="M556.1 268.4C555 268.4 554.1 267.5 554.1 266.4C554.1 265.3 555 264.4 556.1 264.4C556.5 264.4 556.9 264.4 557.2 264.3C560.5 263.7 562.8 260.4 562.2 257.1C562 256 562.7 255 563.8 254.8C564.9 254.6 565.9 255.3 566.1 256.4C567.1 261.9 563.4 267.2 557.9 268.2C557.3 268.4 556.7 268.4 556.1 268.4Z" fill="black"/>
<path d="M619.4 251.7C619.3 251.7 619.3 251.7 619.2 251.7L607.4 250.6C606.3 250.5 605.5 249.5 605.6 248.4C605.7 247.3 606.7 246.5 607.8 246.6L619.6 247.7C620.7 247.8 621.5 248.8 621.4 249.9C621.3 250.9 620.4 251.7 619.4 251.7Z" fill="black"/>
<path d="M275.2 647.2C272 638.1 266.8 611.1 265.9 606.1L271.8 597.7C282.9 586.2 294 571.1 300.7 539C300.7 538.8 303.7 523.6 303.7 499.5C303.7 499.1 301.6 467.5 300.9 456.9L417.1 525.6L416.7 565.4C411.6 595.2 404.1 622.7 394.5 647.1L275.2 647.2Z" fill="white"/>
<path d="M303.2 460.6L415.1 526.8L414.7 565.3C409.7 594.4 402.5 621.3 393.1 645.2H276.6C274 636.9 270 617.7 267.9 606.6L273.3 599.1C284.5 587.4 295.9 572 302.6 539.5C302.6 539.3 305.7 523.9 305.7 499.7V499.6V499.5C305.7 499.1 304 473.5 303.2 460.6ZM298.7 453.3V453.7C298.7 454.2 301.7 499.2 301.7 499.6C301.7 523.4 298.7 538.5 298.7 538.7C292.1 570.4 281.1 585.2 270.2 596.5L263.7 605.7V605.8C263.8 606.1 270.2 640.4 273.7 649.1L273.8 649.2H395.9L396 649.1C405.9 624.3 413.6 596.2 418.8 565.7L419.2 524.6L298.7 453.3Z" fill="black"/>
<path d="M233.8 649C233.8 648.9 233 634.4 249.9 616.5C253.6 612.6 257.4 609 261 605.5C264.2 602.4 267.3 599.5 270.3 596.4L270.4 596.2L270.5 596.4C284.4 611.1 294.3 629.2 299 648.9V649.2L233.8 649.1V649Z" fill="#F9494B"/>
<path d="M592.9 648.9C571.5 648.9 548.2 647.4 520.8 629.9C487.2 608.4 455.9 568.1 425.1 506.5C425 511.1 424 534.7 418.7 565.7V565.9H418.5C418.3 565.9 394.5 563.7 367.8 546.9C354 538.2 345.2 531.4 335.9 524.1C326.6 516.9 317.1 509.5 302.1 500C259.5 473.3 241.7 486.6 241.7 486.6C248.5 467.3 271.7 408.9 310.7 325.6C319.7 306.4 340.7 293.5 362.9 293.5C404.8 293.5 451.6 329.7 483.4 360.1C517.1 392.2 541.6 424.7 543 426.5H665V426.6C680.1 472.6 687.2 512.5 686 545.3C685 573 678.2 595.8 665.7 613.1C641.8 646.3 604 648.9 592.9 648.9Z" fill="#F696BB"/>
<path d="M424.9 507.7C423.7 507.7 422.9 506.7 422.9 505.6C424.9 460.3 417 408.8 416.9 408.3C416.7 407.2 417.5 406.2 418.6 406C419.7 405.8 420.7 406.6 420.9 407.7C421 408.2 428.9 460.1 426.9 505.8C426.9 506.9 426 507.7 424.9 507.7Z" fill="black"/>
<path d="M573.3 475.7C572.6 475.7 572 475.4 571.6 474.7C562 458.6 551.5 442.4 541.3 427.8C540.7 426.9 540.9 425.6 541.8 425C542.7 424.4 544 424.6 544.6 425.5C554.9 440.2 565.4 456.5 575.1 472.6C575.7 473.5 575.4 474.8 574.4 475.3C574 475.6 573.7 475.7 573.3 475.7Z" fill="black"/>
<path d="M230.9 445.7L230.5 445.5C225.5 443.1 199.6 430.5 178 418.9C177 418.3 175.9 417.6 175 416.9L174.7 416.7L175 416.6C188.6 410.2 204.7 402.7 222.9 394.3L223.1 394.2V394.5C227 416.9 230.4 440.6 231 445.2L231.1 446L230.9 445.7Z" fill="#F9494B"/>
<path d="M176.4 539C173.6 530.7 171.1 522.3 169.1 515.1V515V514.9C175 505.4 180.3 496.9 185 489.6C189.7 483.1 195.3 479.6 200.9 479.6C206.3 479.6 211.1 483 213.2 488.3C214.2 490.7 216.6 498.9 208.6 507.1C210.8 506.4 212.9 506.1 214.9 506.1C224.6 506.1 230.4 513.1 230.9 519.8C231.4 526.3 227 534 213.3 536.1C202.9 537.2 190.5 538.2 176.6 539.2H176.5L176.4 539Z" fill="#F9494B"/>
<path d="M568.8 557.3C563.9 557.3 559.3 554.4 556.8 549.9C553.9 544.6 554.2 538.2 557.7 532.1C554.4 534.1 550.9 535.2 547.5 535.2C540.2 535.2 534 530.4 532.6 523.8C531.1 516.4 536.1 509.5 546.1 505.3C569.2 496.9 596.7 488.3 602 486.7L602.8 486.4L602.6 487.2C601 492.5 592.8 520.1 584.8 543.4C581.2 552.2 575.4 557.3 568.8 557.3Z" fill="#F9494B"/>
<path d="M391.9 344.1C385.7 344.1 380.7 340.1 379.1 334C377.7 328.5 379.2 320.4 388 315.1C387.7 315.1 387.3 315.1 387 315.1C380.4 315.1 374.9 312.3 371.8 307.4C369.1 303.2 368.7 298.2 370.7 294L370.8 293.9H370.9C388.4 295.7 407.9 303.3 428.9 316.5L429.1 316.6L428.9 316.8C420.5 324.8 412.9 331.9 406.3 337.9C401.4 342 396.4 344.1 391.9 344.1Z" fill="#F9494B"/>
<path d="M649.7 577.5C639 577.5 634.1 570.9 634 564.3C633.8 556.8 639.5 548.9 650.7 548C641.4 543.9 638.5 535.8 639.7 529.5C641 522.9 646.2 518.7 652.9 518.7C657 518.7 661.4 520.2 666.1 523.2C672.1 527.4 678.8 532.4 686.2 537.8L686.3 537.9V538C686.4 548.2 685.5 558.5 683.8 568.6V568.7H683.7C673.8 571.8 664.8 574.5 656.9 576.7C654.3 577.2 651.9 577.5 649.7 577.5Z" fill="#F9494B"/>
<path d="M465.8 575.1C460.3 567.6 454.7 559.1 449.1 550V549.9C449.3 541.6 449.5 534 449.8 527.3C451.1 513.7 458.4 508.8 464.8 508.8C469.2 508.8 473.5 511 476.3 514.7C479.5 518.9 480.4 524.4 479 530.3C482.8 526.1 487.6 523.8 492.6 523.8C498.8 523.8 504.3 527.4 506.2 532.9C508.5 539.3 505.4 546.6 497.8 552.8C489 559.3 478.3 566.8 466.2 575.2L466 575.3L465.8 575.1Z" fill="#F9494B"/>
<path d="M352.1 536.3C346.2 532 341.1 528.2 335.8 524L333.2 522L333.3 521.9C339.1 508.7 344.4 497.1 349.1 487.3C353.4 479.5 359.1 475.2 365.2 475.2C370.3 475.2 375 478.3 377.3 483.2C380 488.9 379.1 495.7 374.7 501.5C377.6 500.2 380.4 499.5 383.2 499.5C390.9 499.5 397.6 504.8 398.6 511.9C399.9 521.2 391.5 527.1 383.2 529.5C374.3 531.6 364 533.9 352.3 536.3H352.1Z" fill="#F9494B"/>
<path d="M308 446.7C302.5 446.7 296.9 443.2 292.2 436.7C286.8 428.5 280.7 418.8 273.9 407.8L273.8 407.7V407.6C276.6 401.1 279.6 394.3 282.6 387.4L282.7 387.3H282.8C296.8 388.2 309.7 389.2 320.2 390.3C333.9 392.4 338.3 400 337.8 406.5C337.3 413.1 331.5 420.2 321.8 420.2C319.8 420.2 317.7 419.9 315.5 419.2C323.6 427.3 321.2 435.6 320.2 438C318.2 443.3 313.3 446.7 308 446.7Z" fill="#F9494B"/>
<path d="M588.6 648.9C580.5 648.9 572.3 648.2 564.2 646.9H564.1V646.8C557.8 637.3 552.3 628.6 547.7 621.2C543.5 613.6 542.9 606.6 545.9 601.5C548.3 597.5 552.6 595.1 557.6 595.1C563.2 595.1 570.2 598.3 573.5 607.3C575 596.5 582.8 591.6 589.6 591.6C593.8 591.6 597.7 593.5 600.1 596.7C602.4 599.8 604.6 605.5 601.7 615.3C598.3 624.9 594.1 636.1 589.3 648.7L589.2 648.9H588.6Z" fill="#F9494B"/>
<path d="M242.4 488.4C242.2 488.4 242 488.4 241.7 488.3C240.7 487.9 240.1 486.8 240.5 485.7C248.1 464.3 267.3 417.4 293 360.6C293.5 359.6 294.6 359.1 295.6 359.6C296.6 360.1 297.1 361.2 296.6 362.2C271 419 251.8 465.8 244.3 487.1C244 487.9 243.2 488.4 242.4 488.4Z" fill="black"/>
<path d="M673.9 458.7H562.9C561.8 458.7 560.9 457.8 560.9 456.7C560.9 455.6 561.8 454.7 562.9 454.7H673.9C675 454.7 675.9 455.6 675.9 456.7C675.9 457.8 675 458.7 673.9 458.7Z" fill="black"/>
<path d="M379.2 434.3C370 427.8 360.2 420.9 350 415C318 396.2 306.9 395.6 295.1 394.8C291.8 394.6 288.3 394.4 284.3 393.7C279.1 392.8 275.9 391.1 274.7 388.5C273 385 275.5 380.7 275.5 380.6L276.2 379.4L275.4 378.3C270 371.3 276.5 365.8 277.2 365.2L278.6 364.1L277.7 362.6C276.3 360.2 275.9 358 276.5 356.1C277.6 352.5 281.8 350.5 281.9 350.5L283.1 350V348.7C283.1 340.1 295.7 334.8 316.1 334.8C329.8 334.8 345.5 337.2 361.6 341.6C373.4 344.9 389.3 350.4 409 358L449.5 377.6L414 452.9L379.2 434.3Z" fill="white"/>
<path d="M315.9 336.8C329.4 336.8 344.9 339.1 360.8 343.6C372.5 346.9 388.4 352.3 408 359.9L446.6 378.6L413.1 450.2L380.2 432.6C371 426.1 361.2 419.2 350.9 413.3C318.5 394.3 307.1 393.6 295.2 392.9C291.9 392.7 288.5 392.5 284.6 391.8C281.5 391.3 277.6 390.2 276.5 387.7C275.3 385.2 277.2 381.7 277.2 381.7L278.6 379.4L277 377.2C275.2 374.8 274.8 372.6 275.9 370.3C276.8 368.3 278.5 366.9 278.5 366.9L281.3 364.7L279.5 361.7C278.4 359.8 278 358.2 278.5 356.8C279.2 354.5 281.8 352.8 282.8 352.4L285.1 351.3V348.7C284.9 341.5 297.1 336.8 315.9 336.8ZM315.9 332.8C295.1 332.8 280.9 338.3 280.9 348.7C280.9 348.7 269.9 353.7 275.9 363.7C275.9 363.7 266.9 370.7 273.7 379.6C273.7 379.6 265.9 392.7 283.9 395.7C301.9 398.7 307.9 392.7 348.9 416.7C358.9 422.6 368.5 429.2 378.1 436L414.9 455.7L451.9 376.7L409.6 356.2C392.3 349.5 375.2 343.5 361.9 339.7C345.2 335 329.2 332.8 315.9 332.8Z" fill="black"/>
<path d="M482.8 481.9C481.4 481.9 479.9 481.9 478.5 481.8C439 479.5 409.8 458.8 381.7 438.8L377.9 436.1L409.6 355.9L409.8 356C446.7 370.2 485 387.2 487.9 388.5C489 386.1 501.5 360.5 520.8 326.7C541.8 290 557 277.6 581 277.6C592.9 277.6 607 280.3 636.1 312.7C666.7 346.8 685 375.6 686.2 391.8C687.2 406.3 681.4 415.1 676.4 420C670.9 425.2 665.1 427 665.1 427H568.2C566.4 429.5 533.3 481.9 482.8 481.9Z" fill="#F9494B"/>
<path d="M567.9 428.7C567.5 428.7 567.2 428.6 566.9 428.4C566 427.8 565.7 426.6 566.2 425.6C573.7 413.5 585 395.1 599.1 360.9C599.5 359.9 600.7 359.4 601.7 359.8C602.7 360.2 603.2 361.4 602.8 362.4C588.6 396.9 577.2 415.4 569.7 427.7C569.2 428.4 568.6 428.7 567.9 428.7Z" fill="black"/>
<path d="M345 353.7C344.8 353.7 344.7 353.7 344.5 353.6C344.2 353.5 309.9 344.8 282.7 352.6C281.6 352.9 280.5 352.3 280.2 351.2C279.9 350.1 280.5 349 281.6 348.7C309.8 340.6 344 349.3 345.5 349.7C346.6 350 347.2 351.1 346.9 352.1C346.7 353.1 345.9 353.7 345 353.7Z" fill="black"/>
<path d="M340.2 368.7C340 368.7 339.9 368.7 339.7 368.6C339.4 368.5 309.7 360.8 278.6 366.6C277.5 366.8 276.5 366.1 276.3 365C276.1 363.9 276.8 362.9 277.9 362.7C310 356.7 339.5 364.4 340.8 364.7C341.9 365 342.5 366.1 342.2 367.1C341.9 368.1 341.1 368.7 340.2 368.7Z" fill="black"/>
<path d="M335.2 383.7C335.1 383.7 335 383.7 334.9 383.7C303.7 378.5 287.3 379.9 276.6 381.7C275.5 381.9 274.5 381.1 274.3 380.1C274.1 379 274.9 378 275.9 377.8C287 376 303.8 374.5 335.6 379.8C336.7 380 337.4 381 337.2 382.1C337 383 336.2 383.7 335.2 383.7Z" fill="black"/>
<path d="M210.9 52.0999C210.4 52.0999 209.9 51.8999 209.5 51.4999L174 14.7999L138.5 51.4999C137.7 52.2999 136.5 52.2999 135.7 51.4999C134.9 50.6999 134.9 49.4999 135.7 48.6999L172.6 10.4999C173.4 9.6999 174.7 9.6999 175.5 10.4999L212.4 48.6999C213.2 49.4999 213.1 50.7999 212.4 51.4999C211.9 51.8999 211.4 52.0999 210.9 52.0999Z" fill="black"/>
<path d="M260 47.3999H87.8999V238.7H260V47.3999Z" fill="white"/>
<path d="M260 240.7H87.8999C86.7999 240.7 85.8999 239.8 85.8999 238.7V47.3999C85.8999 46.2999 86.7999 45.3999 87.8999 45.3999H260C261.1 45.3999 262 46.2999 262 47.3999V238.7C262 239.8 261.1 240.7 260 240.7ZM89.8999 236.7H258V49.3999H89.8999V236.7Z" fill="black"/>
<path d="M219.9 89.5998C219.4 89.5998 218.9 89.3998 218.5 88.9998C217.7 88.1998 217.7 86.9998 218.5 86.1998L255.8 48.8998C256.6 48.0998 257.8 48.0998 258.6 48.8998C259.4 49.6998 259.4 50.8998 258.6 51.6998L221.3 88.9998C220.9 89.3998 220.4 89.5998 219.9 89.5998Z" fill="black"/>
<path d="M128.1 89.5998C127.6 89.5998 127.1 89.3998 126.7 88.9998L89.3998 51.6998C88.5998 50.8998 88.5998 49.6998 89.3998 48.8998C90.1998 48.0998 91.3998 48.0998 92.1998 48.8998L129.5 86.1998C130.3 86.9998 130.3 88.1998 129.5 88.9998C129.1 89.3998 128.6 89.5998 128.1 89.5998Z" fill="black"/>
<path d="M174 27.3998C180.793 27.3998 186.3 21.8929 186.3 15.0998C186.3 8.30672 180.793 2.7998 174 2.7998C167.207 2.7998 161.7 8.30672 161.7 15.0998C161.7 21.8929 167.207 27.3998 174 27.3998Z" fill="white"/>
<path d="M174 29.3998C166.1 29.3998 159.7 22.9998 159.7 15.0998C159.7 7.19982 166.1 0.799805 174 0.799805C181.9 0.799805 188.3 7.19982 188.3 15.0998C188.3 22.9998 181.9 29.3998 174 29.3998ZM174 4.7998C168.3 4.7998 163.7 9.39982 163.7 15.0998C163.7 20.7998 168.3 25.3998 174 25.3998C179.7 25.3998 184.3 20.7998 184.3 15.0998C184.3 9.39982 179.7 4.7998 174 4.7998Z" fill="black"/>
<path d="M90.7998 237.8C90.2998 237.8 89.7998 237.6 89.3998 237.2C88.5998 236.4 88.5998 235.2 89.3998 234.4L126.7 197.1C127.5 196.3 128.7 196.3 129.5 197.1C130.3 197.9 130.3 199.1 129.5 199.9L92.1998 237.2C91.7998 237.6 91.2998 237.8 90.7998 237.8Z" fill="black"/>
<path d="M257.2 237.8C256.7 237.8 256.2 237.6 255.8 237.2L218.5 199.9C217.7 199.1 217.7 197.9 218.5 197.1C219.3 196.3 220.5 196.3 221.3 197.1L258.6 234.4C259.4 235.2 259.4 236.4 258.6 237.2C258.2 237.6 257.7 237.8 257.2 237.8Z" fill="black"/>
<path d="M219.8 87.6997H128.2V198.5H219.8V87.6997Z" fill="white"/>
<path d="M217.8 89.6997V196.5H130.2V89.6997H217.8ZM221.8 85.6997H126.2V200.5H221.8V85.6997Z" fill="black"/>
</svg>
