<svg width="687" height="483" viewBox="0 0 687 483" fill="none" xmlns="http://www.w3.org/2000/svg">
<path d="M570 278C568.9 277.1 567.6 276.2 566.3 275.5C546.5 264.6 373.1 185.3 371.3 184.5L371 184.4L388 347.8C411.2 373.7 444.4 403.8 476.6 428.1L477 428.2L477.2 428C479.1 426.1 496.6 408.1 506.5 383.8C511.7 370.9 515.7 356.9 519.2 344.6C523.8 328.4 527.8 314.4 533.3 306C546.6 284.1 562.1 278 570 278Z" fill="#6C79D9"/>
<path d="M384.9 332.6L385 332.4C392.8 327.2 401.3 322.9 410 319.5C417.7 316.5 424.7 315 430.7 315C441 315 445.1 319.3 445.2 319.5C447.2 325 446.8 330.6 444 336.1C433.1 357.7 388.5 371.7 388.1 371.9L387.9 372C387.9 372 385.1 360.1 384.9 332.6Z" fill="black"/>
<path d="M565 339.8C564.9 339.7 554.7 330.5 533 305.8L532.9 305.7L533 305.6C533.1 305.5 541.2 292.6 550 285.6C559.1 278.3 567.8 278 569.5 278C569.7 278 569.8 278 569.8 278H570C590.9 295.1 565.6 339.4 565.4 339.8L565.3 340L565 339.8Z" fill="black"/>
<path d="M225.9 154.7H275.9L288.9 57.7002H212.9L225.9 154.7Z" fill="#F9494B"/>
<path d="M250.9 86.7002C271.887 86.7002 288.9 73.2687 288.9 56.7002C288.9 40.1317 271.887 26.7002 250.9 26.7002C229.913 26.7002 212.9 40.1317 212.9 56.7002C212.9 73.2687 229.913 86.7002 250.9 86.7002Z" fill="#F696BB"/>
<path d="M250.9 57.7002C249.8 57.7002 248.9 56.8002 248.9 55.7002V2.7002C248.9 1.6002 249.8 0.700195 250.9 0.700195C252 0.700195 252.9 1.6002 252.9 2.7002V55.7002C252.9 56.8002 252 57.7002 250.9 57.7002Z" fill="black"/>
<path d="M275.8 156.1C273.4 156.1 271.5 155.2 270.6 153.4C269.6 151.5 270 149 271.6 146.8L272.8 145.2L271.1 144C271.1 144 267.7 141.6 267.7 138.4C267.7 136.4 269.1 134.3 271.8 132.2L274.7 130.1L271.4 128.8C271.4 128.8 267.7 127.3 267.2 124.3C266.7 121.8 268.5 118.6 272.3 115.1L274 113.5L272.2 112C272.2 112 268.5 109 268.5 105.2C268.5 103.1 269.7 101 272.2 99.1001C274.4 97.3001 282.4 92.7001 285.3 91.1001L286.1 90.6001L287.3 84.1001C290.3 85.6001 292.2 88.0001 293 91.2001C294.2 96.1001 292.3 101.4 290.6 103.2L288.7 105.1L291 106.4C291.1 106.4 293.3 107.8 294 110.7C294.8 113.7 293.8 117.3 291.2 121.6L290.2 123.2L291.7 124.3C291.7 124.3 294 126.1 294.4 129.2C294.7 131.7 293.7 134.5 291.3 137.4L290.3 138.6L291.3 139.8C291.4 139.9 293.1 142.2 292.3 145.3C291.4 148.8 287.5 152 281.1 154.7C279.2 155.7 277.4 156.1 275.8 156.1Z" fill="white"/>
<path d="M288.7 87.7003C289.8 88.8003 290.6 90.2002 291 91.8002C292 96.1002 290.3 100.6 289.1 101.9L285.4 105.6L290 108.2C290 108.2 291.5 109.2 292.1 111.2C292.7 113.6 291.9 116.9 289.6 120.6L287.5 123.7L290.6 125.8C290.8 125.9 291.9 126.9 292.3 128.5C293 130.7 292.2 133.3 289.9 136.1L287.7 138.6L289.9 141.1C290.1 141.4 291.1 142.9 290.6 144.9C289.8 147.7 286.3 150.5 280.5 152.9C278.8 153.6 277.2 154 275.9 154C274.9 154 273.2 153.8 272.5 152.4C271.9 151.2 272.2 149.5 273.3 147.9L275.7 144.6L272.4 142.3C271.7 141.8 269.8 140.1 269.8 138.3C269.8 136.6 271.6 134.9 273.1 133.7L278.8 129.4L272.1 126.8C271.7 126.6 269.4 125.4 269.1 123.8C268.8 122.1 270.4 119.4 273.6 116.4L277 113.3L273.4 110.4C272.6 109.7 270.4 107.4 270.4 105.2C270.4 103.7 271.4 102.2 273.3 100.6C275.2 99.1002 282.2 95.0002 286.1 92.8002L287.8 91.9003L288.1 90.0002L288.7 87.7003ZM285.7 81.5002L284.3 89.5002C284.3 89.5002 273.7 95.4003 270.9 97.7003C260.9 105.7 270.9 113.7 270.9 113.7C257.9 125.7 270.6 130.7 270.6 130.7C259.9 138.7 269.9 145.7 269.9 145.7C265.9 151.3 268.6 158.1 275.7 158.1C277.5 158.1 279.6 157.7 281.9 156.7C300.9 148.7 292.9 138.7 292.9 138.7C300.9 128.7 292.9 122.7 292.9 122.7C300.9 109.7 291.9 104.7 291.9 104.7C295.9 100.7 298.9 85.7002 285.7 81.5002Z" fill="black"/>
<path d="M274 115.7C273.2 115.7 272.4 115.2 272.1 114.3C271.8 113.3 272.3 112.1 273.4 111.8C273.5 111.8 283.1 108.6 288.1 103C288.8 102.2 290.1 102.1 290.9 102.9C291.7 103.6 291.8 104.9 291 105.7C285.2 112 275 115.4 274.5 115.5C274.4 115.7 274.2 115.7 274 115.7Z" fill="black"/>
<path d="M272.9 132.7C272 132.7 271.2 132.1 271 131.2C270.7 130.1 271.3 129 272.4 128.7C276.1 127.6 286.4 124.1 289.4 120.4C290.1 119.5 291.4 119.4 292.2 120.1C293.1 120.8 293.2 122 292.5 122.9C288.2 128.2 275 132.1 273.5 132.6C273.3 132.7 273.1 132.7 272.9 132.7Z" fill="black"/>
<path d="M272.9 148C272 148 271.2 147.4 271 146.5C270.7 145.4 271.3 144.3 272.4 144C272.5 144 284.1 140.8 289.6 136.1C290.4 135.4 291.7 135.5 292.4 136.4C293.1 137.3 293 138.5 292.1 139.2C285.8 144.4 273.9 147.8 273.3 147.9C273.3 148 273.1 148 272.9 148Z" fill="black"/>
<path d="M513 453.6C501 445.9 488.8 437.3 476.6 428.2L476.4 428.1L476.7 427.8C478.7 425.8 496.1 407.9 505.9 383.7C511.1 370.9 515.1 356.9 518.6 344.6C523.3 328.3 527.3 314.1 532.9 305.7L533 305.5L533.2 305.7C554.9 330.4 565.1 339.6 565.2 339.7C565.5 340 591.7 364.6 638.1 364.6C659.3 364.6 671.3 369 677.6 372.6C684.5 376.6 686.2 380.5 686.3 380.7L686.4 380.8L608 446.3L607.9 446.2C595.7 436.4 580.3 431 564.6 431H564.4C545 431 526.3 439.2 513.3 453.6L513.2 453.7L513 453.6Z" fill="#98D8F4"/>
<path d="M564.7 482.2C546.9 473.9 529.5 464.3 513 453.6L512.8 453.5L513 453.3C526.2 438.8 545 430.5 564.5 430.5C580.3 430.5 595.8 435.9 608.1 445.8L608.3 446L564.9 482.3L564.7 482.2Z" fill="#6C79D9"/>
<path d="M348.4 482.2C340.2 452 312.7 431 281.5 430.9C279.5 430.9 277.4 431 275.2 431.2H275.1L275 431C272.4 420.5 270.2 409.6 268.3 398.7V398.6L268.4 398.5C287.8 387.5 384.3 332.4 385.1 332.4H385.3V332.6C385.3 356.4 388.3 371.5 388.3 371.7C394.9 403.4 405.9 418.2 416.8 429.5C419.8 432.7 422.9 435.6 426.2 438.6C429.8 442 433.6 445.6 437.3 449.6C454.2 467.5 453.4 481.9 453.4 482.1V482.3H348.4V482.2Z" fill="#98D8F4"/>
<path d="M291.1 482.2C284.6 465.5 279.1 448.4 275 431.1L274.9 430.9H275.1C277.3 430.7 279.4 430.6 281.5 430.6C312.9 430.6 340.5 451.8 348.8 482L348.9 482.3H291.1V482.2Z" fill="#6C79D9"/>
<path d="M147.9 305.7C127.3 305.7 110.2 293.2 95.7997 267.4C81.7997 242.4 72.3997 208.2 65.7997 181.2C63.9997 173.7 64.3997 168.1 67.1997 164.6C69.7997 161.3 74.6997 159.6 81.6997 159.6C106.8 159.6 149.6 181.2 150 181.5L151.7 182.3L152.7 180.7C166.2 158.1 185.1 132.2 203.2 111.2C224.1 87.1003 236 78.5002 239.9 78.5002C240.1 78.5002 240.2 78.5002 240.3 78.6002C241.4 79.0002 242.1 79.7003 242.5 80.7003C243.6 83.8003 242.1 89.9002 238.3 97.8002C235.3 104.2 231.8 109.5 231.8 109.6L231.4 110.3L231.5 111.1C231.5 111.3 234.7 131.4 223.4 145.5L222.9 146.2L224.2 156.8H265.1C257.3 177 206.1 305.7 147.9 305.7Z" fill="white"/>
<path d="M239.8 80.5002C240.2 80.7002 240.4 80.9002 240.6 81.3002C242.3 86.1002 235.3 100.3 230.1 108.4L229.3 109.7L229.5 111.2C229.5 111.4 232.5 130.7 221.8 144L220.7 145.3L220.9 147L221.9 155L222.3 158.5H225.8H262C257.4 170.3 245.4 199.9 228.6 229.1C209.2 263 179.4 303.5 147.7 303.5C127.8 303.5 111.4 291.3 97.3998 266.2C83.4998 241.4 74.1997 207.4 67.5997 180.5C65.8997 173.6 66.1997 168.6 68.5997 165.6C70.7997 162.8 75.1997 161.4 81.4997 161.4C106.1 161.4 148.5 182.8 148.9 183L152.2 184.7L154.1 181.5C167.6 159 186.4 133.1 204.4 112.3C224.8 89.3002 236.7 80.7002 239.8 80.5002ZM239.9 76.5002C227.5 76.5002 180 131.1 150.9 179.7C150.9 179.7 107.6 157.6 81.6998 157.6C68.1998 157.6 59.4998 163.6 63.8998 181.7C79.3998 244.8 100.9 307.7 147.9 307.7C212.9 307.7 267.9 154.7 267.9 154.7H225.9L224.9 146.7C236.9 131.7 233.4 110.7 233.4 110.7C233.4 110.7 252.9 80.7003 240.9 76.7003C240.6 76.6003 240.3 76.5002 239.9 76.5002Z" fill="black"/>
<path d="M70 104C57.8 104 48 94.1002 48 82.0002C48 69.8002 57.9 60.0002 70 60.0002C82.2 60.0002 92 69.9002 92 82.0002C92 94.2002 82.1 104 70 104Z" fill="white"/>
<path d="M70 62.0002C81.1 62.0002 90 71.0002 90 82.0002C90 93.0002 81 102 70 102C59 102 50 93.0002 50 82.0002C50 71.0002 58.9 62.0002 70 62.0002ZM70 58.0002C56.7 58.0002 46 68.8002 46 82.0002C46 95.2002 56.8 106 70 106C83.2 106 94 95.2002 94 82.0002C94 68.8002 83.3 58.0002 70 58.0002Z" fill="black"/>
<path d="M113.4 129.3C99.0996 129.3 88.3996 118.5 84.1996 99.5999C72.7996 48.8999 83.8996 32.3999 105.4 22.1999C105.5 22.1999 118.4 16.3999 134 16.3999C146.1 16.3999 156.4 19.7999 164.7 26.3999C178.5 37.3999 175.6 67.7999 157.9 96.9999C145.9 116.9 128.8 129.3 113.4 129.3Z" fill="white"/>
<path d="M134 18.5C145.6 18.5 155.5 21.7 163.5 28.1C169.5 32.9 172.2 42.1 171.2 54.1C170.1 67 164.8 81.9 156.3 96.1C144.7 115.4 128.2 127.3 113.4 127.3C99.8996 127.3 90.1996 117.3 86.1996 99.2C75.0996 49.8 85.5996 33.8 106.3 24.1C106.8 23.8 119.1 18.5 134 18.5ZM134 14.5C117.8 14.5 104.6 20.5 104.6 20.5C80.4996 31.8 71.2996 51.2 82.2996 100.1C87.0996 121.5 99.2996 131.3 113.5 131.3C129.1 131.3 146.9 119.4 159.8 98.2C178.3 67.6 180.5 36.6 166.1 25C155.9 16.9 144.3 14.5 134 14.5Z" fill="black"/>
<path d="M139.9 90.5001C139 90.5001 138.2 89.9001 138 89.0001C137.7 87.9001 138.4 86.8001 139.5 86.6001C140.8 86.3001 142 85.5002 142.9 84.4002C144.4 82.6002 145.4 77.8001 146.3 68.3001C146.4 67.2001 147.4 66.4001 148.5 66.5001C149.6 66.6001 150.4 67.6002 150.3 68.7002C149.2 79.5002 148.1 84.4001 146 87.0001C144.5 88.8001 142.5 90.0001 140.4 90.5001C140.2 90.5001 140.1 90.5001 139.9 90.5001Z" fill="black"/>
<path d="M131 73.0002C130.9 73.0002 130.7 73.0002 130.6 73.0002C129.5 72.8002 128.8 71.7002 129.1 70.6002L129.6 68.2003C129.8 67.1003 130.9 66.4002 132 66.6002C133.1 66.8002 133.8 67.9002 133.5 69.0002L133 71.4003C132.8 72.4003 131.9 73.0002 131 73.0002Z" fill="black"/>
<path d="M159.3 73.0003C159.1 73.0003 159 73.0003 158.8 72.9003C157.7 72.6003 157.1 71.6003 157.3 70.5003L157.9 68.0003C158.2 66.9003 159.2 66.3003 160.3 66.5003C161.4 66.8003 162 67.8003 161.8 68.9003L161.2 71.4003C161 72.4003 160.2 73.0003 159.3 73.0003Z" fill="black"/>
<path d="M130.9 101.4C130.3 101.4 129.7 101.4 129 101.3C123.5 100.3 119.8 95.0002 120.8 89.5002C121 88.4002 122 87.7003 123.1 87.9003C124.2 88.1003 124.9 89.1003 124.7 90.2003C124.4 91.8003 124.8 93.4002 125.7 94.8002C126.7 96.2002 128.1 97.1003 129.7 97.4003C130 97.5003 130.4 97.5002 130.8 97.5002C131.9 97.5002 132.8 98.4002 132.8 99.5002C132.8 100.6 132 101.4 130.9 101.4Z" fill="black"/>
<path d="M67.5997 84.7003C66.5997 84.7003 65.6997 83.9003 65.5997 82.9003C65.4997 81.8003 66.2998 80.8003 67.3998 80.7003L79.1998 79.6002C80.2998 79.5002 81.2998 80.3003 81.3998 81.4003C81.4998 82.5003 80.6997 83.5002 79.5997 83.6002L67.7998 84.7003C67.6998 84.7003 67.6997 84.7003 67.5997 84.7003Z" fill="black"/>
<path d="M199.9 17.7C191.9 5.29999 166.3 3.89997 153.8 18C130.3 8.89997 104.5 20.4 104.5 20.4C81.8996 31.1 72.2997 48.8 80.3997 91.5C115 76.7 118 29.7 118 29.7C118 29.7 139 56.4 172.6 55.9C172.7 55.9 172.8 55.9 172.8 55.9C173.5 55.9 174.2 55.9 174.9 55.8V55.7C198.7 53.4 210.6 34.2 199.9 17.7Z" fill="black"/>
<path d="M94.0997 481.9C83.0997 481.9 45.1998 479.3 21.1998 446.1C8.69975 428.9 1.89977 406.1 0.899765 378.3C-0.300235 345.5 6.79976 305.6 21.8998 259.6V259.5H143.9C145.3 257.7 169.8 225.1 203.5 193.1C235.3 162.7 282.1 126.5 324 126.5C346.2 126.5 367.2 139.4 376.2 158.6C415.2 241.9 438.4 300.4 445.2 319.6C445.2 319.6 425.9 306.3 384.8 333C369.9 342.5 360.3 350 351 357.1C341.6 364.4 332.8 371.2 319.1 379.9C292.4 396.7 268.6 398.9 268.4 398.9H268.2V398.7C262.9 367.7 262 344.1 261.8 339.5C231 401 199.6 441.4 166.1 462.9C138.7 480.4 115.5 481.9 94.0997 481.9Z" fill="#6C79D9"/>
<path d="M262.3 340.7C261.2 340.7 260.4 339.9 260.3 338.8C258.3 293.1 266.2 241.2 266.3 240.7C266.5 239.6 267.5 238.9 268.6 239C269.7 239.2 270.4 240.2 270.3 241.3C270.2 241.8 262.4 293.3 264.3 338.6C264.3 339.7 263.5 340.7 262.3 340.7Z" fill="black"/>
<path d="M113.9 308.7C113.6 308.7 113.2 308.6 112.9 308.4C112 307.8 111.6 306.6 112.2 305.7C121.8 289.6 132.4 273.3 142.7 258.6C143.3 257.7 144.6 257.5 145.5 258.1C146.4 258.7 146.6 260 146 260.9C135.8 275.5 125.3 291.7 115.7 307.8C115.2 308.4 114.6 308.7 113.9 308.7Z" fill="black"/>
<path d="M444.8 321.4C444 321.4 443.2 320.9 442.9 320.1C435.3 298.8 416.199 252 390.599 195.4C390.099 194.4 390.599 193.2 391.599 192.8C392.599 192.3 393.799 192.8 394.199 193.8C419.899 250.6 439.099 297.5 446.699 318.9C447.099 319.9 446.499 321.1 445.499 321.5C445.199 321.4 445 321.4 444.8 321.4Z" fill="black"/>
<path d="M123.9 291.7H12.8999C11.7999 291.7 10.8999 290.8 10.8999 289.7C10.8999 288.6 11.7999 287.7 12.8999 287.7H123.9C125 287.7 125.9 288.6 125.9 289.7C125.9 290.8 125 291.7 123.9 291.7Z" fill="black"/>
<path d="M110.5 403C109.1 403 107.8 402.9 106.5 402.6C78.4998 397.3 83.7998 342.6 87.6998 302.7C88.1998 298 88.5998 293.6 88.8998 289.6C88.9998 288.5 89.8998 287.7 91.0998 287.8C92.1998 287.9 92.9998 288.9 92.8998 290C92.5998 294 92.0998 298.5 91.6998 303.2C88.1998 339.4 82.8998 394.2 107.3 398.8C108.4 399 109.5 399.1 110.6 399.1C139.9 399.1 182.3 331.5 210.7 286.2C217.1 276 223.1 266.4 228.3 258.7C250.1 226 278.1 188.8 301.2 191.4C311.1 192.5 319 200.8 324.8 216.1C332.7 236.9 365.5 345.1 365.8 346.2C366.1 347.3 365.5 348.4 364.5 348.7C363.4 349 362.3 348.4 362 347.4C361.7 346.3 328.9 238.2 321 217.5C315.8 203.8 308.9 196.3 300.7 195.4C279.5 193 251.1 231.6 231.6 260.9C226.5 268.6 220.5 278.2 214.1 288.3C183.5 337 142.1 403 110.5 403Z" fill="black"/>
<path d="M517.899 348.7C517.499 348.7 517.099 348.6 516.699 348.3L431.699 288.3C430.799 287.7 430.599 286.4 431.199 285.5C431.799 284.6 433.099 284.4 433.999 285L518.999 345C519.899 345.6 520.099 346.9 519.499 347.8C519.099 348.4 518.499 348.7 517.899 348.7Z" fill="black"/>
<path d="M204.2 312.7C178 312.7 156.7 298 143.5 285.7C129.1 272.3 120.8 258.8 120.8 258.7C113.7 247.7 107.7 236.1 102.8 224L92.6001 198.9L165.4 170.2L178.2 185.7C190.1 207.8 197.2 222.5 197.3 222.7L198.1 224.5L199.9 223.7C200.7 223.3 283.3 186.6 325.6 174.8C341.6 170.3 357.4 168 371.1 168C391.5 168 404.1 173.3 404.1 181.9V183.2L405.3 183.7C405.3 183.7 409.5 185.7 410.6 189.3C411.2 191.3 410.8 193.5 409.4 195.8L408.5 197.3L409.9 198.4C410.7 199 417.1 204.4 411.7 211.5L410.9 212.6L411.6 213.8C411.6 213.8 414.1 218.1 412.4 221.7C411.2 224.3 407.9 226.1 402.8 226.9C398.8 227.6 395.3 227.8 392 228C380.3 228.7 369.2 229.4 337.1 248.2C325.7 254.8 314.8 262.6 304.1 270.2C276.2 290 247.3 310.5 208.4 312.8C207 312.6 205.6 312.7 204.2 312.7Z" fill="white"/>
<path d="M371.1 169.8C389.9 169.8 402.1 174.5 402.1 181.7V184.3L404.4 185.4C405.4 185.9 408 187.5 408.7 189.8C409.1 191.2 408.8 192.8 407.7 194.7L405.9 197.7L408.7 199.9C408.7 199.9 410.4 201.3 411.3 203.3C412.4 205.6 412 207.8 410.2 210.2L408.5 212.3L409.9 214.6C409.9 214.6 411.8 218.1 410.6 220.6C409.4 223.1 405.5 224.2 402.5 224.7C398.6 225.4 395.2 225.6 391.9 225.8C379.9 226.5 368.6 227.2 336.2 246.2C324.8 252.9 313.7 260.7 303.1 268.3C275.4 288 246.8 308.3 208.5 310.5C207.2 310.6 205.8 310.6 204.4 310.6C178.9 310.6 158.2 296.3 145.2 284.3C130.9 271.1 122.7 257.7 122.7 257.5V257.4V257.3C115.7 246.5 109.7 234.9 104.9 223L95.4 199.7L164.9 172.2L176.7 186.4C188.5 208.3 195.6 223 195.6 223.1L197.3 226.6L200.9 225C201.7 224.6 284.1 188 326.3 176.2C342 172.1 357.5 169.8 371.1 169.8ZM371.1 165.8C357.8 165.8 341.8 168 325.1 172.7C282.1 184.7 199.1 221.7 199.1 221.7C199.1 221.7 192 206.9 179.9 184.5L166 167.7L90 197.7L101 224.7C105.9 236.9 112 248.6 119.1 259.7C119.1 259.7 152.3 314.7 204.3 314.7C205.7 314.7 207.1 314.7 208.6 314.6C263 311.4 297.2 273.8 338.2 249.8C379.2 225.8 385.2 231.8 403.2 228.8C421.2 225.8 413.4 212.7 413.4 212.7C420.2 203.8 411.2 196.8 411.2 196.8C417.2 186.8 406.2 181.8 406.2 181.8C406.1 171.3 391.9 165.8 371.1 165.8Z" fill="black"/>
<path d="M22.0996 259.9C21.7996 259.8 -1.10037 252.5 0.89963 224.7C2.09963 208.5 20.2996 179.6 50.9996 145.6C80.0996 113.2 94.1996 110.5 106.1 110.5C130.1 110.5 145.3 122.9 166.3 159.6C171 167.8 175.6 176.1 180.1 184.4L180.2 184.6L101.3 224.8C106.2 236.9 112.1 248.6 119.2 259.6L119.4 259.9H22.0996Z" fill="#98D8F4"/>
<path d="M342.1 186.7C341.2 186.7 340.4 186.1 340.2 185.2C339.9 184.1 340.6 183 341.6 182.8C343 182.4 377.2 173.8 405.5 181.8C406.6 182.1 407.2 183.2 406.9 184.3C406.6 185.4 405.5 186 404.4 185.7C377.2 177.9 343 186.6 342.6 186.7C342.4 186.7 342.3 186.7 342.1 186.7Z" fill="black"/>
<path d="M346.9 201.7C346 201.7 345.2 201.1 345 200.2C344.7 199.1 345.4 198 346.4 197.8C347.6 197.5 377.2 189.8 409.3 195.8C410.4 196 411.1 197 410.9 198.1C410.7 199.2 409.6 199.9 408.6 199.7C377.4 193.9 347.8 201.6 347.5 201.7C347.2 201.7 347.1 201.7 346.9 201.7Z" fill="black"/>
<path d="M351.9 216.7C350.9 216.7 350.1 216 349.9 215C349.7 213.9 350.5 212.9 351.5 212.7C383.3 207.4 400.1 208.9 411.2 210.7C412.3 210.9 413 211.9 412.8 213C412.6 214.1 411.6 214.8 410.5 214.6C399.7 212.8 383.3 211.4 352.2 216.6C352.1 216.7 352 216.7 351.9 216.7Z" fill="black"/>
<path d="M310.6 269.8C309.8 269.8 309.1 269.3 308.8 268.6L276 189.8C275.6 188.8 276.1 187.6 277.1 187.2C278.1 186.8 279.3 187.3 279.7 188.3L312.5 267.1C312.9 268.1 312.4 269.3 311.4 269.7C311.1 269.8 310.9 269.8 310.6 269.8Z" fill="black"/>
<path d="M103.9 227.8C103.1 227.8 102.4 227.4 102.1 226.6C97.7997 217 91.9997 203.2 89.0997 195.4C88.6997 194.4 89.1997 193.2 90.2997 192.8C91.2997 192.4 92.4998 192.9 92.8998 194C95.7998 201.7 101.6 215.4 105.9 225C106.3 226 105.9 227.2 104.9 227.6C104.4 227.7 104.2 227.8 103.9 227.8Z" fill="black"/>
<path d="M293.9 248.7C305.498 248.7 314.9 239.298 314.9 227.7C314.9 216.102 305.498 206.7 293.9 206.7C282.302 206.7 272.9 216.102 272.9 227.7C272.9 239.298 282.302 248.7 293.9 248.7Z" fill="white"/>
<path d="M293.9 250.7C281.2 250.7 270.9 240.4 270.9 227.7C270.9 215 281.2 204.7 293.9 204.7C306.6 204.7 316.9 215 316.9 227.7C316.9 240.4 306.6 250.7 293.9 250.7ZM293.9 208.7C283.4 208.7 274.9 217.2 274.9 227.7C274.9 238.2 283.4 246.7 293.9 246.7C304.4 246.7 312.9 238.2 312.9 227.7C312.9 217.2 304.4 208.7 293.9 208.7Z" fill="black"/>
</svg>
