<svg width="498" height="578" viewBox="0 0 498 578" fill="none" xmlns="http://www.w3.org/2000/svg">
<path d="M123.2 342.2C123 342.2 119.3 341.9 114 337.5C109.1 333.5 101.8 325.1 95.1 308L95 307.8H95.3C95.4 307.8 110.2 306.3 123.3 304.4H123.5V304.6C123.5 304.8 127.5 321.1 127.5 330C127.4 342.1 123.3 342.2 123.2 342.2Z" fill="black"/>
<path d="M416 481C414.4 467.3 412.6 456 410.9 445.1C408.5 429.9 406.2 415.6 405 398V397.9L405.1 397.8C405.4 397.6 432.8 379.2 456.2 372.8C462.2 371.2 467.9 370.9 472.9 370.9C488.9 370.9 494.3 378.8 494.4 378.9C494.5 379 499.8 389 495.2 405.1C486.1 437 447.3 464.1 416.3 481.2L416 481.3V481Z" fill="black"/>
<path d="M326.6 575.2L337 446.4L339 415.9C346.1 409.9 390.1 373.1 396.3 368.5C396.8 368.2 397.2 368 397.5 368C400.1 368 403.2 380.4 403.4 398.1V398.2C404.6 415.9 406.9 430.2 409.3 445.4C411 456.3 412.8 467.6 414.4 481.3C418.6 516.6 419.2 544.8 416.5 575.3L326.6 575.2Z" fill="white"/>
<path d="M397.2 370.2C397.9 371.3 399.5 374.7 400.5 383.9C401.3 390.8 401.4 397.2 401.4 398V398.1V398.2C402.6 416 404.9 430.4 407.3 445.6C409 456.5 410.8 467.7 412.4 481.4C416.5 515.8 417.2 543.5 414.7 573.2H328.8L339 446.5L340.9 416.9C349.5 409.6 390.3 375.5 397.2 370.2ZM397.4 365.9C396.6 365.9 395.8 366.2 395 366.8C388.2 371.9 337.5 414.4 337 414.8L336.9 414.9L334.9 446.2L324.4 577.2H418.3V577C421.1 545.7 420.5 517 416.3 481C414.7 467.3 412.9 456 411.2 445.1C408.8 429.9 406.5 415.6 405.3 398C405.4 396.7 404.9 365.9 397.4 365.9Z" fill="black"/>
<path d="M193 575.2C193.3 571.9 195.1 564.2 204.3 556.4C218.8 544.1 226.9 533.3 227.9 511.1C228.1 507.4 228.1 498.1 228 483.4L232.7 460.3L348.3 413.7L347.9 437.5V437.6C351 496.8 343 564.2 341.7 575.2H193Z" fill="white"/>
<path d="M346.3 416.7L345.9 437.4V437.5V437.6C348.9 494.1 341.7 558 339.9 573.1H195.4C196.2 569.5 198.6 563.7 205.6 557.8C220.2 545.5 228.9 533.8 229.9 511.1C230.1 507.4 230.1 498.1 230 483.5L234.4 461.7L346.3 416.7ZM350.4 410.7L231 458.9L226.1 483.2C226.2 498 226.2 507.3 226 511C225 532.4 217.2 542.9 203.1 554.9C190.2 565.8 191 577 191 577.1V577.3H343.5V577.1C343.6 576.4 353.4 502.3 350 437.5L350.4 410.7Z" fill="black"/>
<path d="M364.9 577.2V577C369.8 550 392.3 529.1 419.6 526.2H419.8V526.4C420.3 543.2 419.8 560.3 418.3 577.1V577.3H364.9V577.2Z" fill="#6C79D9"/>
<path d="M285 577.2V577C290.3 547.4 316.1 525.8 346.2 525.8C346.8 525.8 347.3 525.8 347.9 525.8H348.5V526C346.4 555.4 343.6 576.7 343.6 577V577.2H285Z" fill="#6C79D9"/>
<path d="M191 577.2V577C191 576.9 190.1 565.8 203.1 554.8C212.5 546.8 219.6 539.2 223.2 527.9L223.3 527.6L223.5 527.8C239.2 540.1 250.7 557.6 255.7 576.9L255.8 577.2H191Z" fill="#6C79D9"/>
<path d="M300.6 88.7001C325.066 88.7001 344.9 68.8663 344.9 44.4001C344.9 19.9339 325.066 0.100098 300.6 0.100098C276.134 0.100098 256.3 19.9339 256.3 44.4001C256.3 68.8663 276.134 88.7001 300.6 88.7001Z" fill="black"/>
<path d="M302.5 177.5C289.8 177.5 279.5 167.2 279.5 154.5C279.5 141.8 289.8 131.5 302.5 131.5C315.2 131.5 325.5 141.8 325.5 154.5C325.5 167.2 315.2 177.5 302.5 177.5Z" fill="white"/>
<path d="M302.5 133.6C314.1 133.6 323.5 143 323.5 154.6C323.5 166.2 314.1 175.6 302.5 175.6C290.9 175.6 281.5 166.2 281.5 154.6C281.5 143 290.9 133.6 302.5 133.6ZM302.5 129.6C288.7 129.6 277.5 140.8 277.5 154.6C277.5 168.4 288.7 179.6 302.5 179.6C316.3 179.6 327.5 168.4 327.5 154.6C327.5 140.8 316.3 129.6 302.5 129.6Z" fill="black"/>
<path d="M306.5 159.3C306.3 159.3 306.1 159.3 305.9 159.2L289 153.9C287.9 153.6 287.4 152.4 287.7 151.4C288 150.3 289.2 149.8 290.2 150.1L307.1 155.4C308.2 155.7 308.7 156.9 308.4 157.9C308.1 158.8 307.4 159.3 306.5 159.3Z" fill="black"/>
<path d="M256.4 188C239.1 188 221.6 170.8 213 145.2C201.9 112 205.7 81 222 73.1C228.3 70 235.1 68.5 242.4 68.5C263.8 68.5 282.1 82 282.3 82.1C293.5 90.8 299 100 300.1 111.8C301.3 125 296.9 141.7 286.3 164.2C279.1 179.5 268.5 188 256.4 188Z" fill="white"/>
<path d="M242.5 70.3999C262.9 70.3999 280.5 83.0999 281.2 83.5999C299.7 97.9999 306.7 116.3 284.5 163.3C277.6 177.9 267.6 186 256.4 186C239.9 186 223.3 169.3 214.9 144.5C209.5 128.4 207.5 112.3 209.3 99.0999C211 86.8999 215.8 78.1999 222.9 74.7999C229 71.8999 235.5 70.3999 242.5 70.3999ZM242.5 66.3999C235.6 66.3999 228.4 67.6999 221.2 71.1999C204.2 79.4999 199.5 111 211.2 145.8C220.4 173.2 238.8 190 256.5 190C268.5 190 280.1 182.3 288.2 165C310.1 118.6 305.2 97.0999 283.7 80.3999C283.6 80.3999 264.9 66.3999 242.5 66.3999Z" fill="black"/>
<path d="M283.6 80.4002C301.1 94.0002 307.7 110.7 297.7 141.5C297 143.6 296.3 145.7 295.5 147.9C265.8 132.5 264.9 85.3002 264.9 85.3002C235.3 106.3 204.9 103.6 204.9 103.6C206 87.9002 211.6 75.9002 221.2 71.2003C251.5 56.4002 283.6 80.4002 283.6 80.4002Z" fill="black"/>
<path d="M233 142.6C232.7 142.6 232.4 142.5 232.1 142.4C230.2 141.4 228.5 139.8 227.4 137.7C227.4 137.7 227.4 137.6 227.3 137.6C225.8 134.6 225.8 129 227.1 118.5C227.2 117.4 228.2 116.6 229.3 116.8C230.4 116.9 231.2 117.9 231 119C229.8 128.1 229.8 133.6 230.8 135.8C231.6 137.1 232.6 138.2 233.9 138.9C234.9 139.4 235.2 140.6 234.7 141.6C234.4 142.2 233.7 142.6 233 142.6Z" fill="black"/>
<path d="M245.9 127.1C244.8 127.1 243.9 126.2 243.9 125.1V122.5C243.9 121.4 244.8 120.5 245.9 120.5C247 120.5 247.9 121.4 247.9 122.5V125.1C247.9 126.2 247 127.1 245.9 127.1Z" fill="black"/>
<path d="M217.5 120.8C216.4 120.8 215.5 119.9 215.5 118.8V116.2C215.5 115.1 216.4 114.2 217.5 114.2C218.6 114.2 219.5 115.1 219.5 116.2V118.8C219.5 119.9 218.6 120.8 217.5 120.8Z" fill="black"/>
<path d="M241.5 155.7C241.3 155.7 241.2 155.7 241 155.7C240.5 155.7 239.9 155.6 239.4 155.5H239.2C238.1 155.3 237.4 154.3 237.6 153.2C237.8 152.1 238.8 151.4 239.9 151.6H240.2C240.6 151.7 240.9 151.7 241.2 151.7C244.8 151.9 247.7 149.1 247.9 145.6C247.9 144.5 248.9 143.6 250 143.7C251.1 143.7 252 144.7 251.9 145.8C251.6 151.3 247 155.7 241.5 155.7Z" fill="black"/>
<path d="M59.3999 308C36.5999 308 21.6999 304.9 17.1999 299.3C15.8999 297.6 15.4999 295.7 16.0999 293.5L16.5999 291.4L14.4999 291C13.5999 290.8 5.49985 289 7.09985 280.3L7.29987 278.9L6.09985 278.2C6.09985 278.2 2.09985 275.7 2.09985 271.9C2.09985 270.9 2.49988 268.4 5.99988 266.7L8.69989 265.3L6.3999 263.3C6.3999 263.3 3.69985 260.9 4.09985 258.1C4.79985 253.5 9.39985 251.8 21.0999 251.8H42.0999L36.1999 248.1C33.5999 246.5 32.3999 244.5 32.7999 242.2C33.1999 239.3 35.9999 236.7 39.6999 235.7C45.8999 234 53.1999 232.7 63.3999 231C72.3999 229.5 83.6999 227.6 98.2999 224.7L121.7 221.8C127.6 225.4 176.4 255.8 182 284.1C177.3 287 148.6 295.5 122.8 302.3C109.7 304.2 95.0999 305.6 94.9999 305.7C94.7999 306 77.5999 308 59.3999 308Z" fill="white"/>
<path d="M121.3 224.1C129 228.8 173.2 257 179.8 283.3C172.7 286.5 146.4 294.3 122.5 300.6C109.5 302.5 95 303.9 94.9 303.9C94.7 303.9 77.6999 305.8 59.5999 305.8C49.2999 305.8 24.5999 305 18.9999 297.9C18.0999 296.7 17.8 295.4 18.2 293.8L19.2 289.7L14.9999 288.9C14.9999 288.9 12.9 288.5 11.2 287.1C9.29995 285.6 8.59991 283.5 9.09991 280.5L9.59991 277.8L7.19995 276.4C7.19995 276.4 4.09991 274.4 4.09991 271.8C4.09991 271.2 4.39996 269.6 6.89996 268.4L12.2999 265.7L7.69995 261.8C7.39995 261.5 5.89991 259.9 6.09991 258.4C6.49991 255.7 9.19991 253.8 21.0999 253.8H35.0999H48.9999L37.2 246.4C35.9 245.6 34.4 244.3 34.7 242.5C34.9 240.8 36.8 238.6 40.2 237.6C46.3 235.9 53.6 234.7 63.7 233C72.7 231.5 83.9999 229.6 98.5999 226.7L121.3 224.1ZM122.2 220L97.9999 223C66.7999 229.3 51.2 230.7 39.2 234C31 236.3 27.2 245 35.2 250H21.2C11.2 250 3.19995 251 2.19995 258C1.59995 262 5.19995 265 5.19995 265C1.19995 267 0.199951 270 0.199951 272C0.199951 277 5.19995 280 5.19995 280C3.19995 291 14.2 293 14.2 293C10.9 306.9 36.2 310 59.4 310C78 310 95.1999 308 95.1999 308C95.1999 308 110 306.5 123.2 304.6C123.2 304.6 184.7 288.3 184.2 285C179 253.5 122.2 220 122.2 220Z" fill="black"/>
<path d="M226.1 483.2C225.7 426.1 223.2 308.8 223 301.4C220.8 302.8 207.3 311.3 189.4 320.2C171.5 329.1 145.4 340.2 123.2 342.2C123 342.2 130.9 341.2 123 304.5C112.1 257.6 98 223.4 97.8 223.1L97.7 222.9H97.9C115.5 219.4 133.1 214.7 150.1 208.9C171.8 201.5 189.6 190.6 205.3 181C226.4 168.1 244.6 156.9 266.2 156.9C301.4 156.9 325.1 176.7 354.4 211C394.8 258.4 493.3 377.2 494.4 378.8C493.2 378.1 478.3 354.3 405.1 398.5C397.3 403.7 390 409.2 382.4 414.9C363.6 429 344.2 443.5 312.4 458.3C265 480.4 226.8 483.5 226.4 483.5H226.2L226.1 483.2Z" fill="#6C79D9"/>
<path d="M52.1999 270C37.2999 269.9 22.3998 268.9 7.59983 267C6.49983 266.9 5.69988 265.9 5.89988 264.8C5.99988 263.7 6.99983 262.9 8.09983 263.1C22.5998 265 37.4999 266 52.1999 266.1C53.2999 266.1 54.1999 267 54.1999 268.1C54.1999 269.1 53.2999 270 52.1999 270Z" fill="black"/>
<path d="M51.1999 284C36.6999 284 22.1999 283 7.89994 281C6.79994 280.8 5.99993 279.8 6.19993 278.7C6.39993 277.6 7.39992 276.8 8.49992 277C23.1999 279.1 38.2999 280.1 53.1999 280C54.2999 280 55.1999 280.9 55.1999 282C55.1999 283.1 54.2999 284 53.1999 284C52.4999 284 51.8999 284 51.1999 284Z" fill="black"/>
<path d="M54.1998 297C37.6998 296.4 25.0998 294.9 17.5998 294.1L16.9998 294C15.8998 293.9 15.0998 292.9 15.1998 291.8C15.2998 290.7 16.2999 289.9 17.3999 290L17.9998 290.1C25.8998 291 37.8998 292.4 54.1998 293C55.2998 293 56.1998 294 56.0998 295.1C56.1998 296.2 55.2998 297 54.1998 297Z" fill="black"/>
<path d="M48.8999 254.2C42.3999 254.2 40.1998 254 39.9998 254C38.8998 253.9 38.0998 252.9 38.1998 251.8C38.2998 250.7 39.1999 249.9 40.3999 250C40.4999 250 45.5998 250.4 62.1998 250C63.2998 250 64.1998 250.9 64.1998 252C64.1998 253.1 63.3998 254 62.1998 254C56.4998 254.1 52.1999 254.2 48.8999 254.2Z" fill="black"/>
<path d="M223.2 303C222.5 303 221.9 302.7 221.5 302.1C220.9 301.2 221.2 299.9 222.1 299.3C245.7 284.5 259.8 273.5 259.9 273.4C260.8 272.7 262 272.9 262.7 273.7C263.4 274.5 263.2 275.8 262.4 276.5C262.3 276.6 248 287.7 224.2 302.6C223.9 302.9 223.6 303 223.2 303Z" fill="black"/>
<path d="M195.7 316C195.2 316 194.6 315.8 194.2 315.4C187.8 308.6 169 309.6 162.3 310.6C161.3 310.8 160.3 310.1 160.1 309.1C159.9 308.1 160.4 307.1 161.4 306.7C178.2 300.8 192.4 288.7 195.2 277.8C196.5 272.8 195.3 268.2 191.8 264.3C188.5 260.6 184.6 258.8 179.8 258.8C179.8 258.8 179.8 258.8 179.7 258.8C163.7 258.8 144.9 279.1 144.7 279.3C144.1 279.9 143.2 280.1 142.5 279.8C141.7 279.5 141.2 278.7 141.3 277.9C141.8 261.8 137 249.7 128.5 245.5C122.5 242.5 115.2 244 108.6 249.5C107.7 250.2 106.5 250.1 105.8 249.2C105.1 248.3 105.2 247.1 106.1 246.4C114 239.9 122.9 238.2 130.3 241.9C139.5 246.4 144.8 257.6 145.3 273.1C151.8 266.9 166.2 254.8 179.7 254.8H179.8C185.7 254.8 190.7 257.1 194.8 261.6C199.2 266.5 200.7 272.5 199.1 278.8C196.6 288.6 186.6 298.8 173.4 305.8C173.4 305.8 173.4 305.8 173.5 305.8C181.7 305.8 192.1 307 197.3 312.6C198.1 313.4 198 314.7 197.2 315.4C196.7 315.8 196.2 316 195.7 316Z" fill="black"/>
<path d="M125.1 315.7C124.5 315.7 123.8 315.4 123.4 314.8C122.8 313.9 123 312.6 124 312C129.4 308.4 131.5 303.6 129.7 299.1C128.1 295.3 124.3 293.2 120.5 293.9C119.4 294.1 118.4 293.4 118.1 292.3C117.9 291.2 118.6 290.2 119.7 289.9C125.3 288.8 131.1 292 133.4 297.5C135.4 302.4 134.6 309.7 126.2 315.2C125.9 315.6 125.5 315.7 125.1 315.7Z" fill="black"/>
<path d="M271.2 476C270.8 476 270.5 475.9 270.1 475.7C258.4 468.4 252.4 456.6 249.8 450.1C246.5 455.5 239.2 463.7 226.1 463C225 462.9 224.2 462 224.2 460.9C224.3 459.8 225.2 459 226.3 459C242.5 459.9 248.1 445 248.3 444.3C248.6 443.5 249.4 442.9 250.3 443C251.2 443 251.9 443.6 252.1 444.5C252.1 444.7 257.1 462.9 272.2 472.3C273.1 472.9 273.4 474.1 272.8 475.1C272.5 475.7 271.9 476 271.2 476Z" fill="black"/>
<path d="M299.2 466C299.1 466 299 466 298.9 466C297.8 465.8 297 464.8 297.2 463.7C300 443.9 283.8 424.5 283.7 424.3C283.2 423.7 283.1 422.7 283.5 422C283.9 421.3 284.8 420.9 285.6 421C286 421.1 322.2 427.5 333.5 416C336.4 413.1 337.3 409.3 336.3 404.3C333.3 389.4 298.8 389.9 285.7 391.4C284.9 391.5 284 391 283.7 390.3C283.3 389.5 283.5 388.6 284.1 388C284.4 387.7 309.5 362.5 306.4 345C305.4 339.6 301.9 335.6 295.5 332.7C291 330.6 286.6 330.6 282.1 332.6C265.2 340 254.3 373.2 254.2 373.5C253.9 374.4 253 375 252 374.9C251 374.7 250.3 373.9 250.3 372.9C250.3 372.8 250.2 364.1 246.9 355.5C242.6 344.5 235 338.9 224.3 338.9C223.2 338.9 222.3 338 222.3 336.9C222.3 335.8 223.2 334.9 224.3 334.9C244.9 334.9 251.4 353.1 253.4 364.3C257.9 353.4 267.3 334.7 280.5 328.9C286 326.5 291.6 326.5 297.2 329C304.7 332.4 309.2 337.6 310.4 344.2C313.2 359.5 297.9 378.8 290.6 386.9C303.7 386.1 336.8 385.8 340.3 403.4C341.5 409.7 340.2 414.8 336.4 418.7C326.3 429 300.7 427 289.9 425.5C294.8 432.5 303.6 447.9 301.3 464.1C301 465.3 300.2 466 299.2 466Z" fill="black"/>
<path d="M250.4 422.6C249.7 422.6 249 422.5 248.3 422.4C241.3 421 237.4 413.2 237.7 406.5C238 399.9 242.1 395.3 248.4 394.7C256.4 393.9 259.9 397.8 261.3 400.2C264.1 405 263.4 412.2 259.8 417.3C257.5 420.7 254.1 422.6 250.4 422.6ZM248.9 398.6C242.7 399.2 241.8 404.4 241.7 406.6C241.5 411.6 244.4 417.5 249 418.4C252.9 419.1 255.4 416.5 256.6 414.9C259.3 411.1 259.9 405.6 257.9 402.1C256.3 399.4 253.2 398.2 248.9 398.6Z" fill="black"/>
<path d="M380.8 377.9C378 377.9 375.1 377.2 372.3 375.8C367 373.2 363.6 369 362.2 363.4C358.7 349.3 369.5 329.5 375.4 320C361.1 324.8 338.5 326.1 326 317.5C319 312.6 315.9 305.1 317.1 295.8C317.9 289.2 321.1 284 326.5 280.3C339 271.7 360.6 273.4 372.6 275.3C364.1 267.6 358.8 257.2 359.2 247.9C359.4 242.5 361.7 235 371.2 230.3C372.2 229.8 373.4 230.2 373.9 231.2C374.4 232.2 374 233.4 373 233.9C366.8 237 363.5 241.9 363.2 248.1C362.8 258.2 370.6 270.4 381.7 277.2C382.5 277.7 382.9 278.8 382.5 279.7C382.1 280.6 381.1 281.1 380.2 280.9C379.8 280.8 344.8 272.6 328.7 283.7C324.3 286.8 321.8 290.9 321 296.4C320 304.2 322.4 310.3 328.2 314.3C341.3 323.4 367.9 320.1 379.7 314C380.5 313.6 381.5 313.8 382.1 314.5C382.7 315.2 382.8 316.2 382.2 317C382 317.3 361.7 345.6 365.9 362.7C367 367.1 369.6 370.3 373.9 372.4C378.2 374.5 382.2 374.7 386.3 372.8C402.5 365.5 412 330 412.1 329.6C412.3 328.8 413 328.2 413.7 328.1C414.5 328 415.3 328.4 415.7 329C415.8 329.1 424.8 343.7 439.2 346.9C446.9 348.6 454.9 346.8 462.9 341.4C463.8 340.8 465.1 341 465.7 342C466.3 342.9 466.1 344.2 465.1 344.8C456.1 350.8 447.1 352.8 438.3 350.8C426.8 348.2 418.6 339.6 414.8 334.6C411.7 344.6 402.6 369.8 388 376.4C385.7 377.4 383.3 377.9 380.8 377.9Z" fill="black"/>
<path d="M291.6 255.6C287.8 255.6 284.3 254.5 281 252.3C270 244.9 264.9 227.2 263 218.9C256.8 226.9 241.1 245 227.2 245.8C222.3 246.1 218.1 244.3 214.6 240.4C202.8 227.3 220.6 203.5 227.8 194.9C222.4 194.3 212.7 192 203.1 183.6C202.3 182.9 202.2 181.6 202.9 180.8C203.6 180 204.9 179.9 205.7 180.6C218.5 191.9 231.7 191.1 231.8 191.1C232.6 191 233.4 191.5 233.7 192.2C234 192.9 233.9 193.8 233.4 194.4C233.3 194.5 226.2 202.2 220.7 211.6C215.9 219.8 211.4 231 217.4 237.7C220 240.7 223.1 242 226.8 241.8C242.4 240.9 262.1 213.2 262.3 212.9C262.8 212.2 263.6 211.9 264.4 212.1C265.2 212.3 265.8 212.9 265.9 213.7C265.9 214 270.2 240.3 283 248.9C286.8 251.4 290.9 252.1 295.4 251C299.4 250 302.2 247.9 303.8 244.4C310.4 230.4 296.2 201.1 296.1 200.8C295.7 200 295.9 199.1 296.5 198.5C297.1 197.9 298 197.7 298.8 198.1C299.1 198.2 326.4 210.2 337.3 193.8C337.9 192.9 339.2 192.6 340.1 193.2C341 193.8 341.3 195.1 340.7 196C330.8 210.9 310.9 206.5 301.8 203.5C305.7 212.7 313.3 233.8 307.5 246.1C305.4 250.7 301.6 253.6 296.4 254.9C294.9 255.3 293.2 255.6 291.6 255.6Z" fill="black"/>
<path d="M269.1 189.1C265.2 189.1 261.5 188.1 259.8 186.4C256.8 183.4 255.8 179.3 257 175.7C258.2 172.1 261.6 169.6 266 169C272.2 168.2 277.6 169.7 280.4 172.8C281.8 174.4 283.2 177.2 282.2 181.4C281.3 184.8 278.6 187.3 274.5 188.4C272.8 188.9 270.9 189.1 269.1 189.1ZM269.1 172.8C268.2 172.8 267.3 172.9 266.4 173C263.5 173.4 261.5 174.8 260.7 177C260 179.2 260.7 181.7 262.5 183.6C263.6 184.7 268.8 185.9 273.3 184.6C275.2 184.1 277.6 183 278.2 180.5C278.7 178.4 278.4 176.8 277.3 175.5C275.9 173.8 272.8 172.8 269.1 172.8Z" fill="black"/>
<path d="M418.4 305.6C415.4 305.6 413.2 304.7 411.7 303.9C406.9 301.3 403.8 295.8 403.9 290C404 284.8 406.7 280.5 411.2 278.2C412.2 277.7 413.4 278.1 413.9 279.1C414.4 280.1 414 281.3 413 281.8C408.6 284 407.9 288 407.9 290.1C407.8 294.3 410.1 298.5 413.6 300.4C417.5 302.5 422.4 301.8 427.6 298.3C428.5 297.7 429.8 297.9 430.4 298.9C431 299.8 430.8 301.1 429.8 301.7C425.4 304.6 421.5 305.6 418.4 305.6Z" fill="black"/>
</svg>
