<svg width="513" height="642" viewBox="0 0 513 642" fill="none" xmlns="http://www.w3.org/2000/svg">
<path d="M128.8 511.9H0.699951V640H128.8V511.9Z" fill="#98D8F4"/>
<path d="M512.5 511.9H384.4V640H512.5V511.9Z" fill="#F696BB"/>
<path d="M128.3 511.9V640H190.4C190.4 603.6 220 574.1 256.4 574.1C292.8 574.1 322.3 603.6 322.3 640H384.4V511.9H128.3Z" fill="#F9494B"/>
<path d="M191.7 383.9H63.5999V512H191.7V383.9Z" fill="#6C79D9"/>
<path d="M319.8 383.9H191.7V512H319.8V383.9Z" fill="#F696BB"/>
<path d="M319.8 128.1H191.7L255.7 0L319.8 128.1Z" fill="#F696BB"/>
<path d="M447.9 383.9H319.8V512H447.9V383.9Z" fill="#98D8F4"/>
<path d="M256.4 256.1H128.3V384.2H256.4V256.1Z" fill="#98D8F4"/>
<path d="M384.5 256.1H256.4V384.2H384.5V256.1Z" fill="#F696BB"/>
<path d="M319.8 128.1H191.7V256.2H319.8V128.1Z" fill="#F9494B"/>
<path d="M64.7999 609.6C44.9999 609.6 28.8999 593.5 28.8999 573.8C28.8999 572.7 29.7999 571.8 30.8999 571.8C31.9999 571.8 32.8999 572.6 32.8999 573.8C32.8999 591.4 47.1999 605.7 64.7999 605.7C82.2999 605.7 96.5999 591.4 96.5999 573.8C96.5999 572.7 97.4999 571.8 98.5999 571.8C99.6999 571.8 100.6 572.7 100.6 573.8C100.6 593.5 84.4999 609.6 64.7999 609.6Z" fill="black"/>
<path d="M45.5 565.9C44.4 565.9 43.5 565 43.5 563.9V558.9C43.5 557.8 44.4 556.9 45.5 556.9C46.6 556.9 47.5 557.8 47.5 558.9V563.9C47.5 565 46.6 565.9 45.5 565.9Z" fill="black"/>
<path d="M84 565.9C82.9 565.9 82 565 82 563.9V558.9C82 557.8 82.9 556.9 84 556.9C85.1 556.9 86 557.8 86 558.9V563.9C86 565 85.1 565.9 84 565.9Z" fill="black"/>
<path d="M447.8 513.9H63.5999C62.4999 513.9 61.5999 513 61.5999 511.9C61.5999 510.8 62.4999 509.9 63.5999 509.9H447.8C448.9 509.9 449.8 510.8 449.8 511.9C449.8 513 448.9 513.9 447.8 513.9Z" fill="black"/>
<path d="M128.4 642C127.3 642 126.4 641.1 126.4 640V511.8C126.4 510.7 127.3 509.8 128.4 509.8C129.5 509.8 130.4 510.7 130.4 511.8V640C130.4 641.1 129.5 642 128.4 642Z" fill="black"/>
<path d="M384.8 385.7H126.7C125.6 385.7 124.7 384.8 124.7 383.7C124.7 382.6 125.6 381.7 126.7 381.7H384.8C385.9 381.7 386.8 382.6 386.8 383.7C386.8 384.8 385.9 385.7 384.8 385.7Z" fill="black"/>
<path d="M319.8 258.5H191.7C190.6 258.5 189.7 257.6 189.7 256.5C189.7 255.4 190.6 254.5 191.7 254.5H319.8C320.9 254.5 321.8 255.4 321.8 256.5C321.8 257.6 320.9 258.5 319.8 258.5Z" fill="black"/>
<path d="M319.8 131.2H191.7C190.6 131.2 189.7 130.3 189.7 129.2C189.7 128.1 190.6 127.2 191.7 127.2H319.8C320.9 127.2 321.8 128.1 321.8 129.2C321.8 130.3 320.9 131.2 319.8 131.2Z" fill="black"/>
<path d="M384.8 642C383.7 642 382.8 641.1 382.8 640V511.8C382.8 510.7 383.7 509.8 384.8 509.8C385.9 509.8 386.8 510.7 386.8 511.8V640C386.8 641.1 385.9 642 384.8 642Z" fill="black"/>
<path d="M319.8 513.8C318.7 513.8 317.8 512.9 317.8 511.8V383.6C317.8 382.5 318.7 381.6 319.8 381.6C320.9 381.6 321.8 382.5 321.8 383.6V511.8C321.8 512.9 320.9 513.8 319.8 513.8Z" fill="black"/>
<path d="M256.6 385.6C255.5 385.6 254.6 384.7 254.6 383.6V256.4C254.6 255.3 255.5 254.4 256.6 254.4C257.7 254.4 258.6 255.3 258.6 256.4V383.6C258.6 384.7 257.7 385.6 256.6 385.6Z" fill="black"/>
<path d="M192.5 513.8C191.4 513.8 190.5 512.9 190.5 511.8V383.6C190.5 382.5 191.4 381.6 192.5 381.6C193.6 381.6 194.5 382.5 194.5 383.6V511.8C194.5 512.9 193.6 513.8 192.5 513.8Z" fill="black"/>
<path d="M189.3 353.6C183 353.6 176.2 351.8 169.2 348.1C168.2 347.6 167.8 346.4 168.4 345.4C169 344.4 170.1 344 171.1 344.6C192.4 355.8 203.9 345.4 206.9 341.9C213.3 334.6 214.1 323.9 208.8 316.4C203.8 309.5 196.5 307.1 187.1 309.5C179.7 311.4 173.8 315.5 173.7 315.5C173 316 172.2 316 171.5 315.6C170.8 315.2 170.5 314.4 170.6 313.6L174 291.4C174.1 290.4 175 289.7 176 289.7H207.1C208.2 289.7 209.1 290.6 209.1 291.7C209.1 292.8 208.2 293.7 207.1 293.7H177.7L175.2 309.9C185.2 304.3 202 300 212 314C218.4 323.1 217.6 335.6 209.8 344.4C204.6 350.5 197.4 353.6 189.3 353.6Z" fill="black"/>
<path d="M192.5 415.8C192 415.8 191.5 415.6 191.1 415.2C190.3 414.4 190.3 413.2 191.1 412.4L220.7 382.5C221.5 381.7 222.7 381.7 223.5 382.5C224.3 383.3 224.3 384.5 223.5 385.3L193.9 415.2C193.5 415.6 193 415.8 192.5 415.8Z" fill="black"/>
<path d="M192.5 465.3C192 465.3 191.5 465.1 191.1 464.7C190.3 463.9 190.3 462.7 191.1 461.9L269.8 382.5C270.6 381.7 271.8 381.7 272.6 382.5C273.4 383.3 273.4 384.5 272.6 385.3L193.9 464.7C193.5 465.1 193 465.3 192.5 465.3Z" fill="black"/>
<path d="M193.2 514.1C192.7 514.1 192.2 513.9 191.8 513.5C191 512.7 191 511.5 191.8 510.7L317.6 383.1C318.4 382.3 319.6 382.3 320.4 383.1C321.2 383.9 321.2 385.1 320.4 385.9L194.6 513.5C194.2 513.9 193.7 514.1 193.2 514.1Z" fill="black"/>
<path d="M242.2 514.1C241.7 514.1 241.2 513.9 240.8 513.5C240 512.7 240 511.5 240.8 510.7L317.9 432.8C318.7 432 319.9 432 320.7 432.8C321.5 433.6 321.5 434.8 320.7 435.6L243.6 513.5C243.2 513.9 242.7 514.1 242.2 514.1Z" fill="black"/>
<path d="M291.2 514.1C290.7 514.1 290.2 513.9 289.8 513.5C289 512.7 289 511.5 289.8 510.7L317.9 482.3C318.7 481.5 319.9 481.5 320.7 482.3C321.5 483.1 321.5 484.3 320.7 485.1L292.6 513.5C292.2 513.9 291.7 514.1 291.2 514.1Z" fill="black"/>
<path d="M272.1 238.4C271.5 238.4 270.9 238.1 270.6 237.7L248.5 210.9L225.5 228.2C224.8 228.7 223.8 228.7 223.1 228.2C222.4 227.7 222.1 226.8 222.4 225.9L232.1 198L210.4 181C209.7 180.5 209.5 179.6 209.7 178.8C210 178 210.7 177.4 211.6 177.4L237.5 176.8L241 148.3C241.1 147.4 241.8 146.7 242.7 146.6C243.6 146.5 244.4 146.9 244.8 147.7L257.1 172.9L279.9 153.7C280.6 153.1 281.6 153.1 282.3 153.6C283 154.1 283.4 155 283.1 155.9L273.3 184.8L300.7 193.9C301.6 194.2 302.1 195 302.1 195.9C302.1 196.8 301.4 197.6 300.5 197.8L269.6 204.9L274.2 236.2C274.3 237.1 273.9 238 273 238.3C272.6 238.3 272.4 238.4 272.1 238.4ZM248.8 206.1C249.4 206.1 250 206.3 250.3 206.8L269 229.5L265.2 203.5C265 202.5 265.7 201.5 266.7 201.3L292.4 195.4L270 188C269.5 187.8 269.1 187.5 268.8 187C268.6 186.5 268.5 186 268.7 185.5L276.9 161.5L257.6 177.7C257.1 178.1 256.5 178.3 255.9 178.1C255.3 178 254.8 177.6 254.5 177L244.1 155.6L241.2 179.1C241.1 180.1 240.3 180.8 239.3 180.9L217.3 181.4L235.8 195.7C236.5 196.2 236.7 197.1 236.5 197.9L228.5 221L247.8 206.5C248 206.2 248.4 206.1 248.8 206.1Z" fill="black"/>
</svg>
