<svg width="682" height="700" viewBox="0 0 682 700" fill="none" xmlns="http://www.w3.org/2000/svg">
<path d="M208.1 512.2C197.2 508.3 161.5 500.3 161.1 500.2L160.9 500.1L161 499.9C174.2 467.8 192.7 459.2 201.5 459.2C202.9 459.2 204.1 459.4 205.2 459.7C205.5 459.9 212.3 464 213.3 479.9C214.3 495.8 208.3 511.8 208.3 512L208.2 512.2H208.1Z" fill="black"/>
<path d="M334.2 620.2C312.5 620.2 287 619.8 259.9 619.3C235.2 618.9 209.6 618.5 186.4 618.4H186.3L186.2 618.3C186.2 618.3 183.9 615.4 181.9 609.5C180.1 604.1 178.4 594.9 179.9 581.9C181.6 568.1 187.3 557.1 193.4 545.4C198.5 535.6 204.3 525.1 208.4 511.8C219.7 467.3 205.2 459.7 205.2 459.7C213.7 462.5 282.7 505.1 289.7 509.4C287.3 504 270.2 463.8 273 424.9V424.7C273 424.5 276.1 400.8 283 391.8L283.1 391.7H283.2C283.3 391.7 283.4 391.7 283.5 391.7C286.6 391.7 295.6 385.5 305.1 378.9C316.7 370.8 328.8 362.5 334 362.5C334.5 362.5 334.9 362.6 335.2 362.7C374 377.2 395 444.1 395.2 444.7C424 504 430.7 534.6 431.3 549.8C432.1 571.8 427.6 587.1 417.1 598.1C402.7 613.2 376.3 620.2 334.2 620.2Z" fill="#F9494B"/>
<path d="M306 547C277.3 538.3 252.4 532.3 252.1 532.2L251.9 532.1L252 531.9C265.2 499.8 283.7 491.2 292.5 491.2C293.9 491.2 295.1 491.4 296.2 491.7C296.4 491.8 304.9 495 307.9 506.9C312.9 526.7 306.3 546.5 306.2 546.7V546.9L306 547Z" fill="black"/>
<path d="M273.1 425C256.4 421.4 244.5 416.4 237.8 410C232 404.5 231.4 399.2 231.8 395.7C231.8 395.5 233.1 386.7 251 385.5C253 385.4 255.2 385.3 257.5 385.3C270.4 385.3 282.9 391.9 283 391.9L283.3 392L283.1 392.3C276.2 401.2 273.2 424.8 273.2 425V425.2L273.1 425Z" fill="black"/>
<path d="M7.10004 667.5C5.10004 667.5 3.10004 667.4 1.10004 667.2H0.900024L26.6 571.3H26.7C71.8 564.3 109.7 535.2 127.9 493.3L128 493.2H128.2C146.9 496.5 161.1 499.8 161.2 499.8C161.6 499.9 197.3 507.8 208.2 511.8L208.4 511.9L208.3 512.1C202.3 533.3 198.7 552.7 195 573.4L194.3 577.1C190.3 598.8 186.6 618.2 186.5 618.3V618.5H186.3C183.2 618.5 180.1 618.5 177 618.5C148.8 618.5 128.5 619.1 115.1 620.3C81.9 623.3 64.7 636.9 49.6 649C44.4 653.2 39.4 657.1 34.2 660.3C26 665 16.6 667.5 7.10004 667.5Z" fill="#F696BB"/>
<path d="M98.1 699.5C96.1 699.5 94.1 699.4 92.1 699.2H91.9L118.1 601.4H118.2C160.7 593 196.5 564.2 213.9 524.5L214 524.4H214.2C235.3 527.9 252.1 531.8 252.3 531.9C252.5 532 277.5 538 306.2 546.7H306.3V546.8C306.4 556 301.2 568.6 295.8 582C291.5 592.5 287.1 603.3 284.4 614.1C281.3 626.6 281 639.4 283.4 652V652.2H209C206.9 652.2 204.8 652.3 202.7 652.6C171.8 656.2 155.3 669.3 140.7 680.9C135.5 685.1 130.5 689 125.3 692.2C117 697 107.6 699.5 98.1 699.5Z" fill="#F696BB"/>
<path d="M113.5 621.5C113.3 621.5 113.2 621.5 113 621.4C111.9 621.1 111.3 620 111.6 619L116.4 601C116.6 600.3 117.2 599.7 117.9 599.6C137.2 595.8 155.8 587.5 171.6 575.5C172.5 574.8 173.7 575 174.4 575.9C175.1 576.8 174.9 578 174 578.7C158 590.8 139.4 599.3 119.9 603.3L115.4 620.1C115.2 620.9 114.4 621.5 113.5 621.5Z" fill="black"/>
<path d="M283 652.2V652C280.6 639.3 280.9 626.5 284 613.9C286.8 602.6 291 591.9 295 581.6C299.8 569.4 304.2 557.9 305.8 546.9C312.2 509.6 304 494.8 296.2 491.8C304.6 494.6 363.3 520.3 370.5 523.5C367.6 519.8 352.1 499.4 332 469.1C314.7 443 305.6 404.1 320.4 384.4L320.5 384.3L452.3 412.9V413C453 414.2 520.3 529.7 522.3 582.1C523 601 517.8 616.4 506.9 627.8C491.2 644.1 463.7 652.3 425.1 652.3L283 652.2Z" fill="#F9494B"/>
<path d="M37 532.5L50 483.8H50.2C71.4 484.6 96.9 487.7 128.2 493.2H128.5L128.4 493.4C118.1 517.1 101.2 537.1 79.6 551.3L79.5 551.4L37 532.5Z" fill="black"/>
<path d="M128.6 562.1L141 515.8H141.2C173.7 517.8 190.4 520.4 214.2 524.3H214.5L214.4 524.5C205.3 545.2 191 563.4 173 577.1L172.9 577.2L128.6 562.1Z" fill="black"/>
<path d="M405.1 170.1C429.953 170.1 450.1 149.953 450.1 125.1C450.1 100.247 429.953 80.1001 405.1 80.1001C380.247 80.1001 360.1 100.247 360.1 125.1C360.1 149.953 380.247 170.1 405.1 170.1Z" fill="black"/>
<path d="M390.571 71.4423C398.43 47.8644 385.687 22.3802 362.109 14.5218C338.531 6.66329 313.047 19.4064 305.188 42.9843C297.33 66.5621 310.073 92.0463 333.651 99.9048C357.229 107.763 382.713 95.0201 390.571 71.4423Z" fill="black"/>
<path d="M398.9 242.5C386 242.5 375.6 232 375.6 219.2C375.6 206.4 386.1 195.9 398.9 195.9C411.7 195.9 422.2 206.4 422.2 219.2C422.2 232 411.8 242.5 398.9 242.5Z" fill="white"/>
<path d="M398.9 197.8C410.7 197.8 420.2 207.4 420.2 219.1C420.2 230.8 410.6 240.4 398.9 240.4C387.2 240.4 377.6 230.8 377.6 219.1C377.6 207.4 387.2 197.8 398.9 197.8ZM398.9 193.8C384.9 193.8 373.6 205.1 373.6 219.1C373.6 233.1 384.9 244.4 398.9 244.4C412.9 244.4 424.2 233.1 424.2 219.1C424.2 205.2 412.9 193.8 398.9 193.8Z" fill="black"/>
<path d="M394.4 223.2C393.4 223.2 392.5 222.5 392.4 221.5C392.3 220.4 393 219.4 394.1 219.3L411.9 217C413 216.9 414 217.6 414.1 218.7C414.2 219.8 413.5 220.8 412.4 220.9L394.6 223.2C394.6 223.2 394.5 223.2 394.4 223.2Z" fill="black"/>
<path d="M443.1 259.5C426.8 259.5 415.8 247.3 412.8 226.1C405.4 172.6 418.3 156.5 441.5 147.8C441.6 147.8 452.3 144.1 465.7 144.1C480.8 144.1 493.2 148.6 502.5 157.4C515.9 170.1 510.2 201.2 489.4 230C476.1 248.4 458.7 259.5 443.1 259.5Z" fill="white"/>
<path d="M465.8 146C480.4 146 492.3 150.3 501.3 158.8C507.1 164.3 509.1 174.1 507.1 186.5C504.9 199.8 498.1 214.8 488 228.7C475.1 246.4 458 257.4 443.2 257.4C428 257.4 417.7 245.9 414.9 225.7C407.7 173.5 420 157.9 442.3 149.6C442.8 149.5 453 146 465.8 146ZM465.8 142C451.8 142 440.9 145.9 440.9 145.9C415 155.5 403.7 174.8 410.9 226.3C414.2 250.3 427.3 261.4 443.2 261.4C458.7 261.4 476.9 250.7 491.2 231C513 200.9 518 169 504.1 155.8C492.4 145 477.9 142 465.8 142Z" fill="black"/>
<path d="M440.8 145.9C418.3 154.3 406.8 169.9 408.9 207.6C446.2 203.1 457.4 156.3 457.4 156.3C479.7 185.6 509.9 192.2 509.9 192.2C513.6 176.6 511.8 163.3 504 155.9C479.2 132.4 440.8 145.9 440.8 145.9Z" fill="black"/>
<path d="M471.5 221.4C470.6 221.4 469.8 220.8 469.5 219.8C469.3 218.7 469.9 217.7 471 217.4C472.4 217.1 473.8 216.4 474.9 215.3C476.6 213.5 478.1 208.4 479.8 199C480 197.9 481 197.2 482.1 197.4C483.2 197.6 483.9 198.6 483.7 199.7C481.7 210.5 480 215.6 477.7 218.1L477.6 218.2C475.9 219.7 473.9 220.8 471.8 221.3C471.8 221.4 471.6 221.4 471.5 221.4Z" fill="black"/>
<path d="M463.8 202.5C463.6 202.5 463.4 202.5 463.2 202.4C462.1 202.1 461.6 200.9 461.9 199.9L462.7 197.4C463 196.3 464.2 195.8 465.2 196.1C466.3 196.4 466.8 197.6 466.5 198.6L465.7 201.1C465.4 202 464.6 202.5 463.8 202.5Z" fill="black"/>
<path d="M493.1 205C492.9 205 492.7 205 492.5 204.9C491.4 204.6 490.9 203.4 491.2 202.4L492 199.9C492.3 198.8 493.5 198.3 494.5 198.6C495.6 198.9 496.1 200.1 495.8 201.1L495 203.6C494.7 204.5 493.9 205 493.1 205Z" fill="black"/>
<path d="M461.3 232C461.2 232 461.1 232 461 232C460.4 231.9 459.9 231.8 459.4 231.7C459.4 231.7 459.3 231.7 459.2 231.7C453.6 230.2 450.3 224.4 451.8 218.9C452.1 217.8 453.2 217.2 454.2 217.5C455.3 217.8 455.9 218.9 455.6 219.9C454.7 223.3 456.7 226.9 460.1 227.8C460.6 227.9 461 228 461.6 228.1C462.7 228.3 463.4 229.3 463.2 230.4C463.1 231.3 462.3 232 461.3 232Z" fill="black"/>
<path d="M636.8 537.1C629.9 537.1 621.2 534.8 610.9 530.2C584.7 518.4 561.4 501.4 542.8 487.8L540.6 486.2L532.5 469.3L576.8 409.6L588.7 414.9C601.1 423.7 612.3 431.1 622.1 437.7C637.4 447.9 648.5 455.3 651.5 459.3C653.7 462.2 654.4 464.6 653.7 466.5C652.4 469.9 646.8 471.1 646.7 471.1L641.8 472.1L646.1 474.8C646.2 474.9 659.2 483 669.1 488.8C676.3 493 679.9 498.2 679 502.8C678.5 505.5 676.3 507.7 673.8 508.1L671.7 508.4L672.1 510.5C672.1 510.6 673.4 517 670.7 520.6C669.6 522.1 668 522.9 665.8 523.1L664.3 523.2L664 524.7C663.9 525 662.4 533.3 652.2 533.3C651.3 533.3 650.3 533.2 649.2 533.1L648 532.9L647.3 533.9C647.5 533.8 644.9 537.1 636.8 537.1Z" fill="white"/>
<path d="M577.5 412L587.8 416.6C600.1 425.3 611.3 432.8 621.1 439.3C635.7 449 647.2 456.7 650 460.5C651 461.8 652.5 464.2 651.9 465.8C651.2 467.6 647.8 468.9 646.4 469.2L636.5 471.2L645 476.5C645.1 476.6 658.1 484.7 668.1 490.6C674.4 494.3 677.8 498.8 677 502.5C676.6 504.6 674.9 506 673.5 506.2L669.3 506.8L670.2 511C670.5 512.5 671 517.1 669.2 519.5C668.7 520.1 667.9 521 665.8 521.1L662.7 521.4L662.2 524.4C662.2 524.7 661 531.3 652.4 531.3C651.5 531.3 650.6 531.2 649.7 531.1L647.3 530.4L646 532.6C645.6 533 643.2 535.1 636.9 535.1C630.3 535.1 621.8 532.8 611.9 528.3C585.8 516.6 563.7 500.4 544.1 486.1L542.3 484.8L534.9 469.4L577.5 412ZM576.2 407L530.2 469L539.1 487.5C558.8 501.9 582.6 519.6 610.2 532C622.3 537.5 630.9 539.1 636.9 539.1C646.3 539.1 649.2 535 649.2 535C650.4 535.2 651.4 535.2 652.4 535.2C664.5 535.2 666.2 525 666.2 525C677.2 524 674.2 510 674.2 510C681.2 509 687.2 497 670.2 487C660.1 481.1 647.2 473 647.2 473C647.2 473 662.2 470 653.2 458C647.9 451 622.2 436 589.7 413L576.2 407Z" fill="black"/>
<path d="M538.9 487.6C525.8 478.2 513.1 467.9 501.1 457.2C499.6 457.8 484.6 463.9 460.9 463.9C439.9 463.9 418.4 459.3 397.1 450.1C368.9 438.1 353 427.7 339 418.5C322.5 407.7 309.5 399.2 283.2 392.2C258.5 386.2 237.3 388.4 231.9 395.6C232.3 393.8 233.5 391.8 234.2 390.5C237.6 384.8 268 350.7 368 260.8C390.9 240.2 409.8 230.6 427.5 230.6C437.3 230.6 446.8 233.5 457.2 239.8C476.5 251.4 491.5 277.1 508.8 306.9C518.7 323.9 528.9 341.5 541.2 358.8C556.6 380.6 572 397.7 589.7 412.8L589.8 412.9L538.9 487.7V487.6Z" fill="#F696BB"/>
<path d="M643.2 475C642.8 475 642.5 474.9 642.2 474.7L627.2 465.7C626.3 465.1 625.9 463.9 626.5 463C627.1 462.1 628.3 461.7 629.2 462.3L644.2 471.3C645.1 471.9 645.5 473.1 644.9 474C644.5 474.7 643.9 475 643.2 475Z" fill="black"/>
<path d="M672.2 511C671.9 511 671.7 511 671.4 510.9C649.5 501.9 607.8 473.9 606 472.7C605.1 472.1 604.8 470.8 605.5 469.9C606.2 469 607.4 468.7 608.3 469.4C608.7 469.7 651.4 498.4 672.9 507.2C673.9 507.6 674.4 508.8 674 509.8C673.7 510.5 673 511 672.2 511Z" fill="black"/>
<path d="M664.5 525.5C664.4 525.5 664.3 525.5 664.2 525.5C653.4 523.8 610.3 497 596 487.7C595.1 487.1 594.8 485.9 595.4 484.9C596 484 597.2 483.7 598.2 484.3C620 498.5 656.3 520.1 664.8 521.5C665.9 521.7 666.6 522.7 666.5 523.8C666.3 524.8 665.5 525.5 664.5 525.5Z" fill="black"/>
<path d="M649.2 535C649 535 648.9 535 648.7 534.9C635.6 531.4 610.1 515.4 594.9 505.9C592.3 504.3 590 502.8 588.1 501.7C587.2 501.1 586.9 499.9 587.4 498.9C588 498 589.2 497.7 590.2 498.2C592.1 499.4 594.4 500.8 597 502.4C612 511.8 637.2 527.6 649.7 530.9C650.8 531.2 651.4 532.3 651.1 533.3C650.9 534.4 650.1 535 649.2 535Z" fill="black"/>
<path d="M501.2 459C500.7 459 500.3 458.8 499.9 458.5C459.1 423.7 429.8 374.5 429.5 374C428.9 373 429.3 371.8 430.2 371.3C431.2 370.7 432.4 371.1 432.9 372C433.2 372.5 462.2 421.1 502.5 455.5C503.3 456.2 503.4 457.5 502.7 458.3C502.3 458.8 501.8 459 501.2 459Z" fill="black"/>
<path d="M342.2 351C341.8 351 341.4 350.9 341.1 350.7C340.9 350.5 316.3 334.2 288 337.3C286.9 337.4 285.9 336.6 285.8 335.5C285.7 334.4 286.5 333.4 287.6 333.3C317.4 330 342.3 346.6 343.3 347.3C344.2 347.9 344.4 349.2 343.8 350.1C343.5 350.7 342.8 351 342.2 351Z" fill="black"/>
<path d="M364.2 320C363.8 320 363.4 319.9 363.1 319.7C362.9 319.6 344 307 320.5 305.9C319.4 305.9 318.5 304.9 318.6 303.8C318.7 302.7 319.6 301.8 320.7 301.9C345.4 303 364.5 315.8 365.3 316.3C366.2 316.9 366.5 318.2 365.8 319.1C365.5 319.7 364.8 320 364.2 320Z" fill="black"/>
<path d="M217.2 655C216.1 655 215.2 654.1 215.2 653V621C215.2 619.9 216.1 619 217.2 619C218.3 619 219.2 619.9 219.2 621V653C219.2 654.1 218.3 655 217.2 655Z" fill="black"/>
<path d="M189.5 656.5C188.6 656.5 187.9 656 187.6 655.1L177.7 623.6C177.4 622.5 178 621.4 179 621.1C180.1 620.8 181.2 621.4 181.5 622.4L191.4 653.9C191.7 655 191.1 656.1 190.1 656.4C189.9 656.5 189.7 656.5 189.5 656.5Z" fill="black"/>
<path d="M89.3001 627.5C88.5001 627.5 87.7001 627 87.4001 626.1L77.4001 594.6C77.1001 593.5 77.6001 592.4 78.7001 592.1C79.8001 591.8 80.9001 592.3 81.2001 593.4L91.2001 624.9C91.5001 626 91.0001 627.1 89.9001 627.4C89.7001 627.5 89.5001 627.5 89.3001 627.5Z" fill="black"/>
<path d="M539 489.5C538.6 489.5 538.2 489.4 537.9 489.2C537 488.6 536.8 487.3 537.4 486.4L588.1 411.9C588.7 411 590 410.7 590.9 411.4C591.8 412 592 413.3 591.4 414.2L540.7 488.7C540.3 489.2 539.6 489.5 539 489.5Z" fill="black"/>
<path d="M484.8 443.8C484.3 443.8 483.9 443.6 483.5 443.3C482.7 442.6 482.6 441.3 483.3 440.5L546.6 367.1C547.3 366.3 548.6 366.2 549.4 366.9C550.2 367.6 550.3 368.9 549.6 369.7L486.3 443.1C485.9 443.6 485.4 443.8 484.8 443.8Z" fill="black"/>
<path d="M530.2 456C536.828 456 542.2 450.627 542.2 444C542.2 437.373 536.828 432 530.2 432C523.573 432 518.2 437.373 518.2 444C518.2 450.627 523.573 456 530.2 456Z" fill="black"/>
<path d="M431.2 552C430.9 552 430.7 551.9 430.4 551.8C429.1 551.3 304.4 496.8 295.6 493.9C294.6 493.6 294 492.4 294.3 491.4C294.6 490.4 295.8 489.8 296.8 490.1C305.8 493.1 426.8 545.9 432 548.2C433 548.6 433.5 549.8 433 550.8C432.7 551.6 432 552 431.2 552Z" fill="black"/>
<path d="M371.2 526C370.6 526 370 525.7 369.6 525.2C369.4 525 352.8 503.7 330.5 470.1C321.6 456.6 315.5 441.6 312.4 425.5C312.2 424.4 312.9 423.4 314 423.2C315.1 423 316.1 423.7 316.3 424.8C319.3 440.4 325.2 454.9 333.8 468C356 501.4 372.5 522.7 372.7 522.9C373.4 523.8 373.2 525 372.4 525.7C372.1 525.9 371.6 526 371.2 526Z" fill="black"/>
</svg>
